<svg width="936" height="786" viewBox="0 0 936 786" fill="none" xmlns="http://www.w3.org/2000/svg">
<path d="M428.911 0.568772C415.957 1.70738 388.389 7.91791 370.356 13.7144C360.821 16.8197 350.146 21.3742 339.161 26.9637C277.289 58.6376 234.175 105.838 208.162 170.324C201.115 187.817 197.695 199.1 194.171 216.386C184.844 262.758 185.984 299.504 198.316 343.288C207.126 374.445 224.019 408.189 244.954 436.343C254.488 448.972 261.121 456.114 280.294 474.124C299.26 491.928 304.649 495.861 307.655 494.309C308.795 493.688 316.671 492.756 325.066 492.135C333.461 491.617 343.825 490.893 348.074 490.479L355.847 489.961L351.183 488.098C346.519 486.235 346.001 485.303 347.659 481.474C348.385 479.714 348.177 479.714 346.208 481.681C344.965 482.923 343.617 483.958 343.203 483.958C340.301 483.958 315.22 465.016 301.436 452.387C289.414 441.622 284.647 436.55 275.009 424.44C270.863 419.264 266.2 413.675 264.541 412.019C261.225 408.396 250.861 391.42 250.032 387.901C249.617 386.659 248.996 385.624 248.477 385.624C247.441 385.624 247.13 384.899 239.254 366.475C236.352 359.643 233.346 352.811 232.517 351.362C230.133 347.015 222.775 319.999 220.391 306.543C217.282 289.05 217.282 256.651 220.495 236.674C222.775 222.079 224.537 214.833 225.884 214.833C226.299 214.833 226.402 214.005 226.092 212.97C225.573 210.9 227.646 201.791 231.17 191.026C232.31 187.3 237.388 175.914 242.363 165.666C250.032 149.622 255.836 139.685 270.241 118.155C273.661 112.876 298.535 87.9307 308.691 79.5465C312.94 76.0271 321.957 69.6095 328.693 65.2621C340.612 57.706 367.454 44.0427 370.356 44.0427C371.185 44.0427 372.118 43.6287 372.429 43.0076C373.672 40.9374 402.898 32.9672 417.926 30.5865C438.343 27.3777 452.334 26.5496 473.994 27.4812C492.442 28.2058 497.831 28.8268 509.749 31.5181C546.748 39.9023 566.128 48.0796 596.287 67.9534C616.186 81.0991 628 91.45 644.168 109.978C654.117 121.364 654.635 122.192 653.081 123.952C651.319 125.919 652.666 126.54 654.532 124.677C655.361 123.848 656.086 124.159 657.226 125.919C686.556 172.808 698.578 208.105 701.687 257.065C703.345 282.011 701.791 301.471 696.816 320.827C694.951 328.383 692.36 337.285 691.116 340.597C689.769 344.013 687.074 351.673 684.898 357.676C679.198 373.824 665.725 399.08 655.465 412.433C634.115 440.587 603.024 469.57 580.327 482.405C574.834 485.51 569.03 488.926 567.476 489.961L564.47 491.928L582.503 492.549C595.665 492.963 602.195 493.584 607.169 495.033L613.906 497L626.86 485.614C652.459 463.256 666.968 447.833 682.411 426.51C690.805 414.917 695.054 407.878 703.242 391.524C717.544 363.059 724.799 339.562 730.602 302.299C732.675 289.464 732.364 254.167 730.188 238.123C728.322 224.667 723.14 198.893 721.068 192.061C718.062 182.228 708.942 159.456 704.9 151.175C676.503 94.2448 639.712 56.8779 583.332 27.6882C557.837 14.5425 531.617 6.36528 500.525 2.01788C487.571 0.258222 443.11 -0.673341 428.911 0.568772ZM461.557 6.67581C461.868 7.7109 463.527 9.16005 465.185 9.88462C468.916 11.4373 469.019 12.0583 466.118 13.818C464.459 14.8531 464.148 15.7846 464.667 17.9583C465.185 20.2355 465.081 20.5461 464.045 19.4075C463.319 18.7864 461.454 18.1653 460.003 18.1653C458.552 18.1653 456.686 18.7864 455.961 19.4075C454.821 20.5461 454.717 20.3391 455.236 18.5794C455.546 17.4408 455.236 15.6811 454.303 14.439C452.334 11.8513 452.334 11.1267 454.614 10.4021C455.754 10.0916 457.101 8.64248 457.723 7.29685C459.174 4.19157 460.625 3.98456 461.557 6.67581ZM558.459 28.9303C559.806 31.4146 559.806 31.8286 558.459 32.6567C556.179 34.1058 555.557 33.8988 553.692 31.104C552.345 28.9303 552.241 28.2058 553.277 26.9637C555.039 24.8935 556.49 25.411 558.459 28.9303ZM368.179 28.1023C369.838 32.4497 368.283 34.7269 363.516 34.7269C361.028 34.7269 360.821 31.0005 363.308 28.3093C365.381 26.0321 367.35 25.9286 368.179 28.1023ZM623.233 67.3324C623.233 70.7482 621.057 71.5762 619.295 68.7815C617.844 66.5043 619.191 63.5025 621.368 63.9165C622.715 64.1235 623.233 65.2622 623.233 67.3324ZM304.338 65.9867C303.613 67.9534 300.4 68.2639 300.4 66.4008C300.4 65.3657 301.333 64.7446 302.577 64.7446C303.82 64.7446 304.546 65.2622 304.338 65.9867ZM651.734 92.7957C651.734 94.9694 651.63 95.0729 649.246 94.1413C647.277 93.4167 647.07 91.036 648.935 90.3114C650.801 89.6904 651.734 90.5185 651.734 92.7957ZM259.463 111.738C259.463 115.464 256.768 117.534 254.385 115.568C252.208 113.705 252.312 110.703 254.592 109.357C257.598 107.597 259.463 108.529 259.463 111.738ZM668.316 110.806C669.87 112.773 668.005 115.464 665.103 115.464C663.03 115.464 660.543 111.841 661.579 110.289C662.512 108.736 666.865 109.047 668.316 110.806ZM685.001 138.236C687.074 139.375 687.696 142.894 685.934 143.929C682.825 145.792 678.576 141.342 680.856 138.65C682.307 136.891 682.41 136.891 685.001 138.236ZM242.052 139.375C244.332 141.652 239.875 147.656 237.077 145.896C236.041 145.275 235.834 139.996 236.87 138.961C237.906 137.822 240.808 138.133 242.052 139.375ZM222.879 175.189C225.159 177.259 225.262 178.398 222.982 180.882C220.702 183.47 218.837 183.263 216.764 180.054C215.106 177.466 215.106 177.259 217.593 175.396C220.599 173.015 220.495 173.015 222.879 175.189ZM704.693 175.5L707.18 177.57L704.175 180.158L701.273 182.849L698.785 180.158C695.78 176.949 695.78 176.638 698.164 174.879C700.651 173.015 701.894 173.119 704.693 175.5ZM209.198 225.702C211.064 227.875 209.717 230.36 206.608 230.36C204.535 230.36 204.017 229.842 204.017 227.979C204.017 223.942 206.711 222.803 209.198 225.702ZM718.062 229.325C718.062 229.842 717.544 230.36 716.922 230.36C716.404 230.36 716.197 229.842 716.507 229.325C716.818 228.704 717.337 228.289 717.647 228.289C717.855 228.289 718.062 228.704 718.062 229.325ZM725.109 274.248L728.115 274.972L723.969 279.009C721.689 281.286 719.306 283.149 718.58 283.149C717.958 283.149 715.678 281.286 713.606 279.009C710.496 275.49 710.186 274.869 711.947 274.869C713.191 274.869 714.849 273.42 716.197 271.142L718.373 267.52L720.238 270.625C721.275 272.385 723.244 273.937 725.109 274.248ZM204.017 272.281C204.742 273.73 206.297 274.869 207.333 274.869C210.028 274.869 209.717 275.904 205.468 280.251C201.84 284.081 199.871 285.116 199.871 283.149C199.871 282.632 198.42 280.562 196.658 278.492L193.445 274.869H196.14C198.006 274.869 199.249 274.041 200.078 272.281C200.7 270.832 201.529 269.693 201.944 269.693C202.358 269.693 203.291 270.832 204.017 272.281ZM224.952 365.336C226.299 368.545 225.366 371.132 222.879 371.132C219.977 371.132 218.215 368.545 218.94 365.439C219.77 362.024 223.397 362.024 224.952 365.336ZM702.309 367.613C702.724 370.718 700.133 372.582 697.438 371.132C694.951 369.89 694.64 368.027 696.505 366.164C698.474 364.197 701.998 365.129 702.309 367.613ZM240.705 397.631C242.881 400.84 242.466 403.738 239.772 403.738C237.388 403.738 234.486 399.08 235.419 396.699C236.352 394.112 238.735 394.526 240.705 397.631ZM686.452 398.873C687.385 401.357 683.136 404.773 681.167 403.117C679.301 401.564 679.301 400.219 681.374 397.941C683.24 395.871 685.416 396.285 686.452 398.873ZM260.085 425.164C261.432 427.752 259.463 430.34 256.458 429.926C254.903 429.719 254.177 428.684 253.97 426.614C253.348 421.749 257.701 420.713 260.085 425.164ZM666.865 427.649C667.694 430.754 666.243 432.514 663.548 431.996C662.201 431.789 661.476 430.65 661.268 428.27C660.957 425.371 661.268 424.957 663.548 424.957C665.517 424.957 666.347 425.682 666.865 427.649ZM273.247 441.105C275.838 442.865 276.252 445.866 273.972 447.729C270.345 450.731 265.992 446.591 268.065 442.14C269.516 439.035 270.138 438.828 273.247 441.105ZM652.874 443.175C653.806 444.314 653.91 445.245 653.081 446.487C651.734 448.765 648.624 448.765 647.277 446.591C644.79 442.657 649.868 439.552 652.874 443.175ZM291.487 460.772C292.42 461.082 293.145 462.531 293.145 463.773C293.145 465.119 293.767 466.465 294.493 466.775C295.115 467.086 294.182 467.189 292.213 467.086C288.378 466.879 286.202 464.498 287.238 461.807C287.964 460.047 288.896 459.737 291.487 460.772ZM635.151 463.773C635.151 464.601 634.219 465.326 633.079 465.326C630.799 465.326 630.28 463.773 632.353 462.945C634.53 462.014 635.151 462.221 635.151 463.773ZM622.715 473.089C623.751 474.331 623.751 474.952 622.715 476.195C621.057 478.265 618.984 478.161 618.155 476.091C617.533 474.435 619.088 471.537 620.642 471.537C621.057 471.537 621.989 472.261 622.715 473.089Z" fill="#4A4A4A"/>
<path d="M448.949 65.4522C439.335 68.4558 434.063 75.6021 429.618 91.3447C426.931 101.08 418.868 126.662 415.456 136.398C413.699 141.265 411.012 149.655 409.461 155.04C407.807 160.426 405.636 167.158 404.499 170.058C402.638 174.822 399.124 188.597 397.47 197.711C396.643 202.786 393.025 205.997 373.901 218.632C346.198 236.861 336.274 242.35 313.326 251.878C306.194 254.882 291.101 261.199 279.731 266.067C268.36 270.831 255.852 276.217 251.82 277.874C247.892 279.428 243.034 282.224 241.07 283.985C237.865 286.988 237.659 287.61 238.279 291.131C238.796 293.824 239.933 295.481 242.104 296.828C243.861 297.967 260.297 303.767 278.49 309.774C296.787 315.884 319.012 323.859 327.798 327.588C336.585 331.316 347.542 335.77 352.09 337.427C365.322 342.398 379.483 348.82 379.69 350.166C379.794 350.787 379.897 357.105 380 364.252C380 377.094 380 377.198 382.481 377.508C384.859 377.923 384.859 378.13 384.238 384.448L383.618 390.973L389.2 400.087C396.54 412.101 400.571 415.415 407.704 415.415C418.764 415.312 426.104 408.787 431.272 394.08C433.133 389.005 434.89 384.966 435.407 384.966C435.821 384.966 436.337 392.837 436.544 402.572L436.854 420.179L440.679 423.286C443.883 425.979 445.021 428.154 448.638 439.133C451.016 446.072 453.6 455.497 454.427 460.054C455.978 468.132 458.149 473 460.113 473C461.87 473 464.247 465.75 468.899 446.693C473.344 428.258 473.447 428.154 477.686 424.426C481.924 420.801 482.027 420.386 482.854 412.412C483.371 407.854 483.474 399.672 483.268 394.287L482.751 384.448L485.645 392.837C490.71 407.44 498.98 414.897 510.247 415.001C516.76 415.001 519.861 413.033 525.856 405.058C532.989 395.53 534.54 391.594 534.54 383.101C534.54 376.369 534.746 375.644 536.607 375.644C538.571 375.644 538.674 374.919 538.674 364.459C538.674 358.348 538.985 352.341 539.295 351.098C539.708 349.441 542.396 347.784 549.322 344.78C554.594 342.502 559.969 340.327 561.416 339.913C562.863 339.498 570.409 336.184 578.265 332.559C586.122 328.831 595.632 324.688 599.353 323.238C603.178 321.891 606.692 320.338 607.313 319.82C608.45 318.888 616.306 316.092 649.695 304.595C668.301 298.277 678.535 293.617 681.326 290.199C682.257 289.06 682.257 288.128 681.119 285.849C679.362 282.121 674.71 279.117 665.51 275.699C644.526 267.828 598.216 248.046 583.744 240.796C570.513 234.168 544.153 218.736 540.742 215.629C539.295 214.386 534.54 210.657 530.095 207.343C525.753 204.029 521.928 200.404 521.618 199.161C521.308 198.022 520.688 195.122 520.171 192.843C518.207 183.833 508.077 150.897 497.946 120.344C492.054 102.634 486.162 84.6127 484.922 80.2627C483.578 75.9128 481.614 71.3557 480.373 70.2164C477.376 67.42 465.074 63.8987 458.665 64.0022C455.771 64.0022 451.43 64.6237 448.949 65.4522ZM467.659 78.3985C467.969 79.5377 467.659 80.4699 467.142 80.4699C466.418 80.4699 466.212 83.8877 466.625 90.8269L467.142 101.08H458.872C454.324 101.08 450.396 101.287 450.086 101.598C449.776 101.909 449.879 103.67 450.396 105.534L451.43 108.952L459.906 109.262C466.315 109.469 468.382 109.262 468.382 108.227C468.382 105.845 470.553 98.9053 471.173 99.4232C471.483 99.7339 472.827 99.6303 474.171 99.1125C476.962 97.9732 476.755 97.2482 479.236 112.577C481.407 125.419 482.441 142.405 481.097 141.058C480.477 140.437 478.719 136.191 477.169 131.426C475.618 126.662 473.344 121.587 472 120.034C469.83 117.548 469.003 117.341 459.389 116.926L449.155 116.512L446.468 122.519C444.917 125.937 442.953 131.53 442.126 135.051C441.196 138.676 439.025 144.994 437.371 149.24C431.065 164.983 427.034 191.29 427.034 216.871V229.403L422.486 232.096C412.355 238 401.501 254.467 397.367 270.003C396.126 274.767 395.609 280.567 395.609 289.681C395.713 301.385 396.023 303.56 398.917 312.052C400.778 317.231 402.225 322.306 402.225 323.341C402.225 327.795 408.531 338.152 415.146 344.47C418.868 347.991 421.865 351.616 421.865 352.341C421.865 353.273 419.281 353.895 412.872 354.309C407.807 354.723 400.674 355.241 396.953 355.552L390.131 356.07L389.924 329.348C389.821 314.642 389.614 297.035 389.614 290.199C389.407 273.628 395.299 239.657 401.191 222.154C402.949 217.286 404.292 211.175 404.292 208.689C404.292 206.307 405.533 200.922 406.98 196.986C408.324 192.947 410.185 186.422 411.012 182.279C411.735 178.136 413.803 171.611 415.56 167.779C417.214 163.947 419.074 158.665 419.798 156.076C422.382 145.719 441.196 89.3769 443.78 84.302C447.398 77.0521 448.742 76.3271 458.459 76.3271C466.212 76.3271 467.142 76.5342 467.659 78.3985ZM469.003 134.844C473.654 150.69 478.719 170.886 478.719 173.683C478.719 177.618 475.101 181.761 471.07 182.59C469.106 182.901 462.594 182.693 456.391 182.176C446.054 181.243 445.021 181.036 442.746 178.343C440.576 175.754 440.369 174.822 440.989 170.161C442.023 163.015 450.809 132.358 452.773 129.251C453.807 127.698 460.113 126.144 464.144 126.351C466.212 126.558 466.832 127.594 469.003 134.844ZM490.09 155.558C490.09 156.076 489.573 155.869 489.056 155.04C488.54 154.212 488.023 152.969 488.023 152.451C488.023 151.83 488.54 152.14 489.056 152.969C489.573 153.797 490.09 154.937 490.09 155.558ZM492.364 164.362C492.881 164.362 493.191 165.087 492.881 165.812C492.468 166.847 492.778 167.158 493.812 166.744C494.535 166.433 495.259 165.812 495.259 165.294C495.259 164.776 496.189 164.362 497.326 164.362C498.67 164.362 499.394 165.087 499.394 166.433C499.394 167.572 499.807 168.504 500.221 168.504C501.254 168.504 505.079 179.276 507.043 188.183C507.87 191.911 509.731 198.125 511.178 202.165C512.522 206.1 513.659 209.518 513.555 209.622C513.452 209.622 508.387 209.518 502.391 209.207L491.434 208.586L490.4 185.697C489.883 173.165 489.677 161.876 489.987 160.737C490.504 158.976 490.607 159.183 490.917 161.462C491.124 163.119 491.744 164.362 492.364 164.362ZM497.016 162.497C496.706 163.326 496.396 163.015 496.396 161.876C496.292 160.737 496.603 160.115 496.913 160.529C497.223 160.84 497.326 161.772 497.016 162.497ZM481.614 205.065C482.234 221.118 482.131 223.293 480.787 222.775C479.96 222.464 473.861 221.739 467.349 221.325C455.047 220.393 443.47 221.221 439.542 223.293C436.958 224.743 437.061 224.95 437.371 203.718C437.578 192.429 439.025 178.447 439.335 184.765C439.542 189.322 443.16 190.358 459.699 190.565L474.998 190.772L477.686 186.111C480.787 180.518 480.58 179.276 481.614 205.065ZM516.14 223.396C519.034 231.786 527.097 264.721 527.924 271.246C528.441 275.285 528.234 277.253 527.304 277.771C526.373 278.288 526.27 277.874 526.787 276.217C527.2 274.767 527.097 274.146 526.477 274.56C525.96 274.871 525.236 273.731 524.823 272.074C522.342 259.232 512.522 244.835 498.98 233.753L492.158 228.264V222.671V217.079L503.218 217.389L514.176 217.7L516.14 223.396ZM389.924 227.953C387.443 233.961 384.755 245.664 381.034 266.896C378.967 278.288 378.553 284.503 378.45 300.245C378.45 315.159 378.14 319.716 377.209 319.716C375.659 319.716 362.531 314.849 343.821 307.288C317.358 296.724 290.481 287.92 288.31 289.267C287.897 289.578 287.483 290.82 287.483 292.063C287.483 294.756 293.582 297.449 308.158 301.177C316.427 303.352 324.697 306.563 343.304 314.642C347.542 316.506 357.362 320.131 365.012 322.824L378.967 327.691L379.277 331.938C379.483 334.32 379.277 336.288 378.863 336.288C378.553 336.288 374.108 334.423 369.043 332.145C363.978 329.866 359.429 328.002 358.913 328.002C357.879 328.002 321.079 312.259 315.394 309.359C309.605 306.46 275.596 294.963 264.949 292.27C259.677 290.924 255.025 289.578 254.612 289.267C253.681 288.231 255.542 286.885 261.124 284.71C280.764 277.046 317.461 261.821 325.214 258.299C337.412 252.603 354.364 243.178 374.832 230.543C383.928 224.95 391.578 220.807 391.681 221.429C391.888 221.946 391.061 224.95 389.924 227.953ZM541.362 230.232C544.463 232.303 546.944 234.271 546.944 234.789C546.944 235.203 550.769 237.275 555.524 239.45C560.176 241.625 565.241 244.214 566.688 245.25C574.958 251.05 622.612 272.074 646.18 280.36C653.519 282.846 659.618 286.471 659.618 288.231C659.618 289.37 652.072 292.788 649.591 292.788C648.868 292.788 641.115 295.17 632.225 298.07C623.335 300.97 615.789 303.145 615.582 302.835C615.272 302.524 616.099 302.006 617.443 301.592C619.717 300.867 626.023 298.174 631.708 295.585C634.189 294.342 637.91 291.235 637.91 290.199C637.91 289.888 636.67 289.888 635.119 290.303L632.225 290.924L634.809 288.749C636.256 287.61 638.324 286.471 639.461 286.263C640.598 286.056 639.668 286.056 637.394 286.263C627.47 287.299 590.36 299.313 578.886 305.217C570.409 309.567 554.594 316.609 553.146 316.609C552.63 316.609 552.113 306.977 551.803 295.067C551.596 283.26 550.665 268.76 549.735 262.753C548.908 256.746 547.874 249.6 547.564 246.803C546.944 242.039 547.048 241.832 548.701 243.282C549.735 244.11 551.286 245.25 552.113 245.664C556.351 248.046 550.355 242.764 543.74 238.31C536.194 233.236 532.472 229.403 532.472 226.814C532.472 224.846 534.23 225.468 541.362 230.232ZM471.38 231.164C495.465 237.378 511.385 255.71 514.796 280.878L515.623 286.574H511.901H508.18L506.94 280.36C504.562 267.724 497.74 257.782 486.369 250.325C476.859 244.11 464.558 240.485 455.668 241.314C447.605 242.039 433.856 248.667 427.034 255.089C420.832 260.889 415.456 271.349 413.492 281.085L412.252 287.61H407.807C402.638 287.61 402.638 287.713 404.396 277.253C406.36 265.032 414.216 250.221 422.899 242.35C426 239.553 443.056 230.957 446.674 230.336C452.773 229.3 466.005 229.714 471.38 231.164ZM455.978 257.782C460.009 264.41 458.252 272.074 451.326 278.081C443.367 285.124 437.164 283.571 429.722 272.489L427.654 269.589L426.31 273.006C425.483 274.871 424.863 279.738 424.863 283.778C424.656 305.113 440.576 321.27 461.663 321.166C475.722 321.063 488.333 312.363 493.191 299.21C495.052 294.342 495.362 291.649 495.052 283.985C494.742 276.114 494.122 273.524 491.331 267.517C486.886 258.092 490.4 260.785 495.362 270.728C498.67 277.253 498.877 278.288 498.877 288.128C498.877 297.76 498.67 299.002 495.465 305.424C488.85 318.991 476.239 326.552 460.63 326.345C441.816 326.138 428.274 315.884 422.796 297.656C420.212 289.37 420.522 276.942 423.313 272.592C425.38 269.485 431.376 265.032 430.549 267.31C429.308 270.521 431.169 268.967 432.513 265.549C434.994 259.749 443.367 254.467 449.982 254.467C453.29 254.467 454.221 254.985 455.978 257.782ZM515.106 292.685C516.346 293.824 513.142 308.738 510.351 314.538C505.492 324.895 503.012 327.07 479.443 342.295C467.762 349.752 444.917 349.545 435.717 341.88L432.719 339.395L436.647 340.948C441.196 342.813 441.713 342.191 437.474 339.913C435.717 339.084 429.618 334.631 423.933 329.97C414.319 322.409 413.079 320.959 409.874 314.124C406.67 307.392 403.259 294.445 404.396 293.41C404.603 293.203 406.773 292.788 409.047 292.478L413.389 291.96L413.906 296.413C414.94 306.46 425.173 322.513 433.65 327.484C447.191 335.459 461.973 338.048 473.654 334.631C491.744 329.245 502.701 316.817 506.733 297.242C508.077 290.82 508.077 290.82 511.178 291.442C512.935 291.753 514.692 292.27 515.106 292.685ZM575.371 315.47C574.027 316.609 566.998 318.991 568.032 317.956C568.445 317.438 570.306 316.609 572.063 315.884C576.198 314.331 576.508 314.331 575.371 315.47ZM565.964 320.234C565.241 321.891 561.416 322.409 561.416 320.856C561.416 320.027 563.07 319.199 565.758 318.784C566.171 318.784 566.274 319.406 565.964 320.234ZM528.131 343.123C528.544 356.587 528.544 357.209 526.683 356.587C525.546 356.277 520.171 355.966 514.692 355.759C509.11 355.655 504.562 355.345 504.562 355.137C504.562 354.93 506.836 352.237 509.524 349.234C512.315 346.23 516.553 340.327 519.034 336.184C526.58 323.341 527.51 324.066 528.131 343.123ZM542.292 334.216C542.603 334.734 542.396 335.252 541.879 335.252C541.259 335.252 540.742 334.734 540.742 334.216C540.742 333.595 540.949 333.181 541.155 333.181C541.465 333.181 541.982 333.595 542.292 334.216ZM445.434 355.345C454.014 358.452 463.421 358.348 476.445 355.241C478.719 354.723 478.719 354.827 478.719 364.666V374.609H458.562H438.405V366.53C438.405 358.244 439.128 353.895 440.472 353.895C440.886 353.895 443.16 354.516 445.434 355.345ZM419.798 366.219V370.155L414.423 370.88C406.256 371.812 391.061 371.605 390.441 370.569C390.027 370.051 390.234 368.394 390.854 366.944C391.785 364.459 392.301 364.252 398.814 364.148C402.742 364.044 408.427 363.734 411.528 363.216C414.63 362.802 417.834 362.387 418.558 362.284C419.385 362.18 419.798 363.63 419.798 366.219ZM525.03 366.116C527.717 369.534 526.477 370.155 515.209 370.776C509.007 371.191 501.254 371.812 497.946 372.123L491.847 372.848L492.571 369.326C493.708 363.527 495.155 363.009 510.247 363.837C520.688 364.355 523.996 364.873 525.03 366.116ZM417.524 381.237C416.18 385.587 414.836 386.001 403.052 386.001H393.955V381.858V377.716H406.256H418.558L417.524 381.237ZM517.794 381.444L518.104 384.655L506.733 385.38C500.427 385.794 494.845 385.898 494.225 385.483C493.088 384.758 492.778 379.476 493.915 378.337C494.328 378.026 499.807 377.819 506.009 377.923L517.483 378.233L517.794 381.444ZM523.169 382.376C523.169 383.826 522.755 384.966 522.239 384.966C521.825 384.966 521.618 383.826 521.928 382.376C522.135 380.926 522.549 379.787 522.755 379.787C522.962 379.787 523.169 380.926 523.169 382.376ZM463.007 391.594C463.214 396.151 462.904 400.19 462.387 400.708C461.767 401.33 457.632 401.951 452.98 402.262L444.607 402.883V393.458C444.607 382.583 444.194 382.998 455.461 383.205L462.697 383.412L463.007 391.594ZM517.07 393.251C519.861 394.805 519.551 397.083 515.933 400.708C513.038 403.505 512.212 403.815 508.387 403.297C505.389 402.883 503.322 401.847 501.668 399.88C498.05 395.737 498.98 393.873 505.079 393.148C513.555 392.112 514.899 392.215 517.07 393.251ZM418.041 395.219C420.832 398.015 413.596 404.644 407.91 404.644C402.742 404.644 397.367 395.737 401.501 393.873C403.465 392.94 416.904 394.08 418.041 395.219ZM466.832 414.483V417.59L459.389 417.901C450.706 418.211 447.708 417.072 447.708 413.447C447.708 410.858 447.708 410.858 457.322 411.065L466.832 411.376V414.483Z" fill="#4A4A4A"/>
<path d="M410.468 209.89C408.644 210.601 408 211.719 408 213.953C408 217 408.107 217 413.686 217C416.691 217 420.338 216.695 421.733 216.391C424.63 215.578 426.132 211.109 423.986 209.789C422.055 208.672 413.579 208.773 410.468 209.89Z" fill="#0088CC"/>
<path d="M456.655 132.698C455.716 134.248 449.77 154.409 447.475 163.403C444.658 174.776 444.658 174.776 458.637 175.706C472.095 176.637 474.285 175.603 473.973 168.986C473.66 162.68 464.688 134.972 462.497 133.215C460.515 131.871 457.385 131.56 456.655 132.698Z" fill="#0088CC"/>
<path d="M447 202V206H459.5H472V202V198H459.5H447V202Z" fill="#0088CC"/>
<path d="M453.081 209.9C450.195 210.4 449.498 211 449.299 213.2L449 216H459.95H471V212.5V209L463.833 209.1C459.851 209.2 454.973 209.5 453.081 209.9Z" fill="#0088CC"/>
<path d="M350.573 254.947C349.894 255.579 349.818 256 350.347 256C350.8 256 351.479 255.474 351.706 254.947C352.31 253.684 352.008 253.684 350.573 254.947Z" fill="#4A4A4A"/>
<path d="M332.618 277.172C332.309 278.797 332 282.758 332 286.008V292H349.411H366.72L367.441 288.141C368.265 282.961 368.162 276.563 367.235 275.039C366.72 274.125 361.775 273.922 349.824 274.024L333.236 274.227L332.618 277.172ZM351.575 281.641V285.399L346.424 285.602C341.478 285.906 341.272 285.805 341.272 283.063C341.272 279.102 342.406 277.985 346.424 277.578C351.266 277.071 351.575 277.375 351.575 281.641Z" fill="#0088CC"/>
<path d="M569.018 255.105C569.756 256.14 585.465 263.492 585.992 262.974C586.203 262.767 582.302 260.696 577.452 258.418C572.497 256.037 568.702 254.587 569.018 255.105Z" fill="#4A4A4A"/>
<path d="M592.638 267.417C593.369 268.414 594.309 269.113 594.726 268.814C595.144 268.514 596.501 268.814 597.753 269.512C600.363 270.809 606 272.405 606 271.906C606 271.208 600.05 268.414 595.457 266.918C591.594 265.621 591.49 265.621 592.638 267.417Z" fill="#4A4A4A"/>
<path d="M609.821 274.475C618.88 278.782 629.341 282.659 629.988 281.906C630.527 281.367 613.272 274.259 609.282 273.398C606.155 272.751 606.155 272.751 609.821 274.475Z" fill="#4A4A4A"/>
<path d="M557.588 274.538C556.159 275.153 555.853 276.793 556.057 283.965L556.159 292.674L564.324 292.777C568.814 292.777 575.141 293.186 578.407 293.596C582.285 294.211 584.735 294.109 585.449 293.391C586.061 292.777 586.163 289.19 585.755 283.453L585.041 274.538L579.734 275.256C571.671 276.28 569.937 277.407 569.732 282.326C569.63 285.707 569.528 285.297 569.018 280.379L568.406 274.231L563.813 274.026C561.262 273.924 558.506 274.129 557.588 274.538Z" fill="#0088CC"/>
<path d="M457.8 360.538C454.6 360.737 452 361.235 452 361.633C452.1 362.031 453.1 363.525 454.3 365.018C456 367.109 457.7 367.805 462.3 368.303L468 369V364.421C468 360.24 467.8 359.841 465.8 360.04C464.5 360.14 460.9 360.339 457.8 360.538Z" fill="#0088CC"/>
<path d="M348.115 78.3351C349.76 81.7903 351.791 85.5597 352.662 86.7115C353.533 87.8632 352.662 85.455 350.727 81.4762C348.792 77.3927 346.76 73.6233 346.18 73.0998C345.599 72.4716 346.47 74.8798 348.115 78.3351Z" fill="#4A4A4A"/>
<path d="M706.405 75.447C705.455 78.2369 704.293 79.0953 700.489 80.1683C694.996 81.7778 694.468 83.1728 699.327 83.602C702.285 83.9239 702.813 84.4604 703.659 87.8941C704.926 93.2592 707.884 93.3665 709.68 88.216C710.631 85.748 712.005 84.1385 714.012 83.4947C717.498 82.2071 718.132 78.988 714.857 79.6318C711.793 80.2756 709.575 79.2026 709.575 77.0566C709.575 76.0908 709.047 74.5886 708.518 73.7302C707.779 72.4426 707.356 72.7645 706.405 75.447Z" fill="#4A4A4A"/>
<path d="M214.512 78.732C213.532 80.2032 212.162 81.4641 211.378 81.4641C209.42 81.4641 209.518 82.1996 211.868 85.352C212.945 86.8231 213.826 88.9247 213.826 89.9755C213.826 93.5482 215.882 92.3923 219.995 86.5079C222.541 82.8301 222.541 82.62 220.68 81.9895C219.603 81.5692 218.135 80.0981 217.449 78.627L216.078 76L214.512 78.732Z" fill="#4A4A4A"/>
<path d="M355.574 92C356.085 93.1 356.681 94 356.936 94C357.106 94 356.936 93.1 356.426 92C355.915 90.9 355.319 90 355.064 90C354.894 90 355.064 90.9 355.574 92Z" fill="#4A4A4A"/>
<path d="M594.526 104.353C592.295 106.934 590.744 109 591.035 109C591.811 109 599.373 100.531 598.986 100.015C598.792 99.8084 596.756 101.771 594.526 104.353Z" fill="#4A4A4A"/>
<path d="M361.574 103C362.085 104.1 362.681 105 362.936 105C363.106 105 362.936 104.1 362.426 103C361.915 101.9 361.319 101 361.064 101C360.894 101 361.064 101.9 361.574 103Z" fill="#4A4A4A"/>
<path d="M181.734 116.785C180.98 118.801 179.579 119.909 177.209 120.413C173.331 121.219 173.008 122.429 176.024 124.142C177.209 124.847 178.179 126.46 178.179 127.669C178.179 130.088 179.687 130.793 180.872 128.979C181.195 128.374 182.703 127.971 184.104 127.971C185.72 127.971 186.905 127.266 187.336 125.956C187.767 124.847 189.598 123.235 191.429 122.529C194.661 121.119 194.769 121.119 192.184 121.018C188.521 120.816 187.12 119.909 185.827 116.584C184.427 113.056 183.242 113.157 181.734 116.785Z" fill="#4A4A4A"/>
<path d="M733 122.6C733 124.5 735.912 126.9 738.2 127C740.072 127 742.672 123.3 741.84 122C741.424 121.4 739.344 121 737.056 121C734.04 121 733 121.4 733 122.6Z" fill="#4A4A4A"/>
<path d="M750.446 127.351C749.832 129.03 748.195 131.234 746.66 132.283L744 134.067L746.865 135.956C748.399 137.006 749.729 138.685 749.729 139.734C749.729 142.987 753.31 142.672 754.538 139.209C755.254 137.425 756.891 135.746 758.733 135.012C761.904 133.753 761.7 131.654 758.426 131.654C757.3 131.654 755.766 130.395 754.845 128.611C752.696 124.203 751.571 123.888 750.446 127.351Z" fill="#4A4A4A"/>
<path d="M282 134.379C282 134.581 282.799 135.389 283.797 136.096C285.294 137.408 285.394 137.307 284.096 135.692C282.799 134.076 282 133.571 282 134.379Z" fill="#4A4A4A"/>
<path d="M627.897 143.692C626.595 145.307 626.695 145.408 628.297 144.096C629.199 143.389 630 142.581 630 142.379C630 141.571 629.199 142.076 627.897 143.692Z" fill="#4A4A4A"/>
<path d="M618.706 151.563L615 155L619.553 151.849C621.988 150.035 624 148.507 624 148.316C624 147.362 621.988 148.603 618.706 151.563Z" fill="#4A4A4A"/>
<path d="M301 150.094C301 150.287 303.237 152.313 305.939 154.629C308.642 157.041 309.76 157.717 308.455 156.173C306.126 153.471 301 149.322 301 150.094Z" fill="#4A4A4A"/>
<path d="M776.484 170.615C776.081 172.123 774.771 173.732 773.36 174.436C770.539 175.743 770.136 178.156 772.756 178.961C773.763 179.363 775.275 181.073 776.182 182.782L777.693 186L779.507 182.883C780.515 181.073 782.228 179.464 783.236 179.263C785.654 178.559 785.553 176.95 783.135 176.246C782.027 176.045 780.313 174.034 779.205 171.922L777.19 168L776.484 170.615Z" fill="#4A4A4A"/>
<path d="M140.038 171.419C140.038 173.396 139.213 174.228 136.431 175.165C131.999 176.622 131.896 177.454 135.916 179.015C137.977 179.743 139.007 180.888 139.007 182.344C139.007 185.778 140.965 185.882 143.954 182.656C145.5 180.992 147.458 179.431 148.282 179.015C149.519 178.599 149.21 177.87 146.943 176.101C145.294 174.853 143.542 172.772 143.027 171.419C141.893 168.194 140.038 168.194 140.038 171.419Z" fill="#4A4A4A"/>
<path d="M671.336 176.15C669.492 177.188 669.492 177.262 671.746 176.447C672.975 176.002 674 175.483 674 175.335C674 174.742 673.488 174.89 671.336 176.15Z" fill="#4A4A4A"/>
<path d="M99.6734 201.526C96.1168 201.944 94.0845 204.034 95.4055 206.124C96.3201 207.691 98.2508 207.169 101.909 204.452C105.567 201.63 115.017 200.481 113.493 203.093C112.985 203.825 113.188 203.929 114.204 203.302C115.017 202.884 116.237 202.362 116.948 202.257C117.761 202.048 118.574 201.735 118.98 201.421C119.59 200.794 105.973 200.899 99.6734 201.526Z" fill="#708090"/>
<path d="M120 200.941C120 201.529 120.933 202 122 202C123.067 202 124 201.529 124 200.941C124 200.471 123.067 200 122 200C120.933 200 120 200.471 120 200.941Z" fill="#708090"/>
<path d="M126 201.091C126 201.745 127.139 201.963 128.693 201.527C130.454 201.091 131.697 201.309 132.215 202.181C132.733 203.054 133.561 203.163 134.39 202.618C135.115 202.181 137.704 201.854 139.983 201.963C144.126 202.291 155.002 205.345 156.038 206.435C156.348 206.763 158.006 208.181 159.87 209.49C162.563 211.562 164.635 211.998 170.953 211.998C179.446 211.998 179.032 212.325 180.379 204.036L181 200H153.448C135.529 200 126 200.436 126 201.091Z" fill="#708090"/>
<path d="M742.097 201.561L739 201.96L739.929 207.347C740.961 212.435 742.716 214.928 742.716 211.237C742.716 210.439 743.232 210.04 743.748 210.34C744.368 210.639 744.78 210.34 744.78 209.641C744.78 208.544 744.987 208.544 745.709 209.641C746.329 210.739 748.909 210.838 757.58 210.24C767.076 209.641 768.522 209.342 768.522 207.746C768.522 206.848 767.902 205.851 767.283 205.551C766.56 205.352 768.109 205.352 770.689 205.551C773.579 205.851 776.47 205.551 777.915 204.753C779.257 204.055 782.25 203.357 784.521 203.257C786.792 203.057 789.785 202.758 791.23 202.459C792.676 202.159 794.017 202.459 794.534 203.157C795.05 203.955 795.359 203.955 795.359 203.257C795.359 202.459 798.972 202.06 806.92 201.96C813.32 201.86 818.688 201.561 818.997 201.361C819.513 200.763 746.742 200.962 742.097 201.561Z" fill="#708090"/>
<path d="M140.077 204.5C140.307 205.25 140.846 206 141.308 206C141.692 206 142 205.25 142 204.5C142 203.6 141.461 203 140.769 203C140.154 203 139.846 203.6 140.077 204.5Z" fill="#708090"/>
<path d="M748.355 212.667C751.384 213.111 756.577 213.111 759.714 212.667C762.744 212.222 760.255 212 753.981 212C747.706 212 745.218 212.222 748.355 212.667Z" fill="#4A4A4A"/>
<path d="M743.412 226.304C743.721 228.696 744.03 231.183 744.338 231.852C744.647 232.809 754.531 233 791.182 233C816.715 232.904 837.305 232.617 836.997 232.235C836.585 231.948 834.835 231.757 832.981 231.852C831.128 231.948 828.348 231.661 826.598 231.183C824.024 230.417 823.921 230.322 825.878 230.226C828.04 230.13 829.275 228.217 827.113 228.217C824.951 228.217 826.083 224.391 828.451 224.009C829.687 223.722 831.643 223.339 832.775 223.148C834.629 222.765 823.407 222.574 764.723 222.191L743 222L743.412 226.304Z" fill="#708090"/>
<path d="M83.5684 224.9C83.2573 226.5 82.6351 229.1 82.3241 230.6C81.8056 232.6 81.9093 233.1 82.6351 232.1C83.361 231.2 83.8795 231.1 84.2943 231.9C84.8128 232.7 98.2935 233 130.129 233C157.194 233 175.03 232.6 174.719 232.1C174.304 231.6 174.511 231 174.926 230.8C175.445 230.7 176.067 228.6 176.482 226.2L177 222H130.543H84.1906L83.5684 224.9Z" fill="#708090"/>
<path d="M657.548 224.774C658.396 225.148 659.486 225.024 659.849 224.649C660.334 224.274 659.607 223.9 658.274 224.024C656.942 224.024 656.578 224.399 657.548 224.774Z" fill="#4A4A4A"/>
<path d="M653.365 225.774C653.93 226.148 654.657 226.024 654.9 225.649C655.223 225.274 654.738 224.9 653.85 225.024C652.961 225.024 652.719 225.399 653.365 225.774Z" fill="#4A4A4A"/>
<path d="M649.365 226.774C649.93 227.148 650.657 227.024 650.9 226.649C651.223 226.274 650.738 225.9 649.85 226.024C648.961 226.024 648.719 226.399 649.365 226.774Z" fill="#4A4A4A"/>
<path d="M80.2079 250.5L80 258L115.14 257.683C134.478 257.472 149.345 256.944 148.202 256.415C147.058 255.993 140.196 255.887 132.919 256.099C118.571 256.732 107.551 255.676 112.333 254.197C113.789 253.775 117.116 253.458 119.923 253.352C122.626 253.246 124.809 252.718 124.809 252.19C124.809 251.556 126.265 251.134 127.928 251.134C131.047 251.134 132.191 249.655 129.8 248.704C129.072 248.493 128.656 247.965 128.968 247.648C129.904 246.592 139.572 248.704 140.508 250.183C141.132 251.134 141.444 251.239 141.444 250.394C141.444 249.021 146.018 248.282 159.742 247.542L169.099 247.12L170.242 250.183C170.97 251.979 170.97 253.458 170.45 253.88C168.787 254.937 169.514 257.472 171.49 257.472C173.257 257.472 173.569 256.521 173.881 250.606C174.193 244.373 173.985 243.739 172.114 243.528C170.97 243.423 149.865 243.317 125.225 243.211L80.4159 243L80.2079 250.5ZM105.368 256.099C104.64 256.31 103.392 256.31 102.768 256.099C102.041 255.782 102.561 255.57 104.016 255.57C105.472 255.57 105.991 255.782 105.368 256.099Z" fill="#708090"/>
<path d="M746.043 243.207C745.939 243.311 746.043 246.422 746.147 250.156L746.563 257L761.737 256.793L777.016 256.585L762.257 256.274C748.434 255.963 747.394 255.756 747.394 253.889C747.394 252.852 747.914 251.607 748.434 251.296C749.057 250.985 749.473 249.533 749.473 248.289C749.473 244.97 752.383 244.556 771.819 244.763C791.047 244.97 798.53 245.489 797.803 246.733C797.491 247.148 801.856 247.356 807.572 246.941C817.446 246.319 817.862 246.422 818.589 248.6C818.901 249.741 819.941 250.778 820.772 250.778C821.604 250.778 822.227 251.193 822.227 251.711C822.227 252.126 824.618 252.852 827.424 253.163C834.284 253.993 836.154 255.237 832.101 256.067C829.607 256.585 830.126 256.793 834.491 256.896L840 257L839.688 249.948L839.376 243H792.814C767.142 243 746.147 243.104 746.043 243.207Z" fill="#708090"/>
<path d="M749.548 254.774C750.396 255.148 751.486 255.024 751.849 254.649C752.334 254.274 751.607 253.9 750.274 254.024C748.942 254.024 748.578 254.399 749.548 254.774Z" fill="#4A4A4A"/>
<path d="M80.0196 269.958C79.9161 272.822 80.2267 275.025 80.848 275.025C81.3657 275.025 81.8834 275.686 81.8834 276.458C81.8834 277.229 82.9188 277.89 84.2648 278C85.5073 278 85.9215 277.89 85.3002 277.559C84.5755 277.229 83.9542 276.568 83.9542 276.017C83.9542 275.356 84.7825 275.356 85.9215 276.127C89.0277 277.78 90.0632 277.449 89.3384 274.805C88.8207 272.602 89.1313 272.492 92.8588 273.153C95.0332 273.593 97.4146 274.585 98.0359 275.576C98.9677 276.788 101.349 277.229 107.872 277.229C115.12 277.229 116.88 276.898 118.33 275.136C119.573 273.483 120.919 273.263 125.267 273.703C128.788 274.034 130.548 273.814 130.548 272.932C130.548 271.28 138.521 271.39 139.142 273.042C139.453 274.144 139.97 274.034 141.006 272.712C141.834 271.61 143.594 270.508 145.044 270.068C147.115 269.517 147.322 269.627 146.079 270.619C144.837 271.72 144.837 271.831 146.597 271.169C152.706 268.856 156.226 268.305 159.85 268.856C162.128 269.297 164.51 269.076 165.234 268.415C166.788 267.093 171.136 267.424 172.172 268.966C172.689 269.627 173 269.517 173 268.636C173 267.864 172.379 267.093 171.757 266.763C171.033 266.542 150.117 266.102 125.267 265.661L80.1232 265L80.0196 269.958Z" fill="#708090"/>
<path d="M757.758 267.228C758.481 268.055 760.031 268.883 761.271 269.09C762.511 269.297 763.647 270.227 763.854 271.262C764.267 273.537 768.503 278.191 770.156 278.191C770.776 278.191 771.293 278.605 771.293 279.226C771.293 279.743 766.747 280.363 761.271 280.57C752.282 280.777 752.592 280.881 764.577 280.984C772.016 281.087 781.728 280.674 786.274 280.157C796.813 279.019 795.159 279.019 805.595 279.846C810.451 280.26 815.41 280.157 816.443 279.743C819.233 278.502 827.188 277.985 824.502 279.226C823.056 279.846 825.122 280.157 831.218 280.157L840 280.26L839.69 273.537L839.277 266.814L831.941 266.711C827.808 266.711 809.211 266.4 790.51 266.194C760.961 265.78 756.725 265.987 757.758 267.228ZM772.016 271.779C772.223 273.434 771.809 274.054 770.259 274.054C768.916 274.054 768.193 273.33 768.193 272.193C768.193 268.262 771.396 267.952 772.016 271.779Z" fill="#708090"/>
<path d="M747 273.517C747 274.888 747.308 275.378 747.769 274.692C748.077 274.105 748.077 272.93 747.769 272.244C747.308 271.657 747 272.147 747 273.517Z" fill="#4A4A4A"/>
<path d="M92.5285 277.769C93.5013 278.077 95.0147 278.077 95.7713 277.769C96.4199 277.308 95.6632 277 93.8256 277C92.0961 277 91.4475 277.308 92.5285 277.769Z" fill="#708090"/>
<path d="M80.1037 296.553L80.2074 304L113.903 303.894C132.462 303.787 146.458 303.574 145.007 303.255C138.06 302.191 137.542 301.872 139.201 300.277C140.86 298.468 142.933 298.149 142.933 299.638C142.933 300.17 142.104 300.915 141.171 301.128C140.134 301.447 143.348 301.66 148.428 301.766C155.789 301.872 157.448 301.553 157.448 300.277C157.448 299.426 158.174 298.681 159.107 298.681C160.04 298.681 162.01 297.404 163.462 295.702C166.365 292.723 170.615 292.298 172.171 294.851C172.585 295.489 173 294.532 173 292.723V289.426L126.552 289.213L80 289L80.1037 296.553ZM149.05 293.043C142.726 293.468 142.207 293.681 142.622 295.489C143.037 297.085 142.622 297.617 140.963 297.617C139.512 297.617 138.786 296.979 138.786 295.596C138.786 292.83 140.134 292.404 148.635 292.617L155.893 292.723L149.05 293.043ZM155.167 296.234C154.753 298.787 147.08 299.638 147.08 297.191C147.08 295.383 148.635 294.638 152.575 294.532C154.856 294.426 155.478 294.851 155.167 296.234Z" fill="#708090"/>
<path d="M755.478 289.755C759.017 289.971 761.932 290.619 761.932 291.158C761.932 291.806 766.824 292.237 773.277 292.237C782.646 292.237 784.728 292.561 785.248 293.964C786.185 296.554 786.185 296.554 782.229 296.554C780.252 296.554 778.586 296.014 778.586 295.475C778.586 294.827 778.17 294.396 777.545 294.396C777.025 294.396 776.504 295.367 776.504 296.554C776.504 297.957 775.776 298.712 774.422 298.712C770.259 298.712 772.445 300.871 776.817 300.978C779.939 301.086 778.482 301.518 771.82 302.489C762.764 303.784 763.493 303.784 789.516 304C804.401 304 821.888 303.784 828.342 303.353L840 302.705V295.799V289L794.512 289.216C769.426 289.324 751.835 289.54 755.478 289.755ZM779.939 290.835C776.921 291.05 771.924 291.05 769.01 290.835C765.991 290.619 768.385 290.511 774.422 290.511C780.46 290.511 782.854 290.619 779.939 290.835Z" fill="#708090"/>
<path d="M746.37 294.311C746.148 295.218 746 297.839 746 300.157C746.148 304.189 746.148 304.089 746.666 298.847C747.184 292.899 747.11 291.69 746.37 294.311Z" fill="#4A4A4A"/>
<path d="M150.365 303.774C150.93 304.148 151.657 304.024 151.9 303.649C152.223 303.274 151.738 302.9 150.85 303.024C149.961 303.024 149.719 303.399 150.365 303.774Z" fill="#4A4A4A"/>
<path d="M155.528 303.769C156.501 304.077 158.015 304.077 158.771 303.769C159.42 303.308 158.663 303 156.826 303C155.096 303 154.448 303.308 155.528 303.769Z" fill="#4A4A4A"/>
<path d="M790.222 312.574L743.97 312.901L742.933 319.866L742 326.94L747.911 327.593C751.126 328.028 754.237 328.137 754.652 327.81C755.17 327.484 763.467 327.048 773.319 326.831C783.067 326.722 790.533 326.178 790.015 325.851C789.393 325.416 782.756 325.307 775.289 325.525C763.778 325.851 762.533 325.634 767.2 324.763C771.452 323.892 772.593 323.13 772.593 321.498C772.593 319.539 773.422 319.43 784.519 319.43C795.615 319.43 796.444 319.539 796.444 321.498C796.444 322.913 797.274 323.783 798.83 324.001C800.489 324.328 799.867 324.763 796.444 325.634C792.607 326.722 796.03 326.831 815.111 326.722C829.215 326.613 838.756 326.069 839.17 325.416C839.585 324.763 840 321.498 840 318.016C840 312.683 839.689 311.812 838.237 312.03C837.2 312.248 815.63 312.465 790.222 312.574ZM768.444 321.172C768.444 322.042 767.511 322.695 766.37 322.695C764.089 322.695 763.467 319.866 765.644 319.104C767.304 318.451 768.444 319.213 768.444 321.172Z" fill="#708090"/>
<path d="M81.2077 320L81.4154 327H129.708L178 326.892L177.273 321.938C176.961 319.246 176.65 316.123 176.65 315.046C176.65 313.108 174.781 313 128.877 313H81L81.2077 320Z" fill="#708090"/>
<path d="M752.446 336.217C746.216 336.425 740.712 336.945 740.401 337.36C739.985 337.776 738.947 340.582 738.012 343.492C736.663 348.376 736.663 349 738.012 349C739.155 349 739.362 348.376 738.947 346.921C738.532 345.778 738.739 344.843 739.362 344.843C739.985 344.843 740.505 343.492 740.505 341.829C740.505 339.439 741.024 338.711 743.308 338.192C746.216 337.36 747.774 338.711 747.774 341.933C747.774 343.076 748.604 343.804 749.85 343.804C751.2 343.804 751.927 343.076 751.927 341.829C751.927 340.79 752.55 339.647 753.277 339.335C753.9 339.127 762.415 339.023 772.072 339.231C781.833 339.335 790.141 339.231 790.66 338.919C791.179 338.607 801.355 338.296 813.297 338.296C825.239 338.192 835 337.88 835 337.36C835 336.945 825.55 336.529 814.024 336.529C802.394 336.529 786.402 336.321 778.407 336.113C770.411 335.905 758.781 336.009 752.446 336.217Z" fill="#708090"/>
<path d="M92.8691 337.904C89.3593 339.01 95.7595 339.211 125.386 338.809C138.496 338.608 151.813 338.507 155.116 338.608C158.316 338.708 161 338.407 161 337.904C161 336.699 96.5853 336.699 92.8691 337.904Z" fill="#708090"/>
<path d="M85.0902 339.178C85.4085 339.929 86.4695 340.787 87.4244 340.894C88.6976 341.216 89.2281 340.787 88.9098 339.822C88.5915 339.071 87.5305 338.213 86.5756 338.106C85.3024 337.784 84.7719 338.213 85.0902 339.178Z" fill="#708090"/>
<path d="M107.548 340.774C108.396 341.148 109.486 341.024 109.849 340.649C110.334 340.274 109.607 339.9 108.274 340.024C106.942 340.024 106.578 340.399 107.548 340.774Z" fill="#4A4A4A"/>
<path d="M742 343.371C742 345.32 743.136 345.585 744.534 343.814C745.32 342.839 745.146 342.485 743.748 342.13C742.437 341.776 742 342.13 742 343.371Z" fill="#4A4A4A"/>
<path d="M88.0939 347.024C87.4844 348.151 90.0092 349.688 90.8798 348.663C91.228 348.356 90.7927 348.049 89.9221 348.049C89.1386 348.049 88.7033 347.537 88.9645 347.024C89.2256 346.41 89.3127 346 89.0515 346C88.7903 346 88.355 346.512 88.0939 347.024Z" fill="#4A4A4A"/>
<path d="M748.548 348.774C749.396 349.148 750.486 349.024 750.849 348.649C751.334 348.274 750.607 347.9 749.274 348.024C747.942 348.024 747.578 348.399 748.548 348.774Z" fill="#4A4A4A"/>
<path d="M138.988 370.042C138.261 372.171 137.119 373.185 135.769 373.185C131.72 373.185 132.239 376.43 136.496 377.646C137.742 378.052 138.78 379.167 138.78 380.181C138.78 381.094 139.403 382.818 140.234 383.831C141.584 385.657 141.791 385.555 143.245 382.006C144.387 379.37 145.529 378.255 146.983 378.255C150.202 378.255 149.683 376.734 144.595 371.664L140.026 367L138.988 370.042Z" fill="#4A4A4A"/>
<path d="M775.376 374.674C773.18 379.453 773.598 382.109 776.736 384.127C777.364 384.552 777.991 385.72 777.991 386.57C777.991 387.526 779.247 386.888 781.443 384.658L785 381.153L782.28 375.523C780.816 372.549 779.142 370 778.514 370C777.991 370 776.527 372.124 775.376 374.674Z" fill="#4A4A4A"/>
<path d="M289.679 401.423C284.054 406.387 283.291 407.711 288.535 403.409C292.539 400.21 294.732 397.893 293.778 398.004C293.588 398.004 291.776 399.548 289.679 401.423Z" fill="#4A4A4A"/>
<path d="M177.782 401.361C177.06 402.438 174.996 403.515 173.344 403.809C170.351 404.201 170.351 404.299 172.622 404.984C174.17 405.474 175.202 406.747 175.615 408.607C176.544 413.013 178.711 413.111 182.942 408.999C186.658 405.474 186.658 405.376 184.697 404.005C183.562 403.222 181.91 401.949 180.982 401.067C179.33 399.599 179.124 399.599 177.782 401.361Z" fill="#4A4A4A"/>
<path d="M739.899 401.597C738.921 402.996 737.401 404.195 736.532 404.195C734.033 404.195 734.577 405.793 738.269 409.09C742.505 412.986 743.809 412.986 747.285 408.99L750 405.793L747.285 404.694C745.764 404.195 743.918 402.597 743.157 401.398L741.745 399L739.899 401.597Z" fill="#4A4A4A"/>
<path d="M280.904 407.703C279.592 409.305 279.693 409.405 281.308 408.103C282.924 406.801 283.429 406 282.621 406C282.419 406 281.611 406.801 280.904 407.703Z" fill="#4A4A4A"/>
<path d="M560.774 421.118C562.303 423.217 563.64 425 563.927 425C564.596 425 560.487 418.915 559.245 418.076C558.576 417.656 559.34 419.02 560.774 421.118Z" fill="#4A4A4A"/>
<path d="M605.994 425.5C609.536 429.1 612.775 432 612.977 432C613.281 432 610.548 429.1 607.006 425.5C603.464 421.9 600.225 419 600.023 419C599.719 419 602.452 421.9 605.994 425.5Z" fill="#4A4A4A"/>
<path d="M615 435.379C615 435.581 615.799 436.389 616.797 437.096C618.294 438.408 618.394 438.307 617.096 436.692C615.799 435.076 615 434.571 615 435.379Z" fill="#4A4A4A"/>
<path d="M207.401 449.757L206.987 453.342L200.889 453.035C194.377 452.728 192 453.855 192 457.133C192 458.772 192.413 458.977 193.861 458.362C195.824 457.44 201.716 457.543 204.093 458.465C205.334 458.874 205.54 460.104 205.23 463.382C204.713 467.275 204.92 467.787 206.987 467.992C208.641 468.094 209.468 467.275 210.502 464.611C211.432 462.05 212.569 460.821 214.843 460.206C218.874 459.182 219.081 457.543 215.256 456.928C212.362 456.416 211.225 454.981 208.745 448.733C207.814 446.274 207.711 446.274 207.401 449.757Z" fill="#4A4A4A"/>
<path d="M713.626 450.834C712.398 453.87 711.068 455.287 708.202 456.4C704.109 458.12 703.904 460.144 707.793 461.055C709.43 461.46 710.863 463.079 712.193 465.913C714.752 471.277 717.617 471.378 719.357 466.116C720.175 463.585 721.608 462.067 724.371 460.752C728.976 458.525 729.18 457.412 725.087 456.501C722.017 455.793 718.538 452.352 717.412 448.81C716.389 445.875 715.366 446.482 713.626 450.834Z" fill="#4A4A4A"/>
<path d="M598 455.379C598 455.581 598.799 456.389 599.797 457.096C601.294 458.408 601.394 458.307 600.096 456.692C598.799 455.076 598 454.571 598 455.379Z" fill="#4A4A4A"/>
<path d="M11.0667 548.333L0.666667 548.867L0.4 596.2L0 643.533L11.6 643.133L23.3333 642.733V624.333V606.067H39.7333C48.6667 606.067 56.8 606.6 57.8667 607.267C59.4667 608.2 59.6 611.667 58.9333 625.667L58.1333 642.733L70 643L82 643.267V598.067C82 573.267 82.4 552.067 82.8 550.867C83.4667 549 82 548.733 71.0667 548.733H58.4L59.0667 566.733L59.7333 584.733H41.4667H23.3333V566.067C23.3333 555.8 22.9333 547.533 22.4 547.667C21.7333 547.8 16.6667 548.2 11.0667 548.333Z" fill="#4A4A4A"/>
<path d="M103.6 548.467L90 548.867L93.8667 553.8C96.1333 556.467 102.8 566.867 108.8 576.733C128.667 609.4 126.667 604.067 126.267 625L125.733 643.4H137.867C149.467 643.4 149.867 643.267 149.733 640.333C149.6 638.733 149.6 630.467 149.733 621.933L150 606.6L161.067 587.933C167.2 577.8 175.6 564.6 179.733 558.867C183.867 553 187.067 548.067 186.8 547.8C186.667 547.533 180 547.8 172.267 548.333L158 549.133L149.2 565C144.267 573.667 139.867 581.133 139.2 581.533C138.533 581.8 136.533 579.133 134.8 575.533C132.933 571.933 128.667 565.133 125.333 560.333C122 555.533 119.333 551 119.333 550.333C119.333 548.2 118.4 548.067 103.6 548.467Z" fill="#4A4A4A"/>
<path d="M195.867 548.6C195.6 548.867 195.333 570.333 195.333 596.2V643.133L208.133 642.867L220.8 642.733L220.533 637.4C220.4 634.467 220.4 628.333 220.533 623.933L220.667 615.667L236.4 615.133C254.133 614.467 259.067 612.6 267.6 603.8C274 597.133 276.667 590.6 276.667 581.133C276.667 571.533 273.333 564.2 266.667 558.2C257.467 550.2 254.8 549.533 224.267 548.733C208.933 548.333 196.133 548.333 195.867 548.6ZM248.933 574.067C252.4 577.667 252.933 578.867 252.267 583.133C250.933 591.133 247.733 592.733 232.533 592.733H219.333V581.4V570.067H232.133C244.533 570.067 244.933 570.2 248.933 574.067Z" fill="#4A4A4A"/>
<path d="M498.533 549.533C491.067 552.2 482.133 560.067 479.2 566.6C475.867 573.933 476 584.2 479.333 589.667C482.533 595 491.467 601.667 497.867 603.4C500.533 604.067 507.733 605.133 514 605.667C523.2 606.333 525.733 607 528.267 609.533C530 611.267 531.333 613.8 531.333 615.267C531.333 619.667 526.667 621.133 513.467 620.467C504 620.067 499.733 619.133 493.733 616.467C489.2 614.333 486 613.533 486 614.333C486 615.267 483.333 619.4 480 623.533C473.067 632.467 472.133 631 490 638.467C522.8 651.933 553.467 640.867 555.067 614.867C555.467 607.533 555.067 606.067 551.467 600.733C546.133 592.6 540.4 589.8 521.6 585.4C513.067 583.4 504.667 580.733 503.2 579.533L500.533 577.4L503.2 573.8C504.8 571.8 507.733 570.067 510.267 569.667C516.4 568.733 529.733 571 536 574.067C538.8 575.533 541.733 576.2 542.267 575.667C543.867 574.067 552.667 559.133 552.667 558.067C552.667 557.4 548 555 542.4 552.6C533.067 548.6 530.533 548.067 518 547.8C508.133 547.533 502.4 548.067 498.533 549.533Z" fill="#4A4A4A"/>
<path d="M684.667 553.533C683.6 557.133 680.8 564.6 678.267 570.067C675.733 575.533 670.8 587.533 667.067 596.733C663.333 605.933 658.133 618.733 655.333 625.4C647.333 644.6 646.667 642.867 661.467 642.333C673.867 641.933 674.133 641.8 675.467 638.333C678 631.533 683.6 623 684.533 624.467C685.067 625.4 692 626.067 702.667 626.333L720 626.733L722.267 631.4C723.467 633.933 724.533 637.4 724.667 639C724.667 641.933 725.067 642.067 739.467 642.067C751.2 642.067 754 641.667 752.933 640.333C751.733 638.867 714.267 556.733 712.267 551C711.733 549.533 710 548.733 706.933 548.733C704.4 548.733 698.8 548.333 694.4 547.933L686.4 547L684.667 553.533ZM705.867 591.8C708.933 599.667 711.333 606.333 711.333 606.733C711.333 607.133 708.533 607.4 705.067 607.4C701.467 607.4 696.4 607.933 693.6 608.6C688.8 609.8 688.667 609.667 689.333 607C691.333 600.333 699.733 576.733 700.133 577C700.267 577.267 702.933 583.8 705.867 591.8Z" fill="#4A4A4A"/>
<path d="M787.067 549.933C767.6 557.667 756.667 575.133 756.667 598.733C756.667 615.4 765.733 628.867 783.467 638.733C790.267 642.467 791.6 642.733 805.333 642.733C818.667 642.733 820.533 642.467 826.667 639.133C830.4 637.267 836.267 633 839.867 629.667L846.533 623.8L839.067 618.333C834.933 615.267 831.067 612.2 830.667 611.267C830 610.333 828.8 610.733 826.8 612.6C819.333 619.667 803.6 621.667 794 616.733C778 608.6 776.133 585.667 790.8 574.6C795.333 571.133 796.8 570.733 805.867 570.733C814.667 570.867 817.067 571.4 823.6 575L831.333 579.133L836.267 574.2C839.067 571.4 842.533 568.467 844 567.667C845.467 566.867 846.4 566.067 846 565.667C828.933 551.133 820.4 547.4 804.267 547.4C796.933 547.533 791.2 548.333 787.067 549.933Z" fill="#4A4A4A"/>
<path d="M288.933 591.133C288.667 614.333 288.267 635.533 287.867 638.2L287.2 643L324.533 642.867L362 642.733V631V619.4L345.067 619.267C335.6 619.133 324.4 618.733 320 618.2L312 617.4L311.6 612.067L311.2 606.733H316.933C320.133 606.733 328.8 606.467 336.4 606.333L350 606.067V596.2V586.333L331.333 585.4L312.667 584.333V578.067V571.667L324.133 570.733C330.533 570.2 341.2 570.067 348.133 570.333L360.533 571L360.933 559.933L361.333 548.733H325.333H289.333L288.933 591.133Z" fill="#4A4A4A"/>
<path d="M377.6 595.667L378 642.733L381.333 642.6C383.2 642.6 388.667 642.467 393.467 642.333L402.267 642.067L401.333 628.867L400.4 615.8L406.8 615C412.133 614.467 413.867 614.733 416.133 617C420.267 620.733 434 640.067 434 642.067C434 643.133 435.067 643.4 437.067 642.867C438.667 642.467 445.867 642.067 453.067 642.067H466.267L460.267 635C453.467 626.867 444.667 614.333 444.667 612.6C444.667 611.933 446.667 609.533 449.2 607.4C457.467 600.067 461.733 586.733 460 573.667C459.2 567.533 458.267 565.933 452 559.8C441.733 549.8 437.067 548.733 404.133 548.733H377.333L377.6 595.667ZM432.8 573.933C435.067 576.333 436.667 579.267 436.667 581.4C436.667 583.533 435.067 586.467 432.8 588.867C428.933 592.6 428.533 592.733 415.467 592.733H402V582.2C402 569.933 401.067 570.6 419.067 570.2C428.267 570.067 429.067 570.333 432.8 573.933Z" fill="#4A4A4A"/>
<path d="M571.467 595.267V642.067H583.733H596L595.6 635.133C595.467 631.267 595.733 625.4 596.267 622.067L597.333 616.067L612.667 615.267C630 614.467 636.933 612.2 644.533 604.6C650.533 598.6 652.667 593.133 652.667 583.8C652.667 573 650.533 566.733 645.067 560.6C635.6 550.067 633.067 549.533 600.4 549L571.467 548.467V595.267ZM625.6 574.6C629.6 579.4 629.6 585.267 625.333 589.4C622.4 592.467 621.2 592.733 608.667 592.733H595.333V582.2V571.533L601.067 571C604.133 570.6 610.267 570.467 614.533 570.6C621.333 570.867 622.8 571.4 625.6 574.6Z" fill="#4A4A4A"/>
<path d="M858.533 550.867C858.933 552.067 859.333 573.133 859.333 597.8V642.733L896 643L932.667 643.4V631.4V619.4H908H883.333V612.733V606.067H902.533H921.733L922.533 601.933C922.933 599.667 923.333 595.133 923.333 591.933C923.333 584.733 923.467 584.867 900 584.333L882.667 584.067L882.267 577.667L881.867 571.4H907.333H932.667L932.4 560.067L932 548.733H894.8C861.6 548.733 857.733 549 858.533 550.867Z" fill="#4A4A4A"/>
<path d="M255.067 682.2L254.667 698.467L242.267 682.867L229.867 667.4H221.067H212.4L213.2 671.533C213.6 673.8 214 688.6 214 704.2V732.733H222.133H230.267L229.733 714.2C229.2 691.667 228.933 691.667 246.267 715.667C253.867 726.067 259.333 732.333 260.4 732.067C261.467 731.667 264.133 731.4 266.4 731.4H270.667L270.267 699.8C270 682.333 269.733 668.067 269.6 667.933C269.467 667.8 266.267 667.267 262.4 666.733L255.467 665.8L255.067 682.2Z" fill="#4A4A4A"/>
<path d="M2 675V682.067H11.2H20.5333L21.4667 689.533C21.8667 693.667 22 705 21.7333 714.867L21.0667 732.733H29.2H37.3333L36.9333 708.067L36.5333 683.4H46.5333H56.6667V675.667V668.067H29.3333H2V675Z" fill="#4A4A4A"/>
<path d="M68.6667 690.333C69.2 711.133 69.6 713.933 72.2667 718.067C78.5333 728.067 86.6667 732.733 98.2667 732.733C107.867 732.733 115.6 728.733 121.067 721L125.333 714.733V691.133V667.4H117.733H110V688.2V709L106.133 712.867C104 715 100.8 716.733 99.0667 716.733C94.6667 716.733 87.4667 711.933 86 707.933C85.2 706.067 84.6667 696.2 84.6667 685.933V667.4H76.4H68L68.6667 690.333Z" fill="#4A4A4A"/>
<path d="M142.8 668.333C140.533 669 140.4 669.933 141.2 681.933C141.6 689 142 703.267 142 713.667V732.733H149.733H157.333L156.933 718.333C156.667 710.467 157.067 702.733 157.6 701.133C158.667 698.333 159.333 699 165.6 708.467C169.333 714.067 175.333 721.933 178.667 725.667C184.4 732.2 185.333 732.733 190.8 732.733H196.8L196.4 700.067L196 667.4H188.133H180.4L180.8 682.733C181.067 691.133 181.067 698.067 180.533 698.067C180.133 698.067 178.4 696.067 176.667 693.667C174.933 691.4 168.933 684.467 163.467 678.333C153.067 667 151.333 666.2 142.8 668.333Z" fill="#4A4A4A"/>
<path d="M285.067 690.733C285.6 703.133 286 717.8 286 723V732.733H308.667H331.2L330.4 725.667C330 721.933 329.467 718.467 329.2 718.333C329.067 718.067 322.8 717.533 315.467 717.133L302 716.333V711.267V706.067H312.533H323.067L323.6 699.933C323.867 696.6 323.733 693.667 323.467 693.267C323.2 693 317.867 692.733 311.867 692.733C301.067 692.733 300.667 692.6 299.867 689.4C298.133 682.6 299.333 682.067 315.867 682.067H331.333L330.4 675.667C330 672.2 329.6 669.267 329.467 669.133C329.333 669 319.2 668.733 306.8 668.467L284.267 668.067L285.067 690.733Z" fill="#4A4A4A"/>
<path d="M344 680.467C344 687.533 343.733 702.067 343.467 712.733L343.067 732.067H366.533H390V724.6C390 718.867 389.467 716.867 387.867 716.2C386.667 715.8 379.733 715.4 372.4 715.4H358.933L359.867 696.333C360.4 685.933 361.067 675.267 361.467 672.733L362.133 668.067L353.067 667.8L344 667.533V680.467Z" fill="#4A4A4A"/>
<path d="M398 699.4V731.267L421.333 731.667L444.667 732.067V724.467V716.867L437.333 716.067C433.2 715.533 426.667 715.4 422.667 715.667C413.867 716.467 414.533 718.067 413.2 688.333L412.4 667.4H405.2H398V699.4Z" fill="#4A4A4A"/>
<path d="M456.667 693.933C456.667 708.467 456.267 723.133 455.867 726.6C455.067 731.8 455.333 732.733 457.067 732.067C458.133 731.533 462.133 731.8 466 732.467L473.067 733.8L472.133 715.667C471.733 705.8 471.333 690.867 471.333 682.467V667.4H464H456.667V693.933Z" fill="#4A4A4A"/>
<path d="M489.2 673.4C488.8 676.733 488.666 691.267 489.066 705.8L489.866 732.067L497.2 732.467L504.666 732.867V716.067C504.666 706.067 505.2 699.4 506 699.4C506.666 699.4 512.533 706.467 518.933 715C525.333 723.667 531.066 731 531.6 731.4C532 731.8 535.6 732.067 539.333 732.067H546.266L546.533 699.8L546.666 667.4H539.066H531.333L531.2 681.667C531.066 689.667 530.666 697.8 530.133 700.067L529.333 704.067L525.466 697.4C520.533 688.867 509.733 675.267 504.533 670.733C501.733 668.467 498.933 667.4 495.333 667.4C490.266 667.4 490.133 667.533 489.2 673.4Z" fill="#4A4A4A"/>
<path d="M581.2 669.933C568 675.933 560.667 686.333 560.667 699.133C560.667 727.4 594.4 743 617.6 725.267L622.133 721.8L621.733 708.467L621.333 695L607.6 694.867C594.533 694.733 594 694.867 594 697.533C594 699.133 593.6 702.333 593.2 704.6L592.4 708.733H599.867C606.267 708.733 607.333 709.133 607.333 711.267C607.333 720.467 585.6 718.467 579.6 708.733C577.067 704.467 576.267 695.133 578.267 691.4C580.933 686.467 588.267 682.067 594 682.067C597.2 682.067 600.8 683.4 604.133 685.533L609.2 689L611.867 685.267C613.467 683.133 615.6 680.6 616.933 679.533C618.933 677.8 618.933 677.4 616 675.133C606.267 667.533 591.467 665.267 581.2 669.933Z" fill="#4A4A4A"/>
<path d="M685.467 670.6C678.133 674.333 670.8 680.867 667.6 686.733C664.8 692.067 664.8 706.733 667.733 712.2C673.867 724.067 684.267 731.267 696.667 732.333C703.333 733 705.6 732.6 711.6 729.667C715.467 727.667 720.267 724.733 722.267 723.133L725.867 720.067L719.867 714.867L713.867 709.667L710.133 713.267C702.8 720.333 688.4 716.6 682.933 706.067C675.2 690.867 694.667 675.533 709.2 685.4L714.267 688.867L719.467 683.533L724.8 678.333L720.4 675C708.933 666.333 697.2 665 685.467 670.6Z" fill="#4A4A4A"/>
<path d="M751.733 670.6C741.067 675.533 734.533 683 732.667 692.067C730.133 704.467 733.6 715.267 742.667 723.133C749.6 729.267 754.8 731.667 763.2 732.333C772.133 733.133 778.4 730.733 786.133 723.8C800 711.267 801.6 692.2 789.867 678.867C779.6 667.267 765.6 664.2 751.733 670.6ZM772.667 683.4C776 685.133 782 695.4 782 699.267C782 702.867 774.933 713.4 771.333 715.4C764.933 718.733 753.867 715 750.4 708.2C747.6 702.867 747.6 694.067 750.4 690.067C755.333 683 766 679.8 772.667 683.4Z" fill="#4A4A4A"/>
<path d="M880.933 699.667L881.333 731.4H886.667C889.6 731.4 893.333 731.8 895.067 732.2C898.133 733.133 898.133 733 897.867 723.267L897.6 713.4L908.8 712.733C928.533 711.4 936.933 703.267 934.667 687.667C934 682.6 932.667 680.333 927.867 675.8C921.2 669.267 919.6 669 896.933 668.467L880.667 668.067L880.933 699.667ZM916.133 685.4C918.4 688.467 918.533 694.333 916.4 696.467C915.467 697.4 911.067 698.067 905.733 698.067H896.667V691C896.667 687 897.067 683.4 897.733 682.867C898.267 682.333 902.133 682.067 906.533 682.333C912.133 682.733 914.8 683.667 916.133 685.4Z" fill="#4A4A4A"/>
<path d="M811.6 700.333L811.733 732.067H820.533H829.333L828.933 722.333C828.533 713.533 828.667 712.733 831.067 712.733C833.467 712.733 846.667 726.6 848.267 730.867C848.933 732.733 864.267 733.133 865.467 731.267C865.867 730.6 864.133 727.4 861.6 724.333C853.333 714.2 853.2 713.4 858.8 708.467C871.733 697.133 870 679.133 855.333 671.667C850 669 847.467 668.733 830.4 668.733H811.333L811.6 700.333ZM849.467 685.4C851.867 688.733 851.867 693.267 849.333 695.4C848.133 696.333 842.8 697.4 837.333 697.8L827.333 698.467V692.333C827.333 682.067 827.733 681.667 838.4 682.333C845.467 682.733 848 683.4 849.467 685.4Z" fill="#4A4A4A"/>
<path d="M833.333 778.6C796.667 779.133 735.467 779.8 697.333 779.933C557.733 780.2 504.267 780.733 505.2 781.667C505.733 782.2 524 782.733 545.733 782.867C567.467 782.867 591.067 783.133 598 783.4L610.667 783.933L600.667 784.733C588.133 785.667 846.8 785 892.4 783.933L926 783.133V779.8C926 776.6 926 776.6 913.067 777C905.867 777.267 870 777.933 833.333 778.6Z" fill="#4A4A4A"/>
<path d="M14 780.333C14 783 14.9333 783.133 30.4 783.8C39.3333 784.2 94.4 784.467 152.667 784.333C210.933 784.067 288.4 784.467 324.667 785.133C375.2 786.067 394.533 785.933 407.333 784.6C425.733 782.867 468.667 782.2 468.667 783.667C468.667 785.133 473.733 785 474.667 783.533C475.067 782.733 472.8 781.933 469.733 781.533C466.533 781.133 409.067 780.467 342 780.067C274.933 779.667 173.6 779 117.067 778.467L14 777.667V780.333Z" fill="#4A4A4A"/>
<path d="M488 782.067C491.733 782.6 493.2 783.133 491.467 783.133C489.733 783.267 488.533 783.8 489.067 784.2C489.467 784.733 492.8 784.6 496.267 784.067C501.867 783.133 502.267 782.867 499.333 781.933C497.467 781.4 492.667 781 488.667 781.133H481.333L488 782.067Z" fill="#4A4A4A"/>
<path d="M463.067 785.667C464 786.067 465.2 785.933 465.6 785.533C466.133 785.133 465.333 784.733 463.867 784.867C462.4 784.867 462 785.267 463.067 785.667Z" fill="#4A4A4A"/>
</svg>
