<svg width="980" height="902" viewBox="0 0 980 902" fill="none" xmlns="http://www.w3.org/2000/svg">
<path d="M450 1.33337C433.333 2.80004 397.867 10.8 374.667 18.2667C362.4 22.2667 348.667 28.1334 334.533 35.3334C254.933 76.1334 199.467 136.933 166 220C156.933 242.533 152.533 257.067 148 279.333C136 339.067 137.467 386.4 153.333 442.8C164.667 482.933 186.4 526.4 213.333 562.667C225.6 578.933 234.133 588.133 258.8 611.333C283.2 634.267 290.133 639.333 294 637.333C295.467 636.533 305.6 635.333 316.4 634.533C327.2 633.867 340.533 632.933 346 632.4L356 631.733L350 629.333C344 626.933 343.333 625.733 345.467 620.8C346.4 618.533 346.133 618.533 343.6 621.067C342 622.667 340.267 624 339.733 624C336 624 303.733 599.6 286 583.333C270.533 569.467 264.4 562.933 252 547.333C246.667 540.667 240.667 533.467 238.533 531.333C234.267 526.667 220.933 504.8 219.867 500.267C219.333 498.667 218.533 497.333 217.867 497.333C216.533 497.333 216.133 496.4 206 472.667C202.267 463.867 198.4 455.067 197.333 453.2C194.267 447.6 184.8 412.8 181.733 395.467C177.733 372.933 177.733 331.2 181.867 305.467C184.8 286.667 187.067 277.333 188.8 277.333C189.333 277.333 189.467 276.267 189.067 274.933C188.4 272.267 191.067 260.533 195.6 246.667C197.067 241.867 203.6 227.2 210 214C219.867 193.333 227.333 180.533 245.867 152.8C250.267 146 282.267 113.867 295.333 103.067C300.8 98.5334 312.4 90.2667 321.067 84.6667C336.4 74.9334 370.933 57.3334 374.667 57.3334C375.733 57.3334 376.933 56.8 377.333 56C378.933 53.3333 416.533 43.0667 435.867 40C462.133 35.8667 480.133 34.8 508 36C531.733 36.9333 538.667 37.7333 554 41.2C601.6 52 626.533 62.5334 665.333 88.1334C690.933 105.067 706.133 118.4 726.933 142.267C739.733 156.933 740.4 158 738.4 160.267C736.133 162.8 737.867 163.6 740.267 161.2C741.333 160.133 742.267 160.533 743.733 162.8C781.467 223.2 796.933 268.667 800.933 331.733C803.067 363.867 801.067 388.933 794.667 413.867C792.267 423.6 788.933 435.067 787.333 439.333C785.6 443.733 782.133 453.6 779.333 461.333C772 482.133 754.667 514.667 741.467 531.867C714 568.133 674 605.467 644.8 622C637.733 626 630.267 630.4 628.267 631.733L624.4 634.267L647.6 635.067C664.533 635.6 672.933 636.4 679.333 638.267L688 640.8L704.667 626.133C737.6 597.333 756.267 577.467 776.133 550C786.933 535.067 792.4 526 802.933 504.933C821.333 468.267 830.667 438 838.133 390C840.8 373.467 840.4 328 837.6 307.333C835.2 290 828.533 256.8 825.867 248C822 235.333 810.267 206 805.067 195.333C768.533 122 721.2 73.8667 648.667 36.2667C615.867 19.3333 582.133 8.80001 542.133 3.20001C525.467 0.933346 468.267 -0.266626 450 1.33337ZM492 9.20001C492.4 10.5333 494.533 12.4 496.667 13.3334C501.467 15.3334 501.6 16.1334 497.867 18.4C495.733 19.7334 495.333 20.9333 496 23.7333C496.667 26.6667 496.533 27.0667 495.2 25.6C494.267 24.8 491.867 24 490 24C488.133 24 485.733 24.8 484.8 25.6C483.333 27.0667 483.2 26.8001 483.867 24.5334C484.267 23.0667 483.867 20.8 482.667 19.2C480.133 15.8667 480.133 14.9333 483.067 14C484.533 13.6 486.267 11.7333 487.067 10C488.933 6 490.8 5.73335 492 9.20001ZM616.667 37.8667C618.4 41.0667 618.4 41.6 616.667 42.6667C613.733 44.5334 612.933 44.2667 610.533 40.6667C608.8 37.8667 608.667 36.9334 610 35.3334C612.267 32.6667 614.133 33.3334 616.667 37.8667ZM371.867 36.8C374 42.4 372 45.3334 365.867 45.3334C362.667 45.3334 362.4 40.5334 365.6 37.0667C368.267 34.1334 370.8 34 371.867 36.8ZM700 87.3334C700 91.7334 697.2 92.8 694.933 89.2C693.067 86.2667 694.8 82.4 697.6 82.9333C699.333 83.2 700 84.6667 700 87.3334ZM289.733 85.6C288.8 88.1334 284.667 88.5334 284.667 86.1334C284.667 84.8 285.867 84 287.467 84C289.067 84 290 84.6667 289.733 85.6ZM736.667 120.133C736.667 122.933 736.533 123.067 733.467 121.867C730.933 120.933 730.667 117.867 733.067 116.933C735.467 116.133 736.667 117.2 736.667 120.133ZM232 144.533C232 149.333 228.533 152 225.467 149.467C222.667 147.067 222.8 143.2 225.733 141.467C229.6 139.2 232 140.4 232 144.533ZM758 143.333C760 145.867 757.6 149.333 753.867 149.333C751.2 149.333 748 144.667 749.333 142.667C750.533 140.667 756.133 141.067 758 143.333ZM779.467 178.667C782.133 180.133 782.933 184.667 780.667 186C776.667 188.4 771.2 182.667 774.133 179.2C776 176.933 776.133 176.933 779.467 178.667ZM209.6 180.133C212.533 183.067 206.8 190.8 203.2 188.533C201.867 187.733 201.6 180.933 202.933 179.6C204.267 178.133 208 178.533 209.6 180.133ZM184.933 226.267C187.867 228.933 188 230.4 185.067 233.6C182.133 236.933 179.733 236.667 177.067 232.533C174.933 229.2 174.933 228.933 178.133 226.533C182 223.467 181.867 223.467 184.933 226.267ZM804.8 226.667L808 229.333L804.133 232.667L800.4 236.133L797.2 232.667C793.333 228.533 793.333 228.133 796.4 225.867C799.6 223.467 801.2 223.6 804.8 226.667ZM167.333 291.333C169.733 294.133 168 297.333 164 297.333C161.333 297.333 160.667 296.667 160.667 294.267C160.667 289.067 164.133 287.6 167.333 291.333ZM822 296C822 296.667 821.333 297.333 820.533 297.333C819.867 297.333 819.6 296.667 820 296C820.4 295.2 821.067 294.667 821.467 294.667C821.733 294.667 822 295.2 822 296ZM831.067 353.867L834.933 354.8L829.6 360C826.667 362.933 823.6 365.333 822.667 365.333C821.867 365.333 818.933 362.933 816.267 360C812.267 355.467 811.867 354.667 814.133 354.667C815.733 354.667 817.867 352.8 819.6 349.867L822.4 345.2L824.8 349.2C826.133 351.467 828.667 353.467 831.067 353.867ZM160.667 351.333C161.6 353.2 163.6 354.667 164.933 354.667C168.4 354.667 168 356 162.533 361.6C157.867 366.533 155.333 367.867 155.333 365.333C155.333 364.667 153.467 362 151.2 359.333L147.067 354.667H150.533C152.933 354.667 154.533 353.6 155.6 351.333C156.4 349.467 157.467 348 158 348C158.533 348 159.733 349.467 160.667 351.333ZM187.6 471.2C189.333 475.333 188.133 478.667 184.933 478.667C181.2 478.667 178.933 475.333 179.867 471.333C180.933 466.933 185.6 466.933 187.6 471.2ZM801.733 474.133C802.267 478.133 798.933 480.533 795.467 478.667C792.267 477.067 791.867 474.667 794.267 472.267C796.8 469.733 801.333 470.933 801.733 474.133ZM207.867 512.8C210.667 516.933 210.133 520.667 206.667 520.667C203.6 520.667 199.867 514.667 201.067 511.6C202.267 508.267 205.333 508.8 207.867 512.8ZM781.333 514.4C782.533 517.6 777.067 522 774.533 519.867C772.133 517.867 772.133 516.133 774.8 513.2C777.2 510.533 780 511.067 781.333 514.4ZM232.8 548.267C234.533 551.6 232 554.933 228.133 554.4C226.133 554.133 225.2 552.8 224.933 550.133C224.133 543.867 229.733 542.533 232.8 548.267ZM756.133 551.467C757.2 555.467 755.333 557.733 751.867 557.067C750.133 556.8 749.2 555.333 748.933 552.267C748.533 548.533 748.933 548 751.867 548C754.4 548 755.467 548.933 756.133 551.467ZM249.733 568.8C253.067 571.067 253.6 574.933 250.667 577.333C246 581.2 240.4 575.867 243.067 570.133C244.933 566.133 245.733 565.867 249.733 568.8ZM738.133 571.467C739.333 572.933 739.467 574.133 738.4 575.733C736.667 578.667 732.667 578.667 730.933 575.867C727.733 570.8 734.267 566.8 738.133 571.467ZM273.2 594.133C274.4 594.533 275.333 596.4 275.333 598C275.333 599.733 276.133 601.467 277.067 601.867C277.867 602.267 276.667 602.4 274.133 602.267C269.2 602 266.4 598.933 267.733 595.467C268.667 593.2 269.867 592.8 273.2 594.133ZM715.333 598C715.333 599.067 714.133 600 712.667 600C709.733 600 709.067 598 711.733 596.933C714.533 595.733 715.333 596 715.333 598ZM699.333 610C700.667 611.6 700.667 612.4 699.333 614C697.2 616.667 694.533 616.533 693.467 613.867C692.667 611.733 694.667 608 696.667 608C697.2 608 698.4 608.933 699.333 610Z" fill="#4A4A4A"/>
<path d="M475.6 84.6666C463.2 88.5333 456.4 97.7333 450.667 118C447.2 130.533 436.8 163.467 432.4 176C430.133 182.267 426.667 193.067 424.667 200C422.533 206.933 419.733 215.6 418.267 219.333C415.867 225.467 411.333 243.2 409.2 254.933C408.133 261.467 403.467 265.6 378.8 281.867C343.067 305.333 330.267 312.4 300.667 324.667C291.467 328.533 272 336.667 257.333 342.933C242.667 349.067 226.533 356 221.333 358.133C216.267 360.133 210 363.733 207.467 366C203.333 369.867 203.067 370.667 203.867 375.2C204.533 378.667 206 380.8 208.8 382.533C211.067 384 232.267 391.467 255.733 399.2C279.333 407.067 308 417.333 319.333 422.133C330.667 426.933 344.8 432.667 350.667 434.8C367.733 441.2 386 449.467 386.267 451.2C386.4 452 386.533 460.133 386.667 469.333C386.667 485.867 386.667 486 389.867 486.4C392.933 486.933 392.933 487.2 392.133 495.333L391.333 503.733L398.533 515.467C408 530.933 413.2 535.2 422.4 535.2C436.667 535.067 446.133 526.667 452.8 507.733C455.2 501.2 457.467 496 458.133 496C458.667 496 459.333 506.133 459.6 518.667L460 541.333L464.933 545.333C469.067 548.8 470.533 551.6 475.2 565.733C478.267 574.667 481.6 586.8 482.667 592.667C484.667 603.067 487.467 609.333 490 609.333C492.267 609.333 495.333 600 501.333 575.467C507.067 551.733 507.2 551.6 512.667 546.8C518.133 542.133 518.267 541.6 519.333 531.333C520 525.467 520.133 514.933 519.867 508L519.2 495.333L522.933 506.133C529.467 524.933 540.133 534.533 554.667 534.667C563.067 534.667 567.067 532.133 574.8 521.867C584 509.6 586 504.533 586 493.6C586 484.933 586.267 484 588.667 484C591.2 484 591.333 483.067 591.333 469.6C591.333 461.733 591.733 454 592.133 452.4C592.667 450.267 596.133 448.133 605.067 444.267C611.867 441.333 618.8 438.533 620.667 438C622.533 437.467 632.267 433.2 642.4 428.533C652.533 423.733 664.8 418.4 669.6 416.533C674.533 414.8 679.067 412.8 679.867 412.133C681.333 410.933 691.467 407.333 734.534 392.533C758.534 384.4 771.734 378.4 775.334 374C776.534 372.533 776.534 371.333 775.067 368.4C772.8 363.6 766.8 359.733 754.933 355.333C727.867 345.2 668.133 319.733 649.467 310.4C632.4 301.867 598.4 282 594 278C592.133 276.4 586 271.6 580.267 267.333C574.667 263.067 569.733 258.4 569.333 256.8C568.933 255.333 568.133 251.6 567.467 248.667C564.933 237.067 551.867 194.667 538.8 155.333C531.2 132.533 523.6 109.333 522 103.733C520.267 98.1333 517.733 92.2666 516.133 90.7999C512.267 87.1999 496.4 82.6666 488.133 82.7999C484.4 82.7999 478.8 83.6 475.6 84.6666ZM499.733 101.333C500.133 102.8 499.733 104 499.067 104C498.133 104 497.867 108.4 498.4 117.333L499.067 130.533H488.4C482.533 130.533 477.467 130.8 477.067 131.2C476.667 131.6 476.8 133.867 477.467 136.267L478.8 140.667L489.733 141.067C498 141.333 500.667 141.067 500.667 139.733C500.667 136.667 503.467 127.733 504.267 128.4C504.667 128.8 506.4 128.667 508.133 128C511.733 126.533 511.467 125.6 514.667 145.333C517.467 161.867 518.8 183.733 517.067 182C516.267 181.2 514 175.733 512 169.6C510 163.467 507.067 156.933 505.333 154.933C502.533 151.733 501.467 151.467 489.067 150.933L475.867 150.4L472.4 158.133C470.4 162.533 467.867 169.733 466.8 174.267C465.6 178.933 462.8 187.067 460.667 192.533C452.533 212.8 447.333 246.667 447.333 279.6V295.733L441.467 299.2C428.4 306.8 414.4 328 409.067 348C407.467 354.133 406.8 361.6 406.8 373.333C406.933 388.4 407.333 391.2 411.067 402.133C413.467 408.8 415.333 415.333 415.333 416.667C415.333 422.4 423.467 435.733 432 443.867C436.8 448.4 440.667 453.067 440.667 454C440.667 455.2 437.333 456 429.067 456.533C422.533 457.067 413.333 457.733 408.533 458.133L399.733 458.8L399.467 424.4C399.333 405.467 399.067 382.8 399.067 374C398.8 352.667 406.4 308.933 414 286.4C416.267 280.133 418 272.267 418 269.067C418 266 419.6 259.067 421.467 254C423.2 248.8 425.6 240.4 426.667 235.067C427.6 229.733 430.267 221.333 432.533 216.4C434.667 211.467 437.067 204.667 438 201.333C441.333 188 465.6 115.467 468.933 108.933C473.6 99.6 475.333 98.6666 487.867 98.6666C497.867 98.6666 499.067 98.9333 499.733 101.333ZM501.467 174C507.467 194.4 514 220.4 514 224C514 229.067 509.333 234.4 504.133 235.467C501.6 235.867 493.2 235.6 485.2 234.933C471.867 233.733 470.533 233.467 467.6 230C464.8 226.667 464.533 225.467 465.333 219.467C466.667 210.267 478 170.8 480.533 166.8C481.867 164.8 490 162.8 495.2 163.067C497.867 163.333 498.667 164.667 501.467 174ZM528.667 200.667C528.667 201.333 528 201.067 527.333 200C526.667 198.933 526 197.333 526 196.667C526 195.867 526.667 196.267 527.333 197.333C528 198.4 528.667 199.867 528.667 200.667ZM531.6 212C532.267 212 532.667 212.933 532.267 213.867C531.733 215.2 532.133 215.6 533.467 215.067C534.4 214.667 535.333 213.867 535.333 213.2C535.333 212.533 536.533 212 538 212C539.733 212 540.667 212.933 540.667 214.667C540.667 216.133 541.2 217.333 541.733 217.333C543.067 217.333 548 231.2 550.533 242.667C551.6 247.467 554 255.467 555.867 260.667C557.6 265.733 559.067 270.133 558.933 270.267C558.8 270.267 552.267 270.133 544.533 269.733L530.4 268.933L529.067 239.467C528.4 223.333 528.133 208.8 528.533 207.333C529.2 205.067 529.333 205.333 529.733 208.267C530 210.4 530.8 212 531.6 212ZM537.6 209.6C537.2 210.667 536.8 210.267 536.8 208.8C536.667 207.333 537.067 206.533 537.467 207.067C537.867 207.467 538 208.667 537.6 209.6ZM517.733 264.4C518.533 285.067 518.4 287.867 516.667 287.2C515.6 286.8 507.733 285.867 499.333 285.333C483.467 284.133 468.533 285.2 463.467 287.867C460.133 289.733 460.267 290 460.667 262.667C460.933 248.133 462.8 230.133 463.2 238.267C463.467 244.133 468.133 245.467 489.467 245.733L509.2 246L512.667 240C516.667 232.8 516.4 231.2 517.733 264.4ZM562.267 288C566 298.8 576.4 341.2 577.467 349.6C578.133 354.8 577.867 357.333 576.667 358C575.467 358.667 575.333 358.133 576 356C576.533 354.133 576.4 353.333 575.6 353.867C574.933 354.267 574 352.8 573.467 350.667C570.267 334.133 557.6 315.6 540.133 301.333L531.333 294.267V287.067V279.867L545.6 280.267L559.733 280.667L562.267 288ZM399.467 293.867C396.267 301.6 392.8 316.667 388 344C385.333 358.667 384.8 366.667 384.667 386.933C384.667 406.133 384.267 412 383.067 412C381.067 412 364.133 405.733 340 396C305.867 382.4 271.2 371.067 268.4 372.8C267.867 373.2 267.333 374.8 267.333 376.4C267.333 379.867 275.2 383.333 294 388.133C304.667 390.933 315.333 395.067 339.333 405.467C344.8 407.867 357.467 412.533 367.333 416L385.333 422.267L385.733 427.733C386 430.8 385.733 433.333 385.2 433.333C384.8 433.333 379.067 430.933 372.533 428C366 425.067 360.133 422.667 359.467 422.667C358.133 422.667 310.667 402.4 303.333 398.667C295.867 394.933 252 380.133 238.267 376.667C231.467 374.933 225.467 373.2 224.933 372.8C223.733 371.467 226.133 369.733 233.333 366.933C258.667 357.067 306 337.467 316 332.933C331.733 325.6 353.6 313.467 380 297.2C391.733 290 401.6 284.667 401.733 285.467C402 286.133 400.933 290 399.467 293.867ZM594.8 296.8C598.8 299.467 602 302 602 302.667C602 303.2 606.933 305.867 613.067 308.667C619.067 311.467 625.6 314.8 627.467 316.133C638.133 323.6 699.6 350.667 730 361.333C739.467 364.533 747.333 369.2 747.333 371.467C747.333 372.933 737.6 377.333 734.4 377.333C733.467 377.333 723.467 380.4 712 384.133C700.533 387.867 690.8 390.667 690.533 390.267C690.133 389.867 691.2 389.2 692.933 388.667C695.867 387.733 704 384.267 711.333 380.933C714.533 379.333 719.333 375.333 719.333 374C719.333 373.6 717.733 373.6 715.733 374.133L712 374.933L715.333 372.133C717.2 370.667 719.867 369.2 721.333 368.933C722.8 368.667 721.6 368.667 718.667 368.933C705.867 370.267 658 385.733 643.2 393.333C632.267 398.933 611.867 408 610 408C609.333 408 608.667 395.6 608.267 380.267C608 365.067 606.8 346.4 605.6 338.667C604.533 330.933 603.2 321.733 602.8 318.133C602 312 602.133 311.733 604.267 313.6C605.6 314.667 607.6 316.133 608.667 316.667C614.133 319.733 606.4 312.933 597.867 307.2C588.133 300.667 583.333 295.733 583.333 292.4C583.333 289.867 585.6 290.667 594.8 296.8ZM504.533 298C535.6 306 556.133 329.6 560.533 362L561.6 369.333H556.8H552L550.4 361.333C547.333 345.067 538.533 332.267 523.867 322.667C511.6 314.667 495.733 310 484.267 311.067C473.867 312 456.133 320.533 447.333 328.8C439.333 336.267 432.4 349.733 429.867 362.267L428.267 370.667H422.533C415.867 370.667 415.867 370.8 418.133 357.333C420.667 341.6 430.8 322.533 442 312.4C446 308.8 468 297.733 472.667 296.933C480.533 295.6 497.6 296.133 504.533 298ZM484.667 332.267C489.867 340.8 487.6 350.667 478.667 358.4C468.4 367.467 460.4 365.467 450.8 351.2L448.133 347.467L446.4 351.867C445.333 354.267 444.533 360.533 444.533 365.733C444.267 393.2 464.8 414 492 413.867C510.133 413.733 526.4 402.533 532.667 385.6C535.067 379.333 535.467 375.867 535.067 366C534.667 355.867 533.867 352.533 530.267 344.8C524.533 332.667 529.067 336.133 535.467 348.933C539.733 357.333 540 358.667 540 371.333C540 383.733 539.733 385.333 535.6 393.6C527.067 411.067 510.8 420.8 490.667 420.533C466.4 420.267 448.933 407.067 441.867 383.6C438.533 372.933 438.933 356.933 442.533 351.333C445.2 347.333 452.933 341.6 451.867 344.533C450.267 348.667 452.667 346.667 454.4 342.267C457.6 334.8 468.4 328 476.933 328C481.2 328 482.4 328.667 484.667 332.267ZM560.933 377.2C562.533 378.667 558.4 397.867 554.8 405.333C548.533 418.667 545.333 421.467 514.933 441.067C499.867 450.667 470.4 450.4 458.533 440.533L454.667 437.333L459.733 439.333C465.6 441.733 466.267 440.933 460.8 438C458.533 436.933 450.667 431.2 443.333 425.2C430.933 415.467 429.333 413.6 425.2 404.8C421.067 396.133 416.667 379.467 418.133 378.133C418.4 377.867 421.2 377.333 424.133 376.933L429.733 376.267L430.4 382C431.733 394.933 444.933 415.6 455.867 422C473.333 432.267 492.4 435.6 507.467 431.2C530.8 424.267 544.933 408.267 550.133 383.067C551.867 374.8 551.867 374.8 555.867 375.6C558.133 376 560.4 376.667 560.933 377.2ZM638.667 406.533C636.933 408 627.867 411.067 629.2 409.733C629.733 409.067 632.133 408 634.4 407.067C639.733 405.067 640.133 405.067 638.667 406.533ZM626.533 412.667C625.6 414.8 620.667 415.467 620.667 413.467C620.667 412.4 622.8 411.333 626.267 410.8C626.8 410.8 626.933 411.6 626.533 412.667ZM577.733 442.133C578.267 459.467 578.267 460.267 575.867 459.467C574.4 459.067 567.467 458.667 560.4 458.4C553.2 458.267 547.333 457.867 547.333 457.6C547.333 457.333 550.267 453.867 553.733 450C557.333 446.133 562.8 438.533 566 433.2C575.733 416.667 576.933 417.6 577.733 442.133ZM596 430.667C596.4 431.333 596.133 432 595.467 432C594.667 432 594 431.333 594 430.667C594 429.867 594.267 429.333 594.533 429.333C594.933 429.333 595.6 429.867 596 430.667ZM471.067 457.867C482.133 461.867 494.267 461.733 511.067 457.733C514 457.067 514 457.2 514 469.867V482.667H488H462V472.267C462 461.6 462.933 456 464.667 456C465.2 456 468.133 456.8 471.067 457.867ZM438 471.867V476.933L431.067 477.867C420.533 479.067 400.933 478.8 400.133 477.467C399.6 476.8 399.867 474.667 400.667 472.8C401.867 469.6 402.533 469.333 410.933 469.2C416 469.067 423.333 468.667 427.333 468C431.333 467.467 435.467 466.933 436.4 466.8C437.467 466.667 438 468.533 438 471.867ZM573.733 471.733C577.2 476.133 575.6 476.933 561.067 477.733C553.067 478.267 543.067 479.067 538.8 479.467L530.933 480.4L531.867 475.867C533.333 468.4 535.2 467.733 554.667 468.8C568.133 469.467 572.4 470.133 573.733 471.733ZM435.067 491.2C433.333 496.8 431.6 497.333 416.4 497.333H404.667V492V486.667H420.533H436.4L435.067 491.2ZM564.4 491.467L564.8 495.6L550.133 496.533C542 497.067 534.8 497.2 534 496.667C532.533 495.733 532.133 488.933 533.6 487.467C534.133 487.067 541.2 486.8 549.2 486.933L564 487.333L564.4 491.467ZM571.333 492.667C571.333 494.533 570.8 496 570.133 496C569.6 496 569.333 494.533 569.733 492.667C570 490.8 570.533 489.333 570.8 489.333C571.067 489.333 571.333 490.8 571.333 492.667ZM493.733 504.533C494 510.4 493.6 515.6 492.933 516.267C492.133 517.067 486.8 517.867 480.8 518.267L470 519.067V506.933C470 492.933 469.467 493.467 484 493.733L493.333 494L493.733 504.533ZM563.467 506.667C567.067 508.667 566.667 511.6 562 516.267C558.267 519.867 557.2 520.267 552.267 519.6C548.4 519.067 545.733 517.733 543.6 515.2C538.933 509.867 540.133 507.467 548 506.533C558.933 505.2 560.667 505.333 563.467 506.667ZM435.733 509.2C439.333 512.8 430 521.333 422.667 521.333C416 521.333 409.067 509.867 414.4 507.467C416.933 506.267 434.267 507.733 435.733 509.2ZM498.667 534V538L489.067 538.4C477.867 538.8 474 537.333 474 532.667C474 529.333 474 529.333 486.4 529.6L498.667 530V534Z" fill="#4A4A4A"/>
<path d="M426.4 270.667C424.133 271.6 423.333 273.067 423.333 276C423.333 280 423.467 280 430.4 280C434.133 280 438.667 279.6 440.4 279.2C444 278.133 445.867 272.267 443.2 270.533C440.8 269.067 430.267 269.2 426.4 270.667Z" fill="#3B8ED9"/>
<path d="M485.6 171.6C484.4 173.6 476.8 199.6 473.867 211.2C470.267 225.867 470.267 225.867 488.133 227.067C505.333 228.267 508.133 226.933 507.733 218.4C507.333 210.267 495.867 174.533 493.067 172.267C490.533 170.533 486.533 170.133 485.6 171.6Z" fill="#3B8ED9"/>
<path d="M472.667 260.667V265.333H489.333H506V260.667V256H489.333H472.667V260.667Z" fill="#3B8ED9"/>
<path d="M480.667 270.533C476.8 271.2 475.867 272 475.6 274.933L475.2 278.667H489.867H504.667V274V269.333L495.067 269.467C489.733 269.6 483.2 270 480.667 270.533Z" fill="#3B8ED9"/>
<path d="M348.667 329.333C347.467 330.133 347.333 330.667 348.267 330.667C349.067 330.667 350.267 330 350.667 329.333C351.733 327.733 351.2 327.733 348.667 329.333Z" fill="#4A4A4A"/>
<path d="M325.467 357.867C325.067 360 324.667 365.2 324.667 369.467V377.333H347.2H369.6L370.533 372.267C371.6 365.467 371.467 357.067 370.267 355.067C369.6 353.867 363.2 353.6 347.733 353.733L326.267 354L325.467 357.867ZM350 363.733V368.667L343.333 368.933C336.933 369.333 336.667 369.2 336.667 365.6C336.667 360.4 338.133 358.933 343.333 358.4C349.6 357.733 350 358.133 350 363.733Z" fill="#3B8ED9"/>
<path d="M630.667 329.467C631.6 330.8 651.467 340.267 652.133 339.6C652.4 339.333 647.467 336.667 641.333 333.733C635.067 330.667 630.267 328.8 630.667 329.467Z" fill="#4A4A4A"/>
<path d="M660.933 345.333C661.867 346.667 663.067 347.6 663.6 347.2C664.133 346.8 665.867 347.2 667.467 348.133C670.8 349.867 678 352 678 351.333C678 350.4 670.4 346.667 664.533 344.667C659.6 342.933 659.467 342.933 660.933 345.333Z" fill="#4A4A4A"/>
<path d="M683.333 354.267C694.533 359.6 707.467 364.4 708.267 363.467C708.933 362.8 687.6 354 682.667 352.933C678.8 352.133 678.8 352.133 683.333 354.267Z" fill="#4A4A4A"/>
<path d="M615.2 354.4C613.333 355.2 612.933 357.333 613.2 366.667L613.333 378L624 378.133C629.867 378.133 638.133 378.667 642.4 379.2C647.467 380 650.667 379.867 651.6 378.933C652.4 378.133 652.533 373.467 652 366L651.067 354.4L644.133 355.333C633.6 356.667 631.333 358.133 631.067 364.533C630.933 368.933 630.8 368.4 630.133 362L629.333 354L623.333 353.733C620 353.6 616.4 353.867 615.2 354.4Z" fill="#3B8ED9"/>
<path d="M487.067 464.933C482.8 465.2 479.333 465.867 479.333 466.4C479.467 466.933 480.8 468.933 482.4 470.933C484.667 473.733 486.933 474.667 493.067 475.333L500.667 476.267V470.133C500.667 464.533 500.4 464 497.733 464.267C496 464.4 491.2 464.667 487.067 464.933Z" fill="#3B8ED9"/>
<path d="M345.733 102C348 106.4 350.8 111.2 352 112.667C353.2 114.133 352 111.067 349.333 106C346.667 100.8 343.867 96 343.067 95.3333C342.267 94.5333 343.467 97.6 345.733 102Z" fill="#4A4A4A"/>
<path d="M807.333 98.1333C806.133 101.6 804.667 102.667 799.867 104C792.933 106 792.267 107.733 798.4 108.267C802.133 108.667 802.8 109.333 803.867 113.6C805.467 120.267 809.2 120.4 811.467 114C812.667 110.933 814.4 108.933 816.933 108.133C821.333 106.533 822.133 102.533 818 103.333C814.133 104.133 811.333 102.8 811.333 100.133C811.333 98.9333 810.667 97.0667 810 96C809.067 94.4 808.533 94.8 807.333 98.1333Z" fill="#4A4A4A"/>
<path d="M173.6 101.867C172.267 103.733 170.4 105.333 169.333 105.333C166.667 105.333 166.8 106.267 170 110.267C171.467 112.133 172.667 114.8 172.667 116.133C172.667 120.667 175.467 119.2 181.067 111.733C184.533 107.067 184.533 106.8 182 106C180.533 105.467 178.533 103.6 177.6 101.733L175.733 98.4L173.6 101.867Z" fill="#4A4A4A"/>
<path d="M355.333 118.667C356.133 120.133 357.067 121.333 357.467 121.333C357.733 121.333 357.467 120.133 356.667 118.667C355.867 117.2 354.933 116 354.533 116C354.267 116 354.533 117.2 355.333 118.667Z" fill="#4A4A4A"/>
<path d="M663.467 135.333C660.4 138.667 658.267 141.333 658.667 141.333C659.733 141.333 670.133 130.4 669.6 129.733C669.333 129.467 666.533 132 663.467 135.333Z" fill="#4A4A4A"/>
<path d="M363.333 133.333C364.133 134.8 365.067 136 365.467 136C365.733 136 365.467 134.8 364.667 133.333C363.867 131.867 362.933 130.667 362.533 130.667C362.267 130.667 362.533 131.867 363.333 133.333Z" fill="#4A4A4A"/>
<path d="M131.733 150.533C130.8 153.2 129.067 154.667 126.133 155.333C121.333 156.4 120.933 158 124.667 160.267C126.133 161.2 127.333 163.333 127.333 164.933C127.333 168.133 129.2 169.067 130.667 166.667C131.067 165.867 132.933 165.333 134.667 165.333C136.667 165.333 138.133 164.4 138.667 162.667C139.2 161.2 141.467 159.067 143.733 158.133C147.733 156.267 147.867 156.267 144.667 156.133C140.133 155.867 138.4 154.667 136.8 150.267C135.067 145.6 133.6 145.733 131.733 150.533Z" fill="#4A4A4A"/>
<path d="M842 158.133C842 160.667 845.733 163.867 848.667 164C851.067 164 854.4 159.067 853.333 157.333C852.8 156.533 850.133 156 847.2 156C843.333 156 842 156.533 842 158.133Z" fill="#4A4A4A"/>
<path d="M863.6 165.2C862.8 167.333 860.667 170.133 858.667 171.467L855.2 173.733L858.933 176.133C860.933 177.467 862.667 179.6 862.667 180.933C862.667 185.067 867.333 184.667 868.933 180.267C869.867 178 872 175.867 874.4 174.933C878.533 173.333 878.267 170.667 874 170.667C872.533 170.667 870.533 169.067 869.333 166.8C866.533 161.2 865.067 160.8 863.6 165.2Z" fill="#4A4A4A"/>
<path d="M260.667 173.867C260.667 174.133 261.733 175.2 263.067 176.133C265.067 177.867 265.2 177.733 263.467 175.6C261.733 173.467 260.667 172.8 260.667 173.867Z" fill="#4A4A4A"/>
<path d="M705.867 186.267C704.133 188.4 704.267 188.533 706.4 186.8C707.6 185.867 708.667 184.8 708.667 184.533C708.667 183.467 707.6 184.133 705.867 186.267Z" fill="#4A4A4A"/>
<path d="M694 195.6L689.333 200.4L695.067 196C698.133 193.467 700.667 191.333 700.667 191.067C700.667 189.733 698.133 191.467 694 195.6Z" fill="#4A4A4A"/>
<path d="M284.667 193.733C284.667 194 287.867 196.8 291.733 200C295.6 203.333 297.2 204.267 295.333 202.133C292 198.4 284.667 192.667 284.667 193.733Z" fill="#4A4A4A"/>
<path d="M897.333 220.133C896.8 222.133 895.067 224.267 893.2 225.2C889.467 226.933 888.933 230.133 892.4 231.2C893.733 231.733 895.733 234 896.933 236.267L898.933 240.533L901.333 236.4C902.667 234 904.933 231.867 906.267 231.6C909.467 230.667 909.333 228.533 906.133 227.6C904.667 227.333 902.4 224.667 900.933 221.867L898.267 216.667L897.333 220.133Z" fill="#4A4A4A"/>
<path d="M78 221.867C78 224.4 76.9334 225.467 73.3334 226.667C67.6 228.533 67.4667 229.6 72.6667 231.6C75.3334 232.533 76.6667 234 76.6667 235.867C76.6667 240.267 79.2 240.4 83.0667 236.267C85.0667 234.133 87.6 232.133 88.6667 231.6C90.2667 231.067 89.8667 230.133 86.9334 227.867C84.8 226.267 82.5334 223.6 81.8667 221.867C80.4 217.733 78 217.733 78 221.867Z" fill="#4A4A4A"/>
<path d="M762.533 227.467C760.133 229.333 760.133 229.467 763.067 228C764.667 227.2 766 226.267 766 226C766 224.933 765.333 225.2 762.533 227.467Z" fill="#4A4A4A"/>
<path d="M25.7333 259.6C21.0667 260.133 18.4 262.8 20.1333 265.467C21.3333 267.467 23.8667 266.8 28.6667 263.333C33.4667 259.733 45.8667 258.267 43.8667 261.6C43.2 262.533 43.4667 262.667 44.8 261.867C45.8667 261.333 47.4667 260.667 48.4 260.533C49.4667 260.267 50.5333 259.867 51.0667 259.467C51.8667 258.667 34 258.8 25.7333 259.6Z" fill="#708090"/>
<path d="M52.6667 259.733C52.6667 260.4 53.6 260.933 54.6667 260.933C55.7334 260.933 56.6667 260.4 56.6667 259.733C56.6667 259.2 55.7334 258.667 54.6667 258.667C53.6 258.667 52.6667 259.2 52.6667 259.733Z" fill="#708090"/>
<path d="M59.3334 260C59.3334 260.8 60.8 261.067 62.8 260.533C65.0667 260 66.6667 260.267 67.3334 261.333C68 262.4 69.0667 262.533 70.1334 261.867C71.0667 261.333 74.4 260.933 77.3334 261.067C82.6667 261.467 96.6667 265.2 98 266.533C98.4 266.933 100.533 268.667 102.933 270.267C106.4 272.8 109.067 273.333 117.2 273.333C128.133 273.333 127.6 273.733 129.333 263.6L130.133 258.667H94.6667C71.6 258.667 59.3334 259.2 59.3334 260Z" fill="#708090"/>
<path d="M853.2 259.6L849.2 260.133L850.4 267.333C851.733 274.133 854 277.467 854 272.533C854 271.467 854.667 270.933 855.333 271.333C856.133 271.733 856.667 271.333 856.667 270.4C856.667 268.933 856.933 268.933 857.867 270.4C858.667 271.867 862 272 873.2 271.2C885.467 270.4 887.333 270 887.333 267.867C887.333 266.667 886.533 265.333 885.733 264.933C884.8 264.667 886.8 264.667 890.133 264.933C893.867 265.333 897.6 264.933 899.467 263.867C901.2 262.933 905.067 262 908 261.867C910.933 261.6 914.8 261.2 916.667 260.8C918.533 260.4 920.267 260.8 920.933 261.733C921.6 262.8 922 262.8 922 261.867C922 260.8 926.667 260.267 936.933 260.133C945.2 260 952.133 259.6 952.533 259.333C953.2 258.533 859.2 258.8 853.2 259.6Z" fill="#708090"/>
<path d="M77.3334 264C77.7334 264.667 78.6667 265.333 79.4667 265.333C80.1334 265.333 80.6667 264.667 80.6667 264C80.6667 263.2 79.7334 262.667 78.5334 262.667C77.4667 262.667 76.9334 263.2 77.3334 264Z" fill="#708090"/>
<path d="M861.733 274.267C865.467 274.533 871.867 274.533 875.733 274.267C879.467 274 876.4 273.867 868.667 273.867C860.933 273.867 857.867 274 861.733 274.267Z" fill="black"/>
<path d="M854.933 292C855.333 295.333 855.733 298.8 856.133 299.733C856.533 301.067 869.333 301.333 916.8 301.333C949.867 301.2 976.533 300.8 976.133 300.267C975.6 299.867 973.333 299.6 970.933 299.733C968.533 299.867 964.933 299.467 962.667 298.8C959.333 297.733 959.2 297.6 961.733 297.467C964.533 297.333 966.133 294.667 963.333 294.667C960.533 294.667 962 289.333 965.067 288.8C966.667 288.4 969.2 287.867 970.667 287.6C973.067 287.067 958.533 286.8 882.533 286.267L854.4 286L854.933 292Z" fill="#708090"/>
<path d="M5.60004 290.533C5.20004 292.667 4.40004 296.133 4.00004 298.133C3.33337 300.8 3.46671 301.467 4.40004 300.133C5.33337 298.933 6.00004 298.8 6.53337 299.867C7.20004 300.933 24.5334 301.333 65.4667 301.333C100.267 301.333 123.2 300.8 122.8 300.133C122.267 299.467 122.533 298.667 123.067 298.4C123.733 298.267 124.533 295.467 125.067 292.267L125.733 286.667H66H6.40004L5.60004 290.533Z" fill="#708090"/>
<path d="M744.4 290.267C745.333 290.667 746.533 290.533 746.933 290.133C747.467 289.733 746.667 289.333 745.2 289.467C743.733 289.467 743.333 289.867 744.4 290.267Z" fill="#4A4A4A"/>
<path d="M739.067 291.6C740 292 741.2 291.867 741.6 291.467C742.133 291.067 741.333 290.667 739.867 290.8C738.4 290.8 738 291.2 739.067 291.6Z" fill="#4A4A4A"/>
<path d="M733.733 292.933C734.667 293.333 735.867 293.2 736.267 292.8C736.8 292.4 736 292 734.533 292.133C733.067 292.133 732.667 292.533 733.733 292.933Z" fill="#4A4A4A"/>
<path d="M0.799992 323.2L0.533325 332.667L45.6 332.267C70.4 332 89.4667 331.333 88 330.667C86.5333 330.133 77.7333 330 68.4 330.267C50 331.067 35.8667 329.733 42 327.867C43.8667 327.333 48.1333 326.933 51.7333 326.8C55.2 326.667 58 326 58 325.333C58 324.533 59.8667 324 62 324C66 324 67.4667 322.133 64.4 320.933C63.4667 320.667 62.9333 320 63.3333 319.6C64.5333 318.267 76.9333 320.933 78.1333 322.8C78.9333 324 79.3333 324.133 79.3333 323.067C79.3333 321.333 85.2 320.4 102.8 319.467L114.8 318.933L116.267 322.8C117.2 325.067 117.2 326.933 116.533 327.467C114.4 328.8 115.333 332 117.867 332C120.133 332 120.533 330.8 120.933 323.333C121.333 315.467 121.067 314.667 118.667 314.4C117.2 314.267 90.1333 314.133 58.5333 314L1.06666 313.733L0.799992 323.2ZM33.0667 330.267C32.1333 330.533 30.5333 330.533 29.7333 330.267C28.8 329.867 29.4667 329.6 31.3333 329.6C33.2 329.6 33.8667 329.867 33.0667 330.267Z" fill="#708090"/>
<path d="M858.933 314.267C858.8 314.4 858.933 318.4 859.067 323.2L859.6 332L879.067 331.733L898.667 331.467L879.733 331.067C862 330.667 860.667 330.4 860.667 328C860.667 326.667 861.333 325.067 862 324.667C862.8 324.267 863.333 322.4 863.333 320.8C863.333 316.533 867.067 316 892 316.267C916.667 316.533 926.267 317.2 925.333 318.8C924.933 319.333 930.533 319.6 937.867 319.067C950.533 318.267 951.067 318.4 952 321.2C952.4 322.667 953.733 324 954.8 324C955.867 324 956.667 324.533 956.667 325.2C956.667 325.733 959.733 326.667 963.333 327.067C972.133 328.133 974.533 329.733 969.333 330.8C966.133 331.467 966.8 331.733 972.4 331.867L979.467 332L979.067 322.933L978.667 314H918.933C886 314 859.067 314.133 858.933 314.267Z" fill="#708090"/>
<path d="M863.067 328.933C864 329.333 865.2 329.2 865.6 328.8C866.133 328.4 865.333 328 863.867 328.133C862.4 328.133 862 328.533 863.067 328.933Z" fill="black"/>
<path d="M0.933348 348.533C0.800014 352 1.20001 354.667 2.00001 354.667C2.66668 354.667 3.33335 355.467 3.33335 356.4C3.33335 357.333 4.66668 358.133 6.40001 358.267C8.00001 358.267 8.53335 358.133 7.73335 357.733C6.80001 357.333 6.00001 356.533 6.00001 355.867C6.00001 355.067 7.06668 355.067 8.53335 356C12.5333 358 13.8667 357.6 12.9333 354.4C12.2667 351.733 12.6667 351.6 17.4667 352.4C20.2667 352.933 23.3333 354.133 24.1333 355.333C25.3333 356.8 28.4 357.333 36.8 357.333C46.1334 357.333 48.4 356.933 50.2667 354.8C51.8667 352.8 53.6 352.533 59.2 353.067C63.7334 353.467 66 353.2 66 352.133C66 350.133 76.2667 350.267 77.0667 352.267C77.4667 353.6 78.1334 353.467 79.4667 351.867C80.5334 350.533 82.8 349.2 84.6667 348.667C87.3334 348 87.6 348.133 86 349.333C84.4 350.667 84.4 350.8 86.6667 350C94.5334 347.2 99.0667 346.533 103.733 347.2C106.667 347.733 109.733 347.467 110.667 346.667C112.667 345.067 118.267 345.467 119.6 347.333C120.267 348.133 120.667 348 120.667 346.933C120.667 346 119.867 345.067 119.067 344.667C118.133 344.4 91.2 343.867 59.2 343.333L1.06668 342.533L0.933348 348.533Z" fill="#708090"/>
<path d="M873.867 344.533C874.8 345.6 876.8 346.667 878.4 346.933C880 347.2 881.467 348.4 881.733 349.733C882.267 352.667 887.733 358.667 889.867 358.667C890.667 358.667 891.333 359.2 891.333 360C891.333 360.667 885.467 361.467 878.4 361.733C866.8 362 867.2 362.133 882.667 362.267C892.267 362.4 904.8 361.867 910.667 361.2C924.267 359.733 922.133 359.733 935.6 360.8C941.867 361.333 948.267 361.2 949.6 360.667C953.2 359.067 963.467 358.4 960 360C958.133 360.8 960.8 361.2 968.667 361.2L980 361.333L979.6 352.667L979.067 344L969.6 343.867C964.267 343.867 940.267 343.467 916.133 343.2C878 342.667 872.533 342.933 873.867 344.533ZM892.267 350.4C892.533 352.533 892 353.333 890 353.333C888.267 353.333 887.333 352.4 887.333 350.933C887.333 345.867 891.467 345.467 892.267 350.4Z" fill="#708090"/>
<path d="M859.6 353.333C859.6 355.2 859.867 355.867 860.267 354.933C860.533 354.133 860.533 352.533 860.267 351.6C859.867 350.8 859.6 351.467 859.6 353.333Z" fill="black"/>
<path d="M17.0666 358.267C18.2666 358.533 20.1333 358.533 21.0666 358.267C21.8666 357.867 20.9333 357.6 18.6666 357.6C16.5333 357.6 15.7333 357.867 17.0666 358.267Z" fill="#708090"/>
<path d="M1.19998 382.667L1.33332 392L44.6666 391.867C68.5333 391.733 86.5333 391.467 84.6666 391.067C75.7333 389.733 75.0666 389.333 77.2 387.333C79.3333 385.067 82 384.667 82 386.533C82 387.2 80.9333 388.133 79.7333 388.4C78.4 388.8 82.5333 389.067 89.0666 389.2C98.5333 389.333 100.667 388.933 100.667 387.333C100.667 386.267 101.6 385.333 102.8 385.333C104 385.333 106.533 383.733 108.4 381.6C112.133 377.867 117.6 377.333 119.6 380.533C120.133 381.333 120.667 380.133 120.667 377.867V373.733L60.9333 373.467L1.06665 373.2L1.19998 382.667ZM89.8666 378.267C81.7333 378.8 81.0666 379.067 81.6 381.333C82.1333 383.333 81.6 384 79.4666 384C77.6 384 76.6666 383.2 76.6666 381.467C76.6666 378 78.4 377.467 89.3333 377.733L98.6666 377.867L89.8666 378.267ZM97.7333 382.267C97.2 385.467 87.3333 386.533 87.3333 383.467C87.3333 381.2 89.3333 380.267 94.4 380.133C97.3333 380 98.1333 380.533 97.7333 382.267Z" fill="#708090"/>
<path d="M871.067 374.267C875.6 374.533 879.333 375.333 879.333 376C879.333 376.8 885.6 377.333 893.867 377.333C905.867 377.333 908.533 377.733 909.2 379.467C910.4 382.667 910.4 382.667 905.333 382.667C902.8 382.667 900.667 382 900.667 381.333C900.667 380.533 900.133 380 899.333 380C898.667 380 898 381.2 898 382.667C898 384.4 897.067 385.333 895.333 385.333C890 385.333 892.8 388 898.4 388.133C902.4 388.267 900.533 388.8 892 390C880.4 391.6 881.333 391.6 914.667 391.867C933.733 391.867 956.133 391.6 964.4 391.067L979.333 390.267V381.733V373.333L921.067 373.6C888.933 373.733 866.4 374 871.067 374.267ZM902.4 375.6C898.533 375.867 892.133 375.867 888.4 375.6C884.533 375.333 887.6 375.2 895.333 375.2C903.067 375.2 906.133 375.333 902.4 375.6Z" fill="#708090"/>
<path d="M858.8 379.333C858.4 380.533 858.133 384 858.133 387.067C858.4 392.4 858.4 392.267 859.333 385.333C860.267 377.467 860.133 375.867 858.8 379.333Z" fill="black"/>
<path d="M91.0667 391.6C92 392 93.2 391.867 93.6 391.467C94.1334 391.067 93.3334 390.667 91.8667 390.8C90.4 390.8 90 391.2 91.0667 391.6Z" fill="black"/>
<path d="M98.4 391.6C99.6 391.867 101.467 391.867 102.4 391.6C103.2 391.2 102.267 390.933 100 390.933C97.8667 390.933 97.0667 391.2 98.4 391.6Z" fill="black"/>
<path d="M915.333 403.6L855.867 404L854.533 412.533L853.333 421.2L860.933 422C865.067 422.533 869.067 422.667 869.6 422.267C870.267 421.867 880.933 421.333 893.6 421.067C906.133 420.933 915.733 420.267 915.067 419.867C914.267 419.333 905.733 419.2 896.133 419.467C881.333 419.867 879.733 419.6 885.733 418.533C891.2 417.467 892.667 416.533 892.667 414.533C892.667 412.133 893.733 412 908 412C922.267 412 923.333 412.133 923.333 414.533C923.333 416.267 924.4 417.333 926.4 417.6C928.533 418 927.733 418.533 923.333 419.6C918.4 420.933 922.8 421.067 947.333 420.933C965.467 420.8 977.733 420.133 978.267 419.333C978.8 418.533 979.333 414.533 979.333 410.267C979.333 403.733 978.933 402.667 977.067 402.933C975.733 403.2 948 403.467 915.333 403.6ZM887.333 414.133C887.333 415.2 886.133 416 884.667 416C881.733 416 880.933 412.533 883.733 411.6C885.867 410.8 887.333 411.733 887.333 414.133Z" fill="#708090"/>
<path d="M2.13337 412.667L2.40003 421.333H64.4L126.4 421.2L125.467 415.067C125.067 411.733 124.667 407.867 124.667 406.533C124.667 404.133 122.267 404 63.3334 404H1.8667L2.13337 412.667Z" fill="#708090"/>
<path d="M866.667 434.267C858.667 434.533 851.6 435.2 851.2 435.733C850.667 436.267 849.333 439.867 848.133 443.6C846.4 449.867 846.4 450.667 848.133 450.667C849.6 450.667 849.867 449.867 849.333 448C848.8 446.533 849.067 445.333 849.867 445.333C850.667 445.333 851.333 443.6 851.333 441.467C851.333 438.4 852 437.467 854.933 436.8C858.667 435.733 860.667 437.467 860.667 441.6C860.667 443.067 861.733 444 863.333 444C865.067 444 866 443.067 866 441.467C866 440.133 866.8 438.667 867.733 438.267C868.533 438 879.467 437.867 891.867 438.133C904.4 438.267 915.067 438.133 915.733 437.733C916.4 437.333 929.467 436.933 944.8 436.933C960.133 436.8 972.667 436.4 972.667 435.733C972.667 435.2 960.533 434.667 945.733 434.667C930.8 434.667 910.267 434.4 900 434.133C889.733 433.867 874.8 434 866.667 434.267Z" fill="#708090"/>
<path d="M16.6667 436C12.1334 437.467 20.4 437.733 58.6667 437.2C75.6 436.933 92.8 436.8 97.0667 436.933C101.2 437.067 104.667 436.667 104.667 436C104.667 434.4 21.4667 434.4 16.6667 436Z" fill="#708090"/>
<path d="M7.60003 437.6C8.00003 438.533 9.33336 439.6 10.5334 439.733C12.1334 440.133 12.8 439.6 12.4 438.4C12 437.467 10.6667 436.4 9.46669 436.267C7.86669 435.867 7.20003 436.4 7.60003 437.6Z" fill="#708090"/>
<path d="M36.4 439.6C37.3333 440 38.5333 439.867 38.9333 439.467C39.4667 439.067 38.6667 438.667 37.2 438.8C35.7333 438.8 35.3333 439.2 36.4 439.6Z" fill="black"/>
<path d="M852.667 442.8C852.667 445.733 854.4 446.133 856.533 443.467C857.733 442 857.467 441.467 855.333 440.933C853.333 440.4 852.667 440.933 852.667 442.8Z" fill="black"/>
<path d="M10.6667 448C9.73335 449.467 13.6 451.467 14.9334 450.133C15.4667 449.733 14.8 449.333 13.4667 449.333C12.2667 449.333 11.6 448.667 12 448C12.4 447.2 12.5334 446.667 12.1334 446.667C11.7334 446.667 11.0667 447.333 10.6667 448Z" fill="black"/>
<path d="M861.733 450.267C862.667 450.667 863.867 450.533 864.267 450.133C864.8 449.733 864 449.333 862.533 449.467C861.067 449.467 860.667 449.867 861.733 450.267Z" fill="black"/>
<path d="M885.067 450.267C895.067 450.533 911.6 450.533 921.733 450.267C931.733 450.133 923.467 449.867 903.333 449.867C883.2 449.867 874.933 450.133 885.067 450.267Z" fill="#708090"/>
<path d="M76.9334 477.2C76 480 74.5334 481.333 72.8 481.333C67.6 481.333 68.2667 485.6 73.7334 487.2C75.3334 487.733 76.6667 489.2 76.6667 490.533C76.6667 491.733 77.4667 494 78.5334 495.333C80.2667 497.733 80.5334 497.6 82.4 492.933C83.8667 489.467 85.3334 488 87.2 488C91.3334 488 90.6667 486 84.1334 479.333L78.2667 473.2L76.9334 477.2Z" fill="#4A4A4A"/>
<path d="M896 483.2C893.2 489.2 893.733 492.533 897.733 495.067C898.533 495.6 899.333 497.067 899.333 498.133C899.333 499.333 900.933 498.533 903.733 495.733L908.267 491.333L904.8 484.267C902.933 480.533 900.8 477.333 900 477.333C899.333 477.333 897.467 480 896 483.2Z" fill="#4A4A4A"/>
<path d="M270.667 517.467C262.8 523.467 261.733 525.067 269.067 519.867C274.667 516 277.733 513.2 276.4 513.333C276.133 513.333 273.6 515.2 270.667 517.467Z" fill="#4A4A4A"/>
<path d="M127.067 517.067C126.133 518.533 123.467 520 121.333 520.4C117.467 520.933 117.467 521.067 120.4 522C122.4 522.667 123.733 524.4 124.267 526.933C125.467 532.933 128.267 533.067 133.733 527.467C138.533 522.667 138.533 522.533 136 520.667C134.533 519.6 132.4 517.867 131.2 516.667C129.067 514.667 128.8 514.667 127.067 517.067Z" fill="#4A4A4A"/>
<path d="M850.8 517.867C849.6 519.733 847.733 521.333 846.667 521.333C843.6 521.333 844.267 523.467 848.8 527.867C854 533.067 855.6 533.067 859.867 527.733L863.2 523.467L859.867 522C858 521.333 855.733 519.2 854.8 517.6L853.067 514.4L850.8 517.867Z" fill="#4A4A4A"/>
<path d="M259.2 526.267C257.467 528.4 257.6 528.533 259.733 526.8C261.867 525.067 262.533 524 261.467 524C261.2 524 260.133 525.067 259.2 526.267Z" fill="#4A4A4A"/>
<path d="M619.867 543.067C622 545.733 623.867 548 624.267 548C625.2 548 619.467 540.267 617.733 539.2C616.8 538.667 617.867 540.4 619.867 543.067Z" fill="#4A4A4A"/>
<path d="M678 548.667C682.667 553.467 686.933 557.333 687.2 557.333C687.6 557.333 684 553.467 679.333 548.667C674.667 543.867 670.4 540 670.133 540C669.733 540 673.333 543.867 678 548.667Z" fill="#4A4A4A"/>
<path d="M690 561.867C690 562.133 691.067 563.2 692.4 564.133C694.4 565.867 694.533 565.733 692.8 563.6C691.067 561.467 690 560.8 690 561.867Z" fill="#4A4A4A"/>
<path d="M164.533 580L164 584.667L156.133 584.267C147.733 583.867 144.667 585.333 144.667 589.6C144.667 591.733 145.2 592 147.067 591.2C149.6 590 157.2 590.133 160.267 591.333C161.867 591.867 162.133 593.467 161.733 597.733C161.067 602.8 161.333 603.467 164 603.733C166.133 603.867 167.2 602.8 168.533 599.333C169.733 596 171.2 594.4 174.133 593.6C179.333 592.267 179.6 590.133 174.667 589.333C170.933 588.667 169.467 586.8 166.267 578.667C165.067 575.467 164.933 575.467 164.533 580Z" fill="#4A4A4A"/>
<path d="M816.4 581.2C814.8 585.2 813.067 587.067 809.333 588.533C804 590.8 803.733 593.467 808.8 594.667C810.933 595.2 812.8 597.333 814.533 601.067C817.867 608.133 821.6 608.267 823.867 601.333C824.933 598 826.8 596 830.4 594.267C836.4 591.333 836.667 589.867 831.333 588.667C827.333 587.733 822.8 583.2 821.333 578.533C820 574.667 818.667 575.467 816.4 581.2Z" fill="#4A4A4A"/>
<path d="M667.333 587.2C667.333 587.467 668.4 588.533 669.733 589.467C671.733 591.2 671.867 591.067 670.133 588.933C668.4 586.8 667.333 586.133 667.333 587.2Z" fill="#4A4A4A"/>
<path d="M36.4 663.6L26 664.133L25.7334 711.467L25.3334 758.8L36.9334 758.4L48.6667 758V739.6V721.333H65.0667C74 721.333 82.1334 721.867 83.2 722.533C84.8 723.467 84.9334 726.933 84.2667 740.933L83.4667 758L95.3334 758.267L107.333 758.533V713.333C107.333 688.533 107.733 667.333 108.133 666.133C108.8 664.267 107.333 664 96.4 664H83.7334L84.4 682L85.0667 700H66.8H48.6667V681.333C48.6667 671.067 48.2667 662.8 47.7334 662.933C47.0667 663.067 42 663.467 36.4 663.6Z" fill="#4A4A4A"/>
<path d="M128.933 663.733L115.333 664.133L119.2 669.067C121.467 671.733 128.133 682.133 134.133 692C154 724.667 152 719.333 151.6 740.267L151.067 758.667H163.2C174.8 758.667 175.2 758.533 175.067 755.6C174.933 754 174.933 745.733 175.067 737.2L175.333 721.867L186.4 703.2C192.533 693.067 200.933 679.867 205.067 674.133C209.2 668.267 212.4 663.333 212.133 663.067C212 662.8 205.333 663.067 197.6 663.6L183.333 664.4L174.533 680.267C169.6 688.933 165.2 696.4 164.533 696.8C163.867 697.067 161.867 694.4 160.133 690.8C158.267 687.2 154 680.4 150.667 675.6C147.333 670.8 144.667 666.267 144.667 665.6C144.667 663.467 143.733 663.333 128.933 663.733Z" fill="#4A4A4A"/>
<path d="M221.2 663.867C220.933 664.133 220.667 685.6 220.667 711.467V758.4L233.467 758.133L246.133 758L245.867 752.667C245.733 749.733 245.733 743.6 245.867 739.2L246 730.933L261.733 730.4C279.467 729.733 284.4 727.867 292.933 719.067C299.333 712.4 302 705.867 302 696.4C302 686.8 298.667 679.467 292 673.467C282.8 665.467 280.133 664.8 249.6 664C234.267 663.6 221.467 663.6 221.2 663.867ZM274.267 689.333C277.733 692.933 278.267 694.133 277.6 698.4C276.267 706.4 273.067 708 257.867 708H244.667V696.667V685.333H257.467C269.867 685.333 270.267 685.467 274.267 689.333Z" fill="#4A4A4A"/>
<path d="M523.867 664.8C516.4 667.467 507.467 675.333 504.533 681.867C501.2 689.2 501.333 699.467 504.667 704.933C507.867 710.267 516.8 716.933 523.2 718.667C525.867 719.333 533.067 720.4 539.333 720.933C548.533 721.6 551.067 722.267 553.6 724.8C555.333 726.533 556.667 729.067 556.667 730.533C556.667 734.933 552 736.4 538.8 735.733C529.333 735.333 525.067 734.4 519.067 731.733C514.533 729.6 511.333 728.8 511.333 729.6C511.333 730.533 508.667 734.667 505.333 738.8C498.4 747.733 497.467 746.267 515.333 753.733C548.133 767.2 578.8 756.133 580.4 730.133C580.8 722.8 580.4 721.333 576.8 716C571.467 707.867 565.733 705.067 546.933 700.667C538.4 698.667 530 696 528.533 694.8L525.867 692.667L528.533 689.067C530.133 687.067 533.067 685.333 535.6 684.933C541.733 684 555.067 686.267 561.333 689.333C564.133 690.8 567.067 691.467 567.6 690.933C569.2 689.333 578 674.4 578 673.333C578 672.667 573.333 670.267 567.733 667.867C558.4 663.867 555.867 663.333 543.333 663.067C533.467 662.8 527.733 663.333 523.867 664.8Z" fill="#4A4A4A"/>
<path d="M710 668.8C708.933 672.4 706.133 679.867 703.6 685.333C701.067 690.8 696.133 702.8 692.4 712C688.667 721.2 683.467 734 680.667 740.667C672.667 759.867 672 758.133 686.8 757.6C699.2 757.2 699.467 757.067 700.8 753.6C703.333 746.8 708.933 738.267 709.867 739.733C710.4 740.667 717.333 741.333 728 741.6L745.333 742L747.6 746.667C748.8 749.2 749.867 752.667 750 754.267C750 757.2 750.4 757.333 764.8 757.333C776.533 757.333 779.333 756.933 778.267 755.6C777.067 754.133 739.6 672 737.6 666.267C737.067 664.8 735.333 664 732.267 664C729.733 664 724.133 663.6 719.733 663.2L711.733 662.267L710 668.8ZM731.2 707.067C734.267 714.933 736.667 721.6 736.667 722C736.667 722.4 733.867 722.667 730.4 722.667C726.8 722.667 721.733 723.2 718.933 723.867C714.133 725.067 714 724.933 714.667 722.267C716.667 715.6 725.067 692 725.467 692.267C725.6 692.533 728.267 699.067 731.2 707.067Z" fill="#4A4A4A"/>
<path d="M812.4 665.2C792.933 672.933 782 690.4 782 714C782 730.667 791.067 744.133 808.8 754C815.6 757.733 816.933 758 830.667 758C844 758 845.867 757.733 852 754.4C855.733 752.533 861.6 748.267 865.2 744.933L871.867 739.067L864.4 733.6C860.267 730.533 856.4 727.467 856 726.533C855.333 725.6 854.133 726 852.133 727.867C844.667 734.933 828.933 736.933 819.333 732C803.333 723.867 801.467 700.933 816.133 689.867C820.667 686.4 822.133 686 831.2 686C840 686.133 842.4 686.667 848.933 690.267L856.667 694.4L861.6 689.467C864.4 686.667 867.867 683.733 869.333 682.933C870.8 682.133 871.733 681.333 871.333 680.933C854.267 666.4 845.733 662.667 829.6 662.667C822.267 662.8 816.533 663.6 812.4 665.2Z" fill="#4A4A4A"/>
<path d="M314.267 706.4C314 729.6 313.6 750.8 313.2 753.467L312.533 758.267L349.867 758.133L387.333 758V746.267V734.667L370.4 734.533C360.933 734.4 349.733 734 345.333 733.467L337.333 732.667L336.933 727.333L336.533 722H342.267C345.467 722 354.133 721.733 361.733 721.6L375.333 721.333V711.467V701.6L356.667 700.667L338 699.6V693.333V686.933L349.467 686C355.867 685.467 366.533 685.333 373.467 685.6L385.867 686.267L386.267 675.2L386.667 664H350.667H314.667L314.267 706.4Z" fill="#4A4A4A"/>
<path d="M402.933 710.933L403.333 758L406.667 757.867C408.533 757.867 414 757.733 418.8 757.6L427.6 757.333L426.667 744.133L425.733 731.067L432.133 730.267C437.467 729.733 439.2 730 441.467 732.267C445.6 736 459.333 755.333 459.333 757.333C459.333 758.4 460.4 758.667 462.4 758.133C464 757.733 471.2 757.333 478.4 757.333H491.6L485.6 750.267C478.8 742.133 470 729.6 470 727.867C470 727.2 472 724.8 474.533 722.667C482.8 715.333 487.067 702 485.333 688.933C484.533 682.8 483.6 681.2 477.333 675.067C467.067 665.067 462.4 664 429.467 664H402.667L402.933 710.933ZM458.133 689.2C460.4 691.6 462 694.533 462 696.667C462 698.8 460.4 701.733 458.133 704.133C454.267 707.867 453.867 708 440.8 708H427.333V697.467C427.333 685.2 426.4 685.867 444.4 685.467C453.6 685.333 454.4 685.6 458.133 689.2Z" fill="#4A4A4A"/>
<path d="M596.8 710.533V757.333H609.067H621.333L620.933 750.4C620.8 746.533 621.067 740.667 621.6 737.333L622.667 731.333L638 730.533C655.333 729.733 662.267 727.467 669.867 719.867C675.867 713.867 678 708.4 678 699.067C678 688.267 675.867 682 670.4 675.867C660.933 665.333 658.4 664.8 625.733 664.267L596.8 663.733V710.533ZM650.933 689.867C654.933 694.667 654.933 700.533 650.667 704.667C647.733 707.733 646.533 708 634 708H620.667V697.467V686.8L626.4 686.267C629.467 685.867 635.6 685.733 639.867 685.867C646.667 686.133 648.133 686.667 650.933 689.867Z" fill="#4A4A4A"/>
<path d="M883.867 666.133C884.267 667.333 884.667 688.4 884.667 713.067V758L921.333 758.267L958 758.667V746.667V734.667H933.333H908.667V728V721.333H927.867H947.067L947.867 717.2C948.267 714.933 948.667 710.4 948.667 707.2C948.667 700 948.8 700.133 925.333 699.6L908 699.333L907.6 692.933L907.2 686.667H932.667H958L957.733 675.333L957.333 664H920.133C886.933 664 883.067 664.267 883.867 666.133Z" fill="#4A4A4A"/>
<path d="M280.4 797.467L280 813.733L267.6 798.133L255.2 782.667H246.4H237.733L238.533 786.8C238.933 789.067 239.333 803.867 239.333 819.467V848H247.467H255.6L255.067 829.467C254.533 806.933 254.267 806.933 271.6 830.933C279.2 841.333 284.667 847.6 285.733 847.333C286.8 846.933 289.467 846.667 291.733 846.667H296L295.6 815.067C295.333 797.6 295.067 783.333 294.933 783.2C294.8 783.067 291.6 782.533 287.733 782L280.8 781.067L280.4 797.467Z" fill="#4A4A4A"/>
<path d="M27.3334 790.267V797.333H36.5334H45.8667L46.8 804.8C47.2 808.933 47.3334 820.267 47.0667 830.133L46.4 848H54.5334H62.6667L62.2667 823.333L61.8667 798.667H71.8667H82V790.933V783.333H54.6667H27.3334V790.267Z" fill="#4A4A4A"/>
<path d="M94 805.6C94.5334 826.4 94.9334 829.2 97.6 833.333C103.867 843.333 112 848 123.6 848C133.2 848 140.933 844 146.4 836.267L150.667 830V806.4V782.667H143.067H135.333V803.467V824.267L131.467 828.133C129.333 830.267 126.133 832 124.4 832C120 832 112.8 827.2 111.333 823.2C110.533 821.333 110 811.467 110 801.2V782.667H101.733H93.3334L94 805.6Z" fill="#4A4A4A"/>
<path d="M168.133 783.6C165.867 784.267 165.733 785.2 166.533 797.2C166.933 804.267 167.333 818.533 167.333 828.933V848H175.067H182.667L182.267 833.6C182 825.733 182.4 818 182.933 816.4C184 813.6 184.667 814.267 190.933 823.733C194.667 829.333 200.667 837.2 204 840.933C209.733 847.467 210.667 848 216.133 848H222.133L221.733 815.333L221.333 782.667H213.467H205.733L206.133 798C206.4 806.4 206.4 813.333 205.867 813.333C205.467 813.333 203.733 811.333 202 808.933C200.267 806.667 194.267 799.733 188.8 793.6C178.4 782.267 176.667 781.467 168.133 783.6Z" fill="#4A4A4A"/>
<path d="M310.4 806C310.933 818.4 311.333 833.067 311.333 838.267V848H334H356.533L355.733 840.933C355.333 837.2 354.8 833.733 354.533 833.6C354.4 833.333 348.133 832.8 340.8 832.4L327.333 831.6V826.533V821.333H337.867H348.4L348.933 815.2C349.2 811.867 349.067 808.933 348.8 808.533C348.533 808.267 343.2 808 337.2 808C326.4 808 326 807.867 325.2 804.667C323.467 797.867 324.667 797.333 341.2 797.333H356.667L355.733 790.933C355.333 787.467 354.933 784.533 354.8 784.4C354.667 784.267 344.533 784 332.133 783.733L309.6 783.333L310.4 806Z" fill="#4A4A4A"/>
<path d="M369.333 795.733C369.333 802.8 369.067 817.333 368.8 828L368.4 847.333H391.867H415.333V839.867C415.333 834.133 414.8 832.133 413.2 831.467C412 831.067 405.067 830.667 397.733 830.667H384.267L385.2 811.6C385.733 801.2 386.4 790.533 386.8 788L387.467 783.333L378.4 783.067L369.333 782.8V795.733Z" fill="#4A4A4A"/>
<path d="M423.333 814.667V846.533L446.667 846.933L470 847.333V839.733V832.133L462.667 831.333C458.533 830.8 452 830.667 448 830.933C439.2 831.733 439.867 833.333 438.533 803.6L437.733 782.667H430.533H423.333V814.667Z" fill="#4A4A4A"/>
<path d="M482 809.2C482 823.733 481.6 838.4 481.2 841.867C480.4 847.067 480.667 848 482.4 847.333C483.467 846.8 487.467 847.067 491.333 847.733L498.4 849.067L497.467 830.933C497.067 821.067 496.667 806.133 496.667 797.733V782.667H489.333H482V809.2Z" fill="#4A4A4A"/>
<path d="M514.533 788.667C514.133 792 514 806.533 514.4 821.067L515.2 847.333L522.533 847.733L530 848.133V831.333C530 821.333 530.533 814.667 531.333 814.667C532 814.667 537.867 821.733 544.267 830.267C550.667 838.933 556.4 846.267 556.933 846.667C557.333 847.067 560.933 847.333 564.667 847.333H571.6L571.867 815.067L572 782.667H564.4H556.667L556.533 796.933C556.4 804.933 556 813.067 555.467 815.333L554.667 819.333L550.8 812.667C545.867 804.133 535.067 790.533 529.867 786C527.067 783.733 524.267 782.667 520.667 782.667C515.6 782.667 515.467 782.8 514.533 788.667Z" fill="#4A4A4A"/>
<path d="M606.533 785.2C593.333 791.2 586 801.6 586 814.4C586 842.667 619.733 858.267 642.933 840.533L647.467 837.067L647.067 823.733L646.667 810.267L632.933 810.133C619.867 810 619.333 810.133 619.333 812.8C619.333 814.4 618.933 817.6 618.533 819.867L617.733 824H625.2C631.6 824 632.667 824.4 632.667 826.533C632.667 835.733 610.933 833.733 604.933 824C602.4 819.733 601.6 810.4 603.6 806.667C606.267 801.733 613.6 797.333 619.333 797.333C622.533 797.333 626.133 798.667 629.467 800.8L634.533 804.267L637.2 800.533C638.8 798.4 640.933 795.867 642.267 794.8C644.267 793.067 644.267 792.667 641.333 790.4C631.6 782.8 616.8 780.533 606.533 785.2Z" fill="#4A4A4A"/>
<path d="M710.8 785.867C703.467 789.6 696.133 796.133 692.933 802C690.133 807.333 690.133 822 693.067 827.467C699.2 839.333 709.6 846.533 722 847.6C728.667 848.267 730.933 847.867 736.933 844.933C740.8 842.933 745.6 840 747.6 838.4L751.2 835.333L745.2 830.133L739.2 824.933L735.467 828.533C728.133 835.6 713.733 831.867 708.267 821.333C700.533 806.133 720 790.8 734.533 800.667L739.6 804.133L744.8 798.8L750.133 793.6L745.733 790.267C734.267 781.6 722.533 780.267 710.8 785.867Z" fill="#4A4A4A"/>
<path d="M777.067 785.867C766.4 790.8 759.867 798.267 758 807.333C755.467 819.733 758.933 830.533 768 838.4C774.933 844.533 780.133 846.933 788.533 847.6C797.467 848.4 803.733 846 811.467 839.067C825.333 826.533 826.933 807.467 815.2 794.133C804.933 782.533 790.933 779.467 777.067 785.867ZM798 798.667C801.333 800.4 807.333 810.667 807.333 814.533C807.333 818.133 800.267 828.667 796.667 830.667C790.267 834 779.2 830.267 775.733 823.467C772.933 818.133 772.933 809.333 775.733 805.333C780.667 798.267 791.333 795.067 798 798.667Z" fill="#4A4A4A"/>
<path d="M906.267 814.933L906.667 846.667H912C914.933 846.667 918.667 847.067 920.4 847.467C923.467 848.4 923.467 848.267 923.2 838.533L922.933 828.667L934.133 828C953.867 826.667 962.267 818.533 960 802.933C959.333 797.867 958 795.6 953.2 791.067C946.533 784.533 944.933 784.267 922.267 783.733L906 783.333L906.267 814.933ZM941.467 800.667C943.733 803.733 943.867 809.6 941.733 811.733C940.8 812.667 936.4 813.333 931.067 813.333H922V806.267C922 802.267 922.4 798.667 923.067 798.133C923.6 797.6 927.467 797.333 931.867 797.6C937.467 798 940.133 798.933 941.467 800.667Z" fill="#4A4A4A"/>
<path d="M836.933 815.6L837.067 847.333H845.867H854.667L854.267 837.6C853.867 828.8 854 828 856.4 828C858.8 828 872 841.867 873.6 846.133C874.267 848 889.6 848.4 890.8 846.533C891.2 845.867 889.467 842.667 886.933 839.6C878.667 829.467 878.533 828.667 884.133 823.733C897.067 812.4 895.333 794.4 880.667 786.933C875.333 784.267 872.8 784 855.733 784H836.667L836.933 815.6ZM874.8 800.667C877.2 804 877.2 808.533 874.667 810.667C873.467 811.6 868.133 812.667 862.667 813.067L852.667 813.733V807.6C852.667 797.333 853.067 796.933 863.733 797.6C870.8 798 873.333 798.667 874.8 800.667Z" fill="#4A4A4A"/>
<path d="M858.667 893.867C822 894.4 760.8 895.067 722.667 895.2C583.067 895.467 529.6 896 530.533 896.933C531.067 897.467 549.333 898 571.067 898.133C592.8 898.133 616.4 898.4 623.333 898.667L636 899.2L626 900C613.467 900.933 872.133 900.267 917.733 899.2L951.333 898.4V895.067C951.333 891.867 951.333 891.867 938.4 892.267C931.2 892.533 895.333 893.2 858.667 893.867Z" fill="#4A4A4A"/>
<path d="M39.3334 895.6C39.3334 898.267 40.2667 898.4 55.7334 899.067C64.6667 899.467 119.733 899.733 178 899.6C236.267 899.333 313.733 899.733 350 900.4C400.533 901.333 419.867 901.2 432.667 899.867C451.067 898.133 494 897.467 494 898.933C494 900.4 499.067 900.267 500 898.8C500.4 898 498.133 897.2 495.067 896.8C491.867 896.4 434.4 895.733 367.333 895.333C300.267 894.933 198.933 894.267 142.4 893.733L39.3334 892.933V895.6Z" fill="#4A4A4A"/>
<path d="M513.333 897.333C517.067 897.867 518.533 898.4 516.8 898.4C515.067 898.533 513.867 899.067 514.4 899.467C514.8 900 518.133 899.867 521.6 899.333C527.2 898.4 527.6 898.133 524.667 897.2C522.8 896.667 518 896.267 514 896.4H506.667L513.333 897.333Z" fill="#4A4A4A"/>
<path d="M488.4 900.933C489.333 901.333 490.533 901.2 490.933 900.8C491.467 900.4 490.667 900 489.2 900.133C487.733 900.133 487.333 900.533 488.4 900.933Z" fill="#4A4A4A"/>
</svg>
