<svg width="1773" height="497" viewBox="0 0 1773 497" fill="none" xmlns="http://www.w3.org/2000/svg">
<path d="M348.911 0.568833C335.957 1.70744 308.389 7.91797 290.356 13.7145C280.821 16.8198 270.146 21.3742 259.161 26.9637C197.289 58.6376 154.175 105.838 128.162 170.324C121.115 187.817 117.695 199.1 114.171 216.386C104.844 262.758 105.984 299.504 118.316 343.289C127.126 374.445 144.019 408.189 164.954 436.343C174.488 448.972 181.121 456.114 200.294 474.124C219.26 491.928 224.649 495.861 227.655 494.309C228.795 493.688 236.671 492.756 245.066 492.135C253.461 491.618 263.825 490.893 268.074 490.479L275.847 489.961L271.183 488.098C266.519 486.235 266.001 485.303 267.659 481.474C268.385 479.714 268.177 479.714 266.208 481.681C264.965 482.923 263.617 483.958 263.203 483.958C260.301 483.958 235.22 465.016 221.436 452.387C209.414 441.622 204.647 436.551 195.009 424.44C190.863 419.264 186.2 413.675 184.541 412.019C181.225 408.396 170.861 391.42 170.032 387.901C169.617 386.659 168.996 385.624 168.477 385.624C167.441 385.624 167.13 384.899 159.254 366.475C156.352 359.643 153.346 352.811 152.517 351.362C150.133 347.015 142.775 319.999 140.391 306.543C137.282 289.05 137.282 256.651 140.495 236.674C142.775 222.079 144.537 214.833 145.884 214.833C146.299 214.833 146.402 214.005 146.092 212.97C145.573 210.9 147.646 201.791 151.17 191.026C152.31 187.3 157.388 175.914 162.363 165.666C170.032 149.622 175.836 139.685 190.241 118.156C193.661 112.877 218.535 87.9308 228.691 79.5465C232.94 76.0272 241.957 69.6096 248.693 65.2622C260.612 57.706 287.454 44.0428 290.356 44.0428C291.185 44.0428 292.118 43.6287 292.429 43.0077C293.672 40.9375 322.898 32.9673 337.926 30.5865C358.343 27.3777 372.334 26.5497 393.994 27.4813C412.442 28.2058 417.831 28.8269 429.749 31.5181C466.748 39.9024 486.128 48.0797 516.287 67.9535C536.186 81.0992 548 91.4501 564.168 109.978C574.117 121.364 574.635 122.192 573.081 123.952C571.319 125.919 572.666 126.54 574.532 124.677C575.361 123.849 576.086 124.159 577.226 125.919C606.556 172.808 618.578 208.105 621.687 257.065C623.345 282.011 621.791 301.471 616.816 320.827C614.951 328.383 612.36 337.285 611.116 340.597C609.769 344.013 607.074 351.673 604.898 357.676C599.198 373.824 585.725 399.08 575.465 412.433C554.115 440.587 523.024 469.57 500.327 482.405C494.834 485.51 489.03 488.926 487.476 489.961L484.47 491.928L502.503 492.549C515.665 492.963 522.195 493.584 527.169 495.033L533.906 497L546.86 485.614C572.459 463.256 586.968 447.833 602.411 426.51C610.805 414.917 615.054 407.878 623.242 391.524C637.544 363.059 644.799 339.562 650.602 302.299C652.675 289.464 652.364 254.167 650.188 238.123C648.322 224.667 643.14 198.893 641.068 192.061C638.062 182.228 628.942 159.456 624.9 151.175C596.503 94.2448 559.712 56.8779 503.332 27.6883C477.837 14.5426 451.617 6.36534 420.525 2.01794C407.571 0.258283 363.11 -0.67328 348.911 0.568833ZM381.557 6.67587C381.868 7.71096 383.527 9.16012 385.185 9.88468C388.916 11.4373 389.019 12.0584 386.118 13.818C384.459 14.8531 384.148 15.7847 384.667 17.9584C385.185 20.2356 385.081 20.5461 384.045 19.4075C383.319 18.7865 381.454 18.1654 380.003 18.1654C378.552 18.1654 376.686 18.7865 375.961 19.4075C374.821 20.5461 374.717 20.3391 375.236 18.5795C375.546 17.4409 375.236 15.6812 374.303 14.4391C372.334 11.8513 372.334 11.1268 374.614 10.4022C375.754 10.0917 377.101 8.64254 377.723 7.29691C379.174 4.19163 380.625 3.98462 381.557 6.67587ZM478.459 28.9304C479.806 31.4146 479.806 31.8287 478.459 32.6567C476.179 34.1059 475.557 33.8989 473.692 31.1041C472.345 28.9304 472.241 28.2059 473.277 26.9637C475.039 24.8935 476.49 25.4111 478.459 28.9304ZM288.179 28.1023C289.838 32.4497 288.283 34.7269 283.516 34.7269C281.028 34.7269 280.821 31.0006 283.308 28.3094C285.381 26.0322 287.35 25.9286 288.179 28.1023ZM543.233 67.3324C543.233 70.7482 541.057 71.5763 539.295 68.7815C537.844 66.5043 539.191 63.5025 541.368 63.9166C542.715 64.1236 543.233 65.2622 543.233 67.3324ZM224.338 65.9868C223.613 67.9535 220.4 68.264 220.4 66.4008C220.4 65.3657 221.333 64.7446 222.577 64.7446C223.82 64.7446 224.546 65.2622 224.338 65.9868ZM571.734 92.7957C571.734 94.9694 571.63 95.0729 569.246 94.1413C567.277 93.4168 567.07 91.0361 568.935 90.3115C570.801 89.6904 571.734 90.5185 571.734 92.7957ZM179.463 111.738C179.463 115.464 176.768 117.534 174.385 115.568C172.208 113.705 172.312 110.703 174.592 109.357C177.598 107.598 179.463 108.529 179.463 111.738ZM588.316 110.806C589.87 112.773 588.005 115.464 585.103 115.464C583.03 115.464 580.543 111.841 581.579 110.289C582.512 108.736 586.865 109.047 588.316 110.806ZM605.001 138.236C607.074 139.375 607.696 142.894 605.934 143.929C602.825 145.793 598.576 141.342 600.856 138.65C602.307 136.891 602.41 136.891 605.001 138.236ZM162.052 139.375C164.332 141.652 159.875 147.656 157.077 145.896C156.041 145.275 155.834 139.996 156.87 138.961C157.906 137.822 160.808 138.133 162.052 139.375ZM142.879 175.189C145.159 177.259 145.262 178.398 142.982 180.882C140.702 183.47 138.837 183.263 136.764 180.054C135.106 177.466 135.106 177.259 137.593 175.396C140.599 173.016 140.495 173.016 142.879 175.189ZM624.693 175.5L627.18 177.57L624.175 180.158L621.273 182.849L618.785 180.158C615.78 176.949 615.78 176.638 618.164 174.879C620.651 173.016 621.894 173.119 624.693 175.5ZM129.198 225.702C131.064 227.876 129.717 230.36 126.608 230.36C124.535 230.36 124.017 229.842 124.017 227.979C124.017 223.942 126.711 222.804 129.198 225.702ZM638.062 229.325C638.062 229.842 637.544 230.36 636.922 230.36C636.404 230.36 636.197 229.842 636.507 229.325C636.818 228.704 637.337 228.29 637.647 228.29C637.855 228.29 638.062 228.704 638.062 229.325ZM645.109 274.248L648.115 274.972L643.969 279.009C641.689 281.286 639.306 283.15 638.58 283.15C637.958 283.15 635.678 281.286 633.606 279.009C630.496 275.49 630.186 274.869 631.947 274.869C633.191 274.869 634.849 273.42 636.197 271.142L638.373 267.52L640.238 270.625C641.275 272.385 643.244 273.937 645.109 274.248ZM124.017 272.281C124.742 273.73 126.297 274.869 127.333 274.869C130.028 274.869 129.717 275.904 125.468 280.251C121.84 284.081 119.871 285.116 119.871 283.15C119.871 282.632 118.42 280.562 116.658 278.492L113.445 274.869H116.14C118.006 274.869 119.249 274.041 120.078 272.281C120.7 270.832 121.529 269.693 121.944 269.693C122.358 269.693 123.291 270.832 124.017 272.281ZM144.952 365.336C146.299 368.545 145.366 371.133 142.879 371.133C139.977 371.133 138.215 368.545 138.94 365.44C139.77 362.024 143.397 362.024 144.952 365.336ZM622.309 367.613C622.724 370.719 620.133 372.582 617.438 371.133C614.951 369.89 614.64 368.027 616.505 366.164C618.474 364.197 621.998 365.129 622.309 367.613ZM160.705 397.631C162.881 400.84 162.466 403.738 159.772 403.738C157.388 403.738 154.486 399.08 155.419 396.699C156.352 394.112 158.735 394.526 160.705 397.631ZM606.452 398.873C607.385 401.357 603.136 404.773 601.167 403.117C599.301 401.564 599.301 400.219 601.374 397.941C603.24 395.871 605.416 396.285 606.452 398.873ZM180.085 425.164C181.432 427.752 179.463 430.34 176.458 429.926C174.903 429.719 174.177 428.684 173.97 426.614C173.348 421.749 177.701 420.714 180.085 425.164ZM586.865 427.649C587.694 430.754 586.243 432.514 583.548 431.996C582.201 431.789 581.476 430.65 581.268 428.27C580.957 425.371 581.268 424.957 583.548 424.957C585.517 424.957 586.347 425.682 586.865 427.649ZM193.247 441.105C195.838 442.865 196.252 445.866 193.972 447.73C190.345 450.731 185.992 446.591 188.065 442.14C189.516 439.035 190.138 438.828 193.247 441.105ZM572.874 443.175C573.806 444.314 573.91 445.245 573.081 446.487C571.734 448.765 568.624 448.765 567.277 446.591C564.79 442.658 569.868 439.552 572.874 443.175ZM211.487 460.772C212.42 461.082 213.145 462.531 213.145 463.773C213.145 465.119 213.767 466.465 214.493 466.775C215.115 467.086 214.182 467.189 212.213 467.086C208.378 466.879 206.202 464.498 207.238 461.807C207.964 460.047 208.896 459.737 211.487 460.772ZM555.151 463.773C555.151 464.602 554.219 465.326 553.079 465.326C550.799 465.326 550.28 463.773 552.353 462.945C554.53 462.014 555.151 462.221 555.151 463.773ZM542.715 473.089C543.751 474.331 543.751 474.952 542.715 476.195C541.057 478.265 538.984 478.161 538.155 476.091C537.533 474.435 539.088 471.537 540.642 471.537C541.057 471.537 541.989 472.261 542.715 473.089Z" fill="#4A4A4A"/>
<path d="M368.949 65.4522C359.335 68.4558 354.063 75.6021 349.618 91.3447C346.931 101.08 338.868 126.662 335.456 136.398C333.699 141.265 331.012 149.655 329.461 155.04C327.807 160.426 325.636 167.158 324.499 170.058C322.638 174.822 319.124 188.597 317.47 197.711C316.643 202.786 313.025 205.997 293.901 218.632C266.198 236.861 256.274 242.35 233.326 251.878C226.194 254.882 211.101 261.199 199.731 266.067C188.36 270.831 175.852 276.217 171.82 277.874C167.892 279.428 163.034 282.224 161.07 283.985C157.865 286.988 157.659 287.61 158.279 291.131C158.796 293.824 159.933 295.481 162.104 296.828C163.861 297.967 180.297 303.767 198.49 309.774C216.787 315.884 239.012 323.859 247.798 327.588C256.585 331.316 267.542 335.77 272.09 337.427C285.322 342.398 299.483 348.82 299.69 350.166C299.794 350.787 299.897 357.105 300 364.252C300 377.094 300 377.198 302.481 377.508C304.859 377.923 304.859 378.13 304.238 384.448L303.618 390.973L309.2 400.087C316.54 412.101 320.571 415.415 327.704 415.415C338.764 415.312 346.104 408.787 351.272 394.08C353.133 389.005 354.89 384.966 355.407 384.966C355.821 384.966 356.337 392.837 356.544 402.572L356.854 420.179L360.679 423.286C363.883 425.979 365.021 428.154 368.638 439.133C371.016 446.072 373.6 455.497 374.427 460.054C375.978 468.132 378.149 473 380.113 473C381.87 473 384.247 465.75 388.899 446.693C393.344 428.258 393.447 428.154 397.686 424.426C401.924 420.801 402.027 420.386 402.854 412.412C403.371 407.854 403.474 399.672 403.268 394.287L402.751 384.448L405.645 392.837C410.71 407.44 418.98 414.897 430.247 415.001C436.76 415.001 439.861 413.033 445.856 405.058C452.989 395.53 454.54 391.594 454.54 383.101C454.54 376.369 454.746 375.644 456.607 375.644C458.571 375.644 458.674 374.919 458.674 364.459C458.674 358.348 458.985 352.341 459.295 351.098C459.708 349.441 462.396 347.784 469.322 344.78C474.594 342.502 479.969 340.327 481.416 339.913C482.863 339.498 490.409 336.184 498.265 332.559C506.122 328.831 515.632 324.688 519.353 323.238C523.178 321.891 526.692 320.338 527.313 319.82C528.45 318.888 536.306 316.092 569.695 304.595C588.301 298.277 598.535 293.617 601.326 290.199C602.257 289.06 602.257 288.128 601.119 285.849C599.362 282.121 594.71 279.117 585.51 275.699C564.526 267.828 518.216 248.046 503.744 240.796C490.513 234.168 464.153 218.736 460.742 215.629C459.295 214.386 454.54 210.657 450.095 207.343C445.753 204.029 441.928 200.404 441.618 199.161C441.308 198.022 440.688 195.122 440.171 192.843C438.207 183.833 428.077 150.897 417.946 120.344C412.054 102.634 406.162 84.6127 404.922 80.2627C403.578 75.9128 401.614 71.3557 400.373 70.2164C397.376 67.42 385.074 63.8987 378.665 64.0022C375.771 64.0022 371.43 64.6237 368.949 65.4522ZM387.659 78.3985C387.969 79.5377 387.659 80.4699 387.142 80.4699C386.418 80.4699 386.212 83.8877 386.625 90.8269L387.142 101.08H378.872C374.324 101.08 370.396 101.287 370.086 101.598C369.776 101.909 369.879 103.67 370.396 105.534L371.43 108.952L379.906 109.262C386.315 109.469 388.382 109.262 388.382 108.227C388.382 105.845 390.553 98.9053 391.173 99.4232C391.483 99.7339 392.827 99.6303 394.171 99.1125C396.962 97.9732 396.755 97.2482 399.236 112.577C401.407 125.419 402.441 142.405 401.097 141.058C400.477 140.437 398.719 136.191 397.169 131.426C395.618 126.662 393.344 121.587 392 120.034C389.83 117.548 389.003 117.341 379.389 116.926L369.155 116.512L366.468 122.519C364.917 125.937 362.953 131.53 362.126 135.051C361.196 138.676 359.025 144.994 357.371 149.24C351.065 164.983 347.034 191.29 347.034 216.871V229.403L342.486 232.096C332.355 238 321.501 254.467 317.367 270.003C316.126 274.767 315.609 280.567 315.609 289.681C315.713 301.385 316.023 303.56 318.917 312.052C320.778 317.231 322.225 322.306 322.225 323.341C322.225 327.795 328.531 338.152 335.146 344.47C338.868 347.991 341.865 351.616 341.865 352.341C341.865 353.273 339.281 353.895 332.872 354.309C327.807 354.723 320.674 355.241 316.953 355.552L310.131 356.07L309.924 329.348C309.821 314.642 309.614 297.035 309.614 290.199C309.407 273.628 315.299 239.657 321.191 222.154C322.949 217.286 324.292 211.175 324.292 208.689C324.292 206.307 325.533 200.922 326.98 196.986C328.324 192.947 330.185 186.422 331.012 182.279C331.735 178.136 333.803 171.611 335.56 167.779C337.214 163.947 339.074 158.665 339.798 156.076C342.382 145.719 361.196 89.3769 363.78 84.302C367.398 77.0521 368.742 76.3271 378.459 76.3271C386.212 76.3271 387.142 76.5342 387.659 78.3985ZM389.003 134.844C393.654 150.69 398.719 170.886 398.719 173.683C398.719 177.618 395.101 181.761 391.07 182.59C389.106 182.901 382.594 182.693 376.391 182.176C366.054 181.243 365.021 181.036 362.746 178.343C360.576 175.754 360.369 174.822 360.989 170.161C362.023 163.015 370.809 132.358 372.773 129.251C373.807 127.698 380.113 126.144 384.144 126.351C386.212 126.558 386.832 127.594 389.003 134.844ZM410.09 155.558C410.09 156.076 409.573 155.869 409.056 155.04C408.54 154.212 408.023 152.969 408.023 152.451C408.023 151.83 408.54 152.14 409.056 152.969C409.573 153.797 410.09 154.937 410.09 155.558ZM412.364 164.362C412.881 164.362 413.191 165.087 412.881 165.812C412.468 166.847 412.778 167.158 413.812 166.744C414.535 166.433 415.259 165.812 415.259 165.294C415.259 164.776 416.189 164.362 417.326 164.362C418.67 164.362 419.394 165.087 419.394 166.433C419.394 167.572 419.807 168.504 420.221 168.504C421.254 168.504 425.079 179.276 427.043 188.183C427.87 191.911 429.731 198.125 431.178 202.165C432.522 206.1 433.659 209.518 433.555 209.622C433.452 209.622 428.387 209.518 422.391 209.207L411.434 208.586L410.4 185.697C409.883 173.165 409.677 161.876 409.987 160.737C410.504 158.976 410.607 159.183 410.917 161.462C411.124 163.119 411.744 164.362 412.364 164.362ZM417.016 162.497C416.706 163.326 416.396 163.015 416.396 161.876C416.292 160.737 416.603 160.115 416.913 160.529C417.223 160.84 417.326 161.772 417.016 162.497ZM401.614 205.065C402.234 221.118 402.131 223.293 400.787 222.775C399.96 222.464 393.861 221.739 387.349 221.325C375.047 220.393 363.47 221.221 359.542 223.293C356.958 224.743 357.061 224.95 357.371 203.718C357.578 192.429 359.025 178.447 359.335 184.765C359.542 189.322 363.16 190.358 379.699 190.565L394.998 190.772L397.686 186.111C400.787 180.518 400.58 179.276 401.614 205.065ZM436.14 223.396C439.034 231.786 447.097 264.721 447.924 271.246C448.441 275.285 448.234 277.253 447.304 277.771C446.373 278.288 446.27 277.874 446.787 276.217C447.2 274.767 447.097 274.146 446.477 274.56C445.96 274.871 445.236 273.731 444.823 272.074C442.342 259.232 432.522 244.835 418.98 233.753L412.158 228.264V222.671V217.079L423.218 217.389L434.176 217.7L436.14 223.396ZM309.924 227.953C307.443 233.961 304.755 245.664 301.034 266.896C298.967 278.288 298.553 284.503 298.45 300.245C298.45 315.159 298.14 319.716 297.209 319.716C295.659 319.716 282.531 314.849 263.821 307.288C237.358 296.724 210.481 287.92 208.31 289.267C207.897 289.578 207.483 290.82 207.483 292.063C207.483 294.756 213.582 297.449 228.158 301.177C236.427 303.352 244.697 306.563 263.304 314.642C267.542 316.506 277.362 320.131 285.012 322.824L298.967 327.691L299.277 331.938C299.483 334.32 299.277 336.288 298.863 336.288C298.553 336.288 294.108 334.423 289.043 332.145C283.978 329.866 279.429 328.002 278.913 328.002C277.879 328.002 241.079 312.259 235.394 309.359C229.605 306.46 195.596 294.963 184.949 292.27C179.677 290.924 175.025 289.578 174.612 289.267C173.681 288.231 175.542 286.885 181.124 284.71C200.764 277.046 237.461 261.821 245.214 258.299C257.412 252.603 274.364 243.178 294.832 230.543C303.928 224.95 311.578 220.807 311.681 221.429C311.888 221.946 311.061 224.95 309.924 227.953ZM461.362 230.232C464.463 232.303 466.944 234.271 466.944 234.789C466.944 235.203 470.769 237.275 475.524 239.45C480.176 241.625 485.241 244.214 486.688 245.25C494.958 251.05 542.612 272.074 566.18 280.36C573.519 282.846 579.618 286.471 579.618 288.231C579.618 289.37 572.072 292.788 569.591 292.788C568.868 292.788 561.115 295.17 552.225 298.07C543.335 300.97 535.789 303.145 535.582 302.835C535.272 302.524 536.099 302.006 537.443 301.592C539.717 300.867 546.023 298.174 551.708 295.585C554.189 294.342 557.91 291.235 557.91 290.199C557.91 289.888 556.67 289.888 555.119 290.303L552.225 290.924L554.809 288.749C556.256 287.61 558.324 286.471 559.461 286.263C560.598 286.056 559.668 286.056 557.394 286.263C547.47 287.299 510.36 299.313 498.886 305.217C490.409 309.567 474.594 316.609 473.146 316.609C472.63 316.609 472.113 306.977 471.803 295.067C471.596 283.26 470.665 268.76 469.735 262.753C468.908 256.746 467.874 249.6 467.564 246.803C466.944 242.039 467.048 241.832 468.701 243.282C469.735 244.11 471.286 245.25 472.113 245.664C476.351 248.046 470.355 242.764 463.74 238.31C456.194 233.236 452.472 229.403 452.472 226.814C452.472 224.846 454.23 225.468 461.362 230.232ZM391.38 231.164C415.465 237.378 431.385 255.71 434.796 280.878L435.623 286.574H431.901H428.18L426.94 280.36C424.562 267.724 417.74 257.782 406.369 250.325C396.859 244.11 384.558 240.485 375.668 241.314C367.605 242.039 353.856 248.667 347.034 255.089C340.832 260.889 335.456 271.349 333.492 281.085L332.252 287.61H327.807C322.638 287.61 322.638 287.713 324.396 277.253C326.36 265.032 334.216 250.221 342.899 242.35C346 239.553 363.056 230.957 366.674 230.336C372.773 229.3 386.005 229.714 391.38 231.164ZM375.978 257.782C380.009 264.41 378.252 272.074 371.326 278.081C363.367 285.124 357.164 283.571 349.722 272.489L347.654 269.589L346.31 273.006C345.483 274.871 344.863 279.738 344.863 283.778C344.656 305.113 360.576 321.27 381.663 321.166C395.722 321.063 408.333 312.363 413.191 299.21C415.052 294.342 415.362 291.649 415.052 283.985C414.742 276.114 414.122 273.524 411.331 267.517C406.886 258.092 410.4 260.785 415.362 270.728C418.67 277.253 418.877 278.288 418.877 288.128C418.877 297.76 418.67 299.002 415.465 305.424C408.85 318.991 396.239 326.552 380.63 326.345C361.816 326.138 348.274 315.884 342.796 297.656C340.212 289.37 340.522 276.942 343.313 272.592C345.38 269.485 351.376 265.032 350.549 267.31C349.308 270.521 351.169 268.967 352.513 265.549C354.994 259.749 363.367 254.467 369.982 254.467C373.29 254.467 374.221 254.985 375.978 257.782ZM435.106 292.685C436.346 293.824 433.142 308.738 430.351 314.538C425.492 324.895 423.012 327.07 399.443 342.295C387.762 349.752 364.917 349.545 355.717 341.88L352.719 339.395L356.647 340.948C361.196 342.813 361.713 342.191 357.474 339.913C355.717 339.084 349.618 334.631 343.933 329.97C334.319 322.409 333.079 320.959 329.874 314.124C326.67 307.392 323.259 294.445 324.396 293.41C324.603 293.203 326.773 292.788 329.047 292.478L333.389 291.96L333.906 296.413C334.94 306.46 345.173 322.513 353.65 327.484C367.191 335.459 381.973 338.048 393.654 334.631C411.744 329.245 422.701 316.817 426.733 297.242C428.077 290.82 428.077 290.82 431.178 291.442C432.935 291.753 434.692 292.27 435.106 292.685ZM495.371 315.47C494.027 316.609 486.998 318.991 488.032 317.956C488.445 317.438 490.306 316.609 492.063 315.884C496.198 314.331 496.508 314.331 495.371 315.47ZM485.964 320.234C485.241 321.891 481.416 322.409 481.416 320.856C481.416 320.027 483.07 319.199 485.758 318.784C486.171 318.784 486.274 319.406 485.964 320.234ZM448.131 343.123C448.544 356.587 448.544 357.209 446.683 356.587C445.546 356.277 440.171 355.966 434.692 355.759C429.11 355.655 424.562 355.345 424.562 355.137C424.562 354.93 426.836 352.237 429.524 349.234C432.315 346.23 436.553 340.327 439.034 336.184C446.58 323.341 447.51 324.066 448.131 343.123ZM462.292 334.216C462.603 334.734 462.396 335.252 461.879 335.252C461.259 335.252 460.742 334.734 460.742 334.216C460.742 333.595 460.949 333.181 461.155 333.181C461.465 333.181 461.982 333.595 462.292 334.216ZM365.434 355.345C374.014 358.452 383.421 358.348 396.445 355.241C398.719 354.723 398.719 354.827 398.719 364.666V374.609H378.562H358.405V366.53C358.405 358.244 359.128 353.895 360.472 353.895C360.886 353.895 363.16 354.516 365.434 355.345ZM339.798 366.219V370.155L334.423 370.88C326.256 371.812 311.061 371.605 310.441 370.569C310.027 370.051 310.234 368.394 310.854 366.944C311.785 364.459 312.301 364.252 318.814 364.148C322.742 364.044 328.427 363.734 331.528 363.216C334.63 362.802 337.834 362.387 338.558 362.284C339.385 362.18 339.798 363.63 339.798 366.219ZM445.03 366.116C447.717 369.534 446.477 370.155 435.209 370.776C429.007 371.191 421.254 371.812 417.946 372.123L411.847 372.848L412.571 369.326C413.708 363.527 415.155 363.009 430.247 363.837C440.688 364.355 443.996 364.873 445.03 366.116ZM337.524 381.237C336.18 385.587 334.836 386.001 323.052 386.001H313.955V381.858V377.716H326.256H338.558L337.524 381.237ZM437.794 381.444L438.104 384.655L426.733 385.38C420.427 385.794 414.845 385.898 414.225 385.483C413.088 384.758 412.778 379.476 413.915 378.337C414.328 378.026 419.807 377.819 426.009 377.923L437.483 378.233L437.794 381.444ZM443.169 382.376C443.169 383.826 442.755 384.966 442.239 384.966C441.825 384.966 441.618 383.826 441.928 382.376C442.135 380.926 442.549 379.787 442.755 379.787C442.962 379.787 443.169 380.926 443.169 382.376ZM383.007 391.594C383.214 396.151 382.904 400.19 382.387 400.708C381.767 401.33 377.632 401.951 372.98 402.262L364.607 402.883V393.458C364.607 382.583 364.194 382.998 375.461 383.205L382.697 383.412L383.007 391.594ZM437.07 393.251C439.861 394.805 439.551 397.083 435.933 400.708C433.038 403.505 432.212 403.815 428.387 403.297C425.389 402.883 423.322 401.847 421.668 399.88C418.05 395.737 418.98 393.873 425.079 393.148C433.555 392.112 434.899 392.215 437.07 393.251ZM338.041 395.219C340.832 398.015 333.596 404.644 327.91 404.644C322.742 404.644 317.367 395.737 321.501 393.873C323.465 392.94 336.904 394.08 338.041 395.219ZM386.832 414.483V417.59L379.389 417.901C370.706 418.211 367.708 417.072 367.708 413.447C367.708 410.858 367.708 410.858 377.322 411.065L386.832 411.376V414.483Z" fill="#4A4A4A"/>
<path d="M330.468 209.89C328.644 210.601 328 211.719 328 213.953C328 217 328.107 217 333.686 217C336.691 217 340.338 216.695 341.733 216.391C344.63 215.578 346.132 211.109 343.986 209.789C342.055 208.672 333.579 208.773 330.468 209.89Z" fill="#0088CC"/>
<path d="M376.655 132.698C375.716 134.248 369.77 154.409 367.475 163.403C364.658 174.776 364.658 174.776 378.637 175.706C392.095 176.637 394.285 175.603 393.973 168.986C393.66 162.68 384.688 134.972 382.497 133.215C380.515 131.871 377.385 131.56 376.655 132.698Z" fill="#0088CC"/>
<path d="M367 202V206H379.5H392V202V198H379.5H367V202Z" fill="#0088CC"/>
<path d="M373.081 209.9C370.195 210.4 369.498 211 369.299 213.2L369 216H379.95H391V212.5V209L383.833 209.1C379.851 209.2 374.973 209.5 373.081 209.9Z" fill="#0088CC"/>
<path d="M270.573 254.947C269.894 255.579 269.818 256 270.347 256C270.8 256 271.479 255.474 271.706 254.947C272.31 253.684 272.008 253.684 270.573 254.947Z" fill="#4A4A4A"/>
<path d="M252.618 277.172C252.309 278.797 252 282.758 252 286.008V292H269.411H286.72L287.441 288.141C288.265 282.961 288.162 276.563 287.235 275.039C286.72 274.125 281.775 273.922 269.824 274.024L253.236 274.227L252.618 277.172ZM271.575 281.641V285.399L266.424 285.602C261.478 285.906 261.272 285.805 261.272 283.063C261.272 279.102 262.406 277.985 266.424 277.578C271.266 277.071 271.575 277.375 271.575 281.641Z" fill="#0088CC"/>
<path d="M489.018 255.105C489.756 256.14 505.465 263.492 505.992 262.974C506.203 262.767 502.302 260.696 497.452 258.418C492.497 256.037 488.702 254.587 489.018 255.105Z" fill="#4A4A4A"/>
<path d="M512.638 267.417C513.369 268.414 514.309 269.113 514.726 268.814C515.144 268.514 516.501 268.814 517.753 269.512C520.363 270.809 526 272.405 526 271.906C526 271.208 520.05 268.414 515.457 266.918C511.594 265.621 511.49 265.621 512.638 267.417Z" fill="#4A4A4A"/>
<path d="M529.821 274.475C538.88 278.782 549.341 282.659 549.988 281.906C550.527 281.367 533.272 274.259 529.282 273.398C526.155 272.751 526.155 272.751 529.821 274.475Z" fill="#4A4A4A"/>
<path d="M477.588 274.538C476.159 275.153 475.853 276.793 476.057 283.965L476.159 292.674L484.324 292.777C488.814 292.777 495.141 293.186 498.407 293.596C502.285 294.211 504.735 294.109 505.449 293.391C506.061 292.777 506.163 289.19 505.755 283.453L505.041 274.538L499.734 275.256C491.671 276.28 489.937 277.407 489.732 282.326C489.63 285.707 489.528 285.297 489.018 280.379L488.406 274.231L483.813 274.026C481.262 273.924 478.506 274.129 477.588 274.538Z" fill="#0088CC"/>
<path d="M377.8 360.538C374.6 360.737 372 361.235 372 361.633C372.1 362.031 373.1 363.525 374.3 365.018C376 367.109 377.7 367.805 382.3 368.303L388 369V364.421C388 360.24 387.8 359.841 385.8 360.04C384.5 360.14 380.9 360.339 377.8 360.538Z" fill="#0088CC"/>
<path d="M268.115 78.3351C269.76 81.7903 271.791 85.5597 272.662 86.7115C273.533 87.8632 272.662 85.455 270.727 81.4762C268.792 77.3927 266.76 73.6233 266.18 73.0998C265.599 72.4716 266.47 74.8798 268.115 78.3351Z" fill="#4A4A4A"/>
<path d="M626.405 75.447C625.455 78.2369 624.293 79.0953 620.489 80.1683C614.996 81.7778 614.468 83.1728 619.327 83.602C622.285 83.9239 622.813 84.4604 623.659 87.8941C624.926 93.2592 627.884 93.3665 629.68 88.216C630.631 85.748 632.005 84.1385 634.012 83.4947C637.498 82.2071 638.132 78.988 634.857 79.6318C631.793 80.2756 629.575 79.2026 629.575 77.0566C629.575 76.0908 629.047 74.5886 628.518 73.7302C627.779 72.4426 627.356 72.7645 626.405 75.447Z" fill="#4A4A4A"/>
<path d="M134.512 78.732C133.532 80.2032 132.162 81.4641 131.378 81.4641C129.42 81.4641 129.518 82.1996 131.868 85.352C132.945 86.8231 133.826 88.9247 133.826 89.9755C133.826 93.5482 135.882 92.3923 139.995 86.5079C142.541 82.8301 142.541 82.62 140.68 81.9895C139.603 81.5692 138.135 80.0981 137.449 78.627L136.078 76L134.512 78.732Z" fill="#4A4A4A"/>
<path d="M275.574 92C276.085 93.1 276.681 94 276.936 94C277.106 94 276.936 93.1 276.426 92C275.915 90.9 275.319 90 275.064 90C274.894 90 275.064 90.9 275.574 92Z" fill="#4A4A4A"/>
<path d="M514.526 104.353C512.295 106.934 510.744 109 511.035 109C511.811 109 519.373 100.531 518.986 100.015C518.792 99.8084 516.756 101.771 514.526 104.353Z" fill="#4A4A4A"/>
<path d="M281.574 103C282.085 104.1 282.681 105 282.936 105C283.106 105 282.936 104.1 282.426 103C281.915 101.9 281.319 101 281.064 101C280.894 101 281.064 101.9 281.574 103Z" fill="#4A4A4A"/>
<path d="M101.734 116.785C100.98 118.801 99.5791 119.909 97.209 120.413C93.3307 121.219 93.0075 122.429 96.024 124.142C97.209 124.847 98.1786 126.46 98.1786 127.669C98.1786 130.088 99.6868 130.793 100.872 128.979C101.195 128.374 102.703 127.971 104.104 127.971C105.72 127.971 106.905 127.266 107.336 125.956C107.767 124.847 109.598 123.235 111.429 122.529C114.661 121.119 114.769 121.119 112.184 121.018C108.521 120.816 107.12 119.909 105.827 116.584C104.427 113.056 103.242 113.157 101.734 116.785Z" fill="#4A4A4A"/>
<path d="M653 122.6C653 124.5 655.912 126.9 658.2 127C660.072 127 662.672 123.3 661.84 122C661.424 121.4 659.344 121 657.056 121C654.04 121 653 121.4 653 122.6Z" fill="#4A4A4A"/>
<path d="M670.446 127.351C669.832 129.03 668.195 131.234 666.66 132.283L664 134.067L666.865 135.956C668.399 137.006 669.729 138.685 669.729 139.734C669.729 142.987 673.31 142.672 674.538 139.209C675.254 137.425 676.891 135.746 678.733 135.012C681.904 133.753 681.7 131.654 678.426 131.654C677.3 131.654 675.766 130.395 674.845 128.611C672.696 124.203 671.571 123.888 670.446 127.351Z" fill="#4A4A4A"/>
<path d="M202 134.379C202 134.581 202.799 135.389 203.797 136.096C205.294 137.408 205.394 137.307 204.096 135.692C202.799 134.076 202 133.571 202 134.379Z" fill="#4A4A4A"/>
<path d="M547.897 143.692C546.595 145.307 546.695 145.408 548.297 144.096C549.199 143.389 550 142.581 550 142.379C550 141.571 549.199 142.076 547.897 143.692Z" fill="#4A4A4A"/>
<path d="M538.706 151.563L535 155L539.553 151.849C541.988 150.035 544 148.507 544 148.316C544 147.362 541.988 148.603 538.706 151.563Z" fill="#4A4A4A"/>
<path d="M221 150.094C221 150.287 223.237 152.313 225.939 154.629C228.642 157.041 229.76 157.717 228.455 156.173C226.126 153.471 221 149.322 221 150.094Z" fill="#4A4A4A"/>
<path d="M696.484 170.615C696.081 172.123 694.771 173.732 693.36 174.436C690.539 175.743 690.136 178.156 692.756 178.961C693.763 179.363 695.275 181.073 696.182 182.782L697.693 186L699.507 182.883C700.515 181.073 702.228 179.464 703.236 179.263C705.654 178.559 705.553 176.95 703.135 176.246C702.027 176.045 700.313 174.034 699.205 171.922L697.19 168L696.484 170.615Z" fill="#4A4A4A"/>
<path d="M60.0379 171.419C60.0379 173.396 59.2134 174.228 56.4309 175.165C51.9994 176.622 51.8964 177.454 55.9156 179.015C57.9767 179.743 59.0073 180.888 59.0073 182.344C59.0073 185.778 60.9654 185.882 63.9541 182.656C65.4999 180.992 67.458 179.431 68.2825 179.015C69.5191 178.599 69.21 177.87 66.9427 176.101C65.2938 174.853 63.5418 172.772 63.0265 171.419C61.8929 168.194 60.0379 168.194 60.0379 171.419Z" fill="#4A4A4A"/>
<path d="M591.336 176.15C589.492 177.188 589.492 177.262 591.746 176.447C592.975 176.002 594 175.483 594 175.335C594 174.742 593.488 174.89 591.336 176.15Z" fill="#4A4A4A"/>
<path d="M19.6734 201.526C16.1168 201.944 14.0845 204.034 15.4055 206.124C16.3201 207.691 18.2508 207.169 21.9089 204.452C25.567 201.63 35.0172 200.481 33.493 203.093C32.9849 203.825 33.1881 203.929 34.2043 203.302C35.0172 202.884 36.2366 202.362 36.9479 202.257C37.7608 202.048 38.5737 201.735 38.9802 201.421C39.5899 200.794 25.9735 200.899 19.6734 201.526Z" fill="#708090"/>
<path d="M40 200.941C40 201.529 40.9333 202 42 202C43.0667 202 44 201.529 44 200.941C44 200.471 43.0667 200 42 200C40.9333 200 40 200.471 40 200.941Z" fill="#708090"/>
<path d="M46 201.091C46 201.745 47.1394 201.963 48.693 201.527C50.4539 201.091 51.6968 201.309 52.2147 202.181C52.7326 203.054 53.5612 203.163 54.3898 202.618C55.1149 202.181 57.7043 201.854 59.9831 201.963C64.1262 202.291 75.0019 205.345 76.0377 206.435C76.3484 206.763 78.0057 208.181 79.8701 209.49C82.5631 211.562 84.6347 211.998 90.9529 211.998C99.4463 211.998 99.032 212.325 100.379 204.036L101 200H73.4482C55.5292 200 46 200.436 46 201.091Z" fill="#708090"/>
<path d="M662.097 201.561L659 201.96L659.929 207.347C660.961 212.435 662.716 214.928 662.716 211.237C662.716 210.439 663.232 210.04 663.748 210.34C664.368 210.639 664.78 210.34 664.78 209.641C664.78 208.544 664.987 208.544 665.709 209.641C666.329 210.739 668.909 210.838 677.58 210.24C687.076 209.641 688.522 209.342 688.522 207.746C688.522 206.848 687.902 205.851 687.283 205.551C686.56 205.352 688.109 205.352 690.689 205.551C693.579 205.851 696.47 205.551 697.915 204.753C699.257 204.055 702.25 203.357 704.521 203.257C706.792 203.057 709.785 202.758 711.23 202.459C712.676 202.159 714.017 202.459 714.534 203.157C715.05 203.955 715.359 203.955 715.359 203.257C715.359 202.459 718.972 202.06 726.92 201.96C733.32 201.86 738.688 201.561 738.997 201.361C739.513 200.763 666.742 200.962 662.097 201.561Z" fill="#708090"/>
<path d="M60.0766 204.5C60.3074 205.25 60.846 206 61.3076 206C61.6923 206 62 205.25 62 204.5C62 203.6 61.4615 203 60.769 203C60.1536 203 59.8458 203.6 60.0766 204.5Z" fill="#708090"/>
<path d="M668.355 212.667C671.384 213.111 676.577 213.111 679.714 212.667C682.744 212.222 680.255 212 673.981 212C667.706 212 665.218 212.222 668.355 212.667Z" fill="#4A4A4A"/>
<path d="M663.412 226.304C663.721 228.696 664.03 231.183 664.338 231.852C664.647 232.809 674.531 233 711.182 233C736.715 232.904 757.305 232.617 756.997 232.235C756.585 231.948 754.835 231.757 752.981 231.852C751.128 231.948 748.348 231.661 746.598 231.183C744.024 230.417 743.921 230.322 745.878 230.226C748.04 230.13 749.275 228.217 747.113 228.217C744.951 228.217 746.083 224.391 748.451 224.009C749.687 223.722 751.643 223.339 752.775 223.148C754.629 222.765 743.407 222.574 684.723 222.191L663 222L663.412 226.304Z" fill="#708090"/>
<path d="M3.56843 224.9C3.25733 226.5 2.63515 229.1 2.32406 230.6C1.80557 232.6 1.90926 233.1 2.63515 232.1C3.36103 231.2 3.87952 231.1 4.29431 231.9C4.8128 232.7 18.2935 233 50.1287 233C77.1938 233 95.0297 232.6 94.7187 232.1C94.3039 231.6 94.5113 231 94.9261 230.8C95.4445 230.7 96.0667 228.6 96.4815 226.2L97 222H50.5435H4.19061L3.56843 224.9Z" fill="#708090"/>
<path d="M577.548 224.774C578.396 225.148 579.486 225.024 579.849 224.649C580.334 224.274 579.607 223.9 578.274 224.024C576.942 224.024 576.578 224.399 577.548 224.774Z" fill="#4A4A4A"/>
<path d="M573.365 225.774C573.93 226.148 574.657 226.024 574.9 225.649C575.223 225.274 574.738 224.9 573.85 225.024C572.961 225.024 572.719 225.399 573.365 225.774Z" fill="#4A4A4A"/>
<path d="M569.365 226.774C569.93 227.148 570.657 227.024 570.9 226.649C571.223 226.274 570.738 225.9 569.85 226.024C568.961 226.024 568.719 226.399 569.365 226.774Z" fill="#4A4A4A"/>
<path d="M0.207931 250.5L0 258L35.1404 257.683C54.478 257.472 69.3451 256.944 68.2015 256.415C67.0579 255.993 60.1962 255.887 52.9186 256.099C38.5713 256.732 27.5509 255.676 32.3333 254.197C33.7889 253.775 37.1158 253.458 39.9228 253.352C42.626 253.246 44.8092 252.718 44.8092 252.19C44.8092 251.556 46.2648 251.134 47.9282 251.134C51.0472 251.134 52.1908 249.655 49.7996 248.704C49.0718 248.493 48.656 247.965 48.9679 247.648C49.9036 246.592 59.5724 248.704 60.5081 250.183C61.1319 251.134 61.4438 251.239 61.4438 250.394C61.4438 249.021 66.0182 248.282 79.7417 247.542L89.0986 247.12L90.2423 250.183C90.97 251.979 90.97 253.458 90.4502 253.88C88.7867 254.937 89.5145 257.472 91.4898 257.472C93.2573 257.472 93.5692 256.521 93.8811 250.606C94.193 244.373 93.985 243.739 92.1136 243.528C90.97 243.423 69.865 243.317 45.2251 243.211L0.415863 243L0.207931 250.5ZM25.3676 256.099C24.6399 256.31 23.3923 256.31 22.7685 256.099C22.0407 255.782 22.5606 255.57 24.0161 255.57C25.4716 255.57 25.9914 255.782 25.3676 256.099Z" fill="#708090"/>
<path d="M666.043 243.207C665.939 243.311 666.043 246.422 666.147 250.156L666.563 257L681.737 256.793L697.016 256.585L682.257 256.274C668.434 255.963 667.394 255.756 667.394 253.889C667.394 252.852 667.914 251.607 668.434 251.296C669.057 250.985 669.473 249.533 669.473 248.289C669.473 244.97 672.383 244.556 691.819 244.763C711.047 244.97 718.53 245.489 717.803 246.733C717.491 247.148 721.856 247.356 727.572 246.941C737.446 246.319 737.862 246.422 738.589 248.6C738.901 249.741 739.941 250.778 740.772 250.778C741.604 250.778 742.227 251.193 742.227 251.711C742.227 252.126 744.618 252.852 747.424 253.163C754.284 253.993 756.154 255.237 752.101 256.067C749.607 256.585 750.126 256.793 754.491 256.896L760 257L759.688 249.948L759.376 243H712.814C687.142 243 666.147 243.104 666.043 243.207Z" fill="#708090"/>
<path d="M669.548 254.774C670.396 255.148 671.486 255.024 671.849 254.649C672.334 254.274 671.607 253.9 670.274 254.024C668.942 254.024 668.578 254.399 669.548 254.774Z" fill="#4A4A4A"/>
<path d="M0.0196212 269.958C-0.0839204 272.822 0.226704 275.025 0.847954 275.025C1.36566 275.025 1.88337 275.686 1.88337 276.458C1.88337 277.229 2.91879 277.89 4.26483 278C5.50733 278 5.92149 277.89 5.30024 277.559C4.57545 277.229 3.9542 276.568 3.9542 276.017C3.9542 275.356 4.78254 275.356 5.92149 276.127C9.02774 277.78 10.0632 277.449 9.33837 274.805C8.82066 272.602 9.13128 272.492 12.8588 273.153C15.0332 273.593 17.4146 274.585 18.0359 275.576C18.9677 276.788 21.3492 277.229 27.8723 277.229C35.1202 277.229 36.8804 276.898 38.33 275.136C39.5725 273.483 40.9186 273.263 45.2673 273.703C48.7877 274.034 50.5479 273.814 50.5479 272.932C50.5479 271.28 58.5206 271.39 59.1419 273.042C59.4525 274.144 59.9702 274.034 61.0056 272.712C61.834 271.61 63.5942 270.508 65.0438 270.068C67.1146 269.517 67.3217 269.627 66.0792 270.619C64.8367 271.72 64.8367 271.831 66.5969 271.169C72.7058 268.856 76.2263 268.305 79.8502 268.856C82.1281 269.297 84.5096 269.076 85.2344 268.415C86.7875 267.093 91.1362 267.424 92.1717 268.966C92.6894 269.627 93 269.517 93 268.636C93 267.864 92.3787 267.093 91.7575 266.763C91.0327 266.542 70.1173 266.102 45.2673 265.661L0.123163 265L0.0196212 269.958Z" fill="#708090"/>
<path d="M677.758 267.228C678.481 268.055 680.031 268.883 681.271 269.09C682.511 269.297 683.647 270.227 683.854 271.262C684.267 273.537 688.503 278.191 690.156 278.191C690.776 278.191 691.293 278.605 691.293 279.226C691.293 279.743 686.747 280.363 681.271 280.57C672.282 280.777 672.592 280.881 684.577 280.984C692.016 281.087 701.728 280.674 706.274 280.157C716.813 279.019 715.159 279.019 725.595 279.846C730.451 280.26 735.41 280.157 736.443 279.743C739.233 278.502 747.188 277.985 744.502 279.226C743.056 279.846 745.122 280.157 751.218 280.157L760 280.26L759.69 273.537L759.277 266.814L751.941 266.711C747.808 266.711 729.211 266.4 710.51 266.194C680.961 265.78 676.725 265.987 677.758 267.228ZM692.016 271.779C692.223 273.434 691.809 274.054 690.259 274.054C688.916 274.054 688.193 273.33 688.193 272.193C688.193 268.262 691.396 267.952 692.016 271.779Z" fill="#708090"/>
<path d="M667 273.517C667 274.888 667.308 275.378 667.769 274.692C668.077 274.105 668.077 272.93 667.769 272.244C667.308 271.657 667 272.147 667 273.517Z" fill="#4A4A4A"/>
<path d="M12.5285 277.769C13.5013 278.077 15.0147 278.077 15.7713 277.769C16.4199 277.308 15.6632 277 13.8256 277C12.0961 277 11.4475 277.308 12.5285 277.769Z" fill="#708090"/>
<path d="M0.103679 296.553L0.207358 304L33.903 303.894C52.4615 303.787 66.4582 303.574 65.0067 303.255C58.0602 302.191 57.5418 301.872 59.2007 300.277C60.8595 298.468 62.9331 298.149 62.9331 299.638C62.9331 300.17 62.1037 300.915 61.1706 301.128C60.1338 301.447 63.3478 301.66 68.4281 301.766C75.7893 301.872 77.4482 301.553 77.4482 300.277C77.4482 299.426 78.1739 298.681 79.107 298.681C80.0401 298.681 82.01 297.404 83.4615 295.702C86.3645 292.723 90.6154 292.298 92.1706 294.851C92.5853 295.489 93 294.532 93 292.723V289.426L46.5518 289.213L0 289L0.103679 296.553ZM69.0502 293.043C62.7258 293.468 62.2074 293.681 62.6221 295.489C63.0368 297.085 62.6221 297.617 60.9632 297.617C59.5117 297.617 58.786 296.979 58.786 295.596C58.786 292.83 60.1338 292.404 68.6354 292.617L75.893 292.723L69.0502 293.043ZM75.1672 296.234C74.7525 298.787 67.0803 299.638 67.0803 297.191C67.0803 295.383 68.6354 294.638 72.5752 294.532C74.8562 294.426 75.4783 294.851 75.1672 296.234Z" fill="#708090"/>
<path d="M675.478 289.755C679.017 289.971 681.932 290.619 681.932 291.158C681.932 291.806 686.824 292.237 693.277 292.237C702.646 292.237 704.728 292.561 705.248 293.964C706.185 296.554 706.185 296.554 702.229 296.554C700.252 296.554 698.586 296.014 698.586 295.475C698.586 294.827 698.17 294.396 697.545 294.396C697.025 294.396 696.504 295.367 696.504 296.554C696.504 297.957 695.776 298.712 694.422 298.712C690.259 298.712 692.445 300.871 696.817 300.978C699.939 301.086 698.482 301.518 691.82 302.489C682.764 303.784 683.493 303.784 709.516 304C724.401 304 741.888 303.784 748.342 303.353L760 302.705V295.799V289L714.512 289.216C689.426 289.324 671.835 289.54 675.478 289.755ZM699.939 290.835C696.921 291.05 691.924 291.05 689.01 290.835C685.991 290.619 688.385 290.511 694.422 290.511C700.46 290.511 702.854 290.619 699.939 290.835Z" fill="#708090"/>
<path d="M666.37 294.311C666.148 295.218 666 297.839 666 300.157C666.148 304.189 666.148 304.089 666.666 298.847C667.184 292.899 667.11 291.69 666.37 294.311Z" fill="#4A4A4A"/>
<path d="M70.365 303.774C70.9304 304.148 71.6573 304.024 71.8996 303.649C72.2226 303.274 71.7381 302.9 70.8496 303.024C69.9612 303.024 69.7189 303.399 70.365 303.774Z" fill="#4A4A4A"/>
<path d="M75.5285 303.769C76.5013 304.077 78.0147 304.077 78.7713 303.769C79.4199 303.308 78.6632 303 76.8256 303C75.0961 303 74.4475 303.308 75.5285 303.769Z" fill="#4A4A4A"/>
<path d="M710.222 312.574L663.97 312.901L662.933 319.866L662 326.94L667.911 327.593C671.126 328.028 674.237 328.137 674.652 327.81C675.17 327.484 683.467 327.048 693.319 326.831C703.067 326.722 710.533 326.178 710.015 325.851C709.393 325.416 702.756 325.307 695.289 325.525C683.778 325.851 682.533 325.634 687.2 324.763C691.452 323.892 692.593 323.13 692.593 321.498C692.593 319.539 693.422 319.43 704.519 319.43C715.615 319.43 716.444 319.539 716.444 321.498C716.444 322.913 717.274 323.783 718.83 324.001C720.489 324.328 719.867 324.763 716.444 325.634C712.607 326.722 716.03 326.831 735.111 326.722C749.215 326.613 758.756 326.069 759.17 325.416C759.585 324.763 760 321.498 760 318.016C760 312.683 759.689 311.812 758.237 312.03C757.2 312.248 735.63 312.465 710.222 312.574ZM688.444 321.172C688.444 322.042 687.511 322.695 686.37 322.695C684.089 322.695 683.467 319.866 685.644 319.104C687.304 318.451 688.444 319.213 688.444 321.172Z" fill="#708090"/>
<path d="M1.20771 320L1.41542 327H49.7077L98 326.892L97.273 321.938C96.9615 319.246 96.6499 316.123 96.6499 315.046C96.6499 313.108 94.7805 313 48.8769 313H1L1.20771 320Z" fill="#708090"/>
<path d="M672.446 336.217C666.216 336.425 660.712 336.945 660.401 337.36C659.985 337.776 658.947 340.582 658.012 343.492C656.663 348.376 656.663 349 658.012 349C659.155 349 659.362 348.376 658.947 346.921C658.532 345.778 658.739 344.843 659.362 344.843C659.985 344.843 660.505 343.492 660.505 341.829C660.505 339.439 661.024 338.711 663.308 338.192C666.216 337.36 667.774 338.711 667.774 341.933C667.774 343.076 668.604 343.804 669.85 343.804C671.2 343.804 671.927 343.076 671.927 341.829C671.927 340.79 672.55 339.647 673.277 339.335C673.9 339.127 682.415 339.023 692.072 339.231C701.833 339.335 710.141 339.231 710.66 338.919C711.179 338.607 721.355 338.296 733.297 338.296C745.239 338.192 755 337.88 755 337.36C755 336.945 745.55 336.529 734.024 336.529C722.394 336.529 706.402 336.321 698.407 336.113C690.411 335.905 678.781 336.009 672.446 336.217Z" fill="#708090"/>
<path d="M12.8691 337.904C9.35929 339.01 15.7595 339.211 45.3861 338.809C58.4961 338.608 71.8126 338.507 75.116 338.608C78.3161 338.708 81 338.407 81 337.904C81 336.699 16.5853 336.699 12.8691 337.904Z" fill="#708090"/>
<path d="M5.09023 339.178C5.40853 339.929 6.46951 340.787 7.42439 340.894C8.69757 341.216 9.22806 340.787 8.90977 339.822C8.59147 339.071 7.53049 338.213 6.57561 338.106C5.30243 337.784 4.77194 338.213 5.09023 339.178Z" fill="#708090"/>
<path d="M27.5476 340.774C28.3956 341.148 29.4859 341.024 29.8494 340.649C30.334 340.274 29.6071 339.9 28.2745 340.024C26.9418 340.024 26.5784 340.399 27.5476 340.774Z" fill="#4A4A4A"/>
<path d="M662 343.371C662 345.32 663.136 345.585 664.534 343.814C665.32 342.839 665.146 342.485 663.748 342.13C662.437 341.776 662 342.13 662 343.371Z" fill="#4A4A4A"/>
<path d="M8.09385 347.024C7.48443 348.151 10.0092 349.688 10.8798 348.663C11.228 348.356 10.7927 348.049 9.92212 348.049C9.13858 348.049 8.70328 347.537 8.96446 347.024C9.22564 346.41 9.3127 346 9.05152 346C8.79034 346 8.35503 346.512 8.09385 347.024Z" fill="#4A4A4A"/>
<path d="M668.548 348.774C669.396 349.148 670.486 349.024 670.849 348.649C671.334 348.274 670.607 347.9 669.274 348.024C667.942 348.024 667.578 348.399 668.548 348.774Z" fill="#4A4A4A"/>
<path d="M58.9879 370.042C58.2611 372.171 57.1189 373.185 55.7691 373.185C51.7196 373.185 52.2387 376.43 56.4959 377.646C57.7419 378.052 58.7803 379.167 58.7803 380.181C58.7803 381.094 59.4033 382.818 60.2339 383.831C61.5838 385.657 61.7914 385.555 63.2451 382.006C64.3873 379.37 65.5294 378.255 66.9831 378.255C70.202 378.255 69.6828 376.734 64.5949 371.664L60.0263 367L58.9879 370.042Z" fill="#4A4A4A"/>
<path d="M695.376 374.674C693.18 379.453 693.598 382.109 696.736 384.127C697.364 384.552 697.991 385.72 697.991 386.57C697.991 387.526 699.247 386.888 701.443 384.658L705 381.153L702.28 375.523C700.816 372.549 699.142 370 698.514 370C697.991 370 696.527 372.124 695.376 374.674Z" fill="#4A4A4A"/>
<path d="M209.679 401.423C204.054 406.387 203.291 407.711 208.535 403.409C212.539 400.21 214.732 397.893 213.778 398.004C213.588 398.004 211.776 399.548 209.679 401.423Z" fill="#4A4A4A"/>
<path d="M97.7822 401.361C97.0597 402.438 94.9956 403.515 93.3443 403.809C90.3514 404.201 90.3514 404.299 92.6219 404.984C94.17 405.474 95.202 406.747 95.6149 408.607C96.5437 413.013 98.711 413.111 102.942 408.999C106.658 405.474 106.658 405.376 104.697 404.005C103.562 403.222 101.91 401.949 100.982 401.067C99.3303 399.599 99.1239 399.599 97.7822 401.361Z" fill="#4A4A4A"/>
<path d="M659.899 401.597C658.921 402.996 657.401 404.195 656.532 404.195C654.033 404.195 654.577 405.793 658.269 409.09C662.505 412.986 663.809 412.986 667.285 408.99L670 405.793L667.285 404.694C665.764 404.195 663.918 402.597 663.157 401.398L661.745 399L659.899 401.597Z" fill="#4A4A4A"/>
<path d="M200.904 407.703C199.592 409.305 199.693 409.405 201.308 408.103C202.924 406.801 203.429 406 202.621 406C202.419 406 201.611 406.801 200.904 407.703Z" fill="#4A4A4A"/>
<path d="M480.774 421.118C482.303 423.217 483.64 425 483.927 425C484.596 425 480.487 418.915 479.245 418.076C478.576 417.656 479.34 419.02 480.774 421.118Z" fill="#4A4A4A"/>
<path d="M525.994 425.5C529.536 429.1 532.775 432 532.977 432C533.281 432 530.548 429.1 527.006 425.5C523.464 421.9 520.225 419 520.023 419C519.719 419 522.452 421.9 525.994 425.5Z" fill="#4A4A4A"/>
<path d="M535 435.379C535 435.581 535.799 436.389 536.797 437.096C538.294 438.408 538.394 438.307 537.096 436.692C535.799 435.076 535 434.571 535 435.379Z" fill="#4A4A4A"/>
<path d="M127.401 449.757L126.987 453.342L120.889 453.035C114.377 452.728 112 453.855 112 457.133C112 458.772 112.413 458.977 113.861 458.362C115.824 457.44 121.716 457.543 124.093 458.465C125.334 458.874 125.54 460.104 125.23 463.382C124.713 467.275 124.92 467.787 126.987 467.992C128.641 468.094 129.468 467.275 130.502 464.611C131.432 462.05 132.569 460.821 134.843 460.206C138.874 459.182 139.081 457.543 135.256 456.928C132.362 456.416 131.225 454.981 128.745 448.733C127.814 446.274 127.711 446.274 127.401 449.757Z" fill="#4A4A4A"/>
<path d="M633.626 450.834C632.398 453.87 631.068 455.287 628.202 456.4C624.109 458.12 623.904 460.144 627.793 461.055C629.43 461.46 630.863 463.079 632.193 465.913C634.752 471.277 637.617 471.378 639.357 466.116C640.175 463.585 641.608 462.067 644.371 460.752C648.976 458.525 649.18 457.412 645.087 456.501C642.017 455.793 638.538 452.352 637.412 448.81C636.389 445.875 635.366 446.482 633.626 450.834Z" fill="#4A4A4A"/>
<path d="M518 455.379C518 455.581 518.799 456.389 519.797 457.096C521.294 458.408 521.394 458.307 520.096 456.692C518.799 455.076 518 454.571 518 455.379Z" fill="#4A4A4A"/>
<path d="M848.067 166.333L837.667 166.867L837.4 214.2L837 261.533L848.6 261.133L860.333 260.733V242.333V224.067H876.733C885.667 224.067 893.8 224.6 894.867 225.267C896.467 226.2 896.6 229.667 895.933 243.667L895.133 260.733L907 261L919 261.267V216.067C919 191.267 919.4 170.067 919.8 168.867C920.467 167 919 166.733 908.067 166.733H895.4L896.067 184.733L896.733 202.733H878.467H860.333V184.067C860.333 173.8 859.933 165.533 859.4 165.667C858.733 165.8 853.667 166.2 848.067 166.333Z" fill="#4A4A4A"/>
<path d="M940.6 166.467L927 166.867L930.867 171.8C933.133 174.467 939.8 184.867 945.8 194.733C965.667 227.4 963.667 222.067 963.267 243L962.733 261.4H974.867C986.467 261.4 986.867 261.267 986.733 258.333C986.6 256.733 986.6 248.467 986.733 239.933L987 224.6L998.067 205.933C1004.2 195.8 1012.6 182.6 1016.73 176.867C1020.87 171 1024.07 166.067 1023.8 165.8C1023.67 165.533 1017 165.8 1009.27 166.333L995 167.133L986.2 183C981.267 191.667 976.867 199.133 976.2 199.533C975.533 199.8 973.533 197.133 971.8 193.533C969.933 189.933 965.667 183.133 962.333 178.333C959 173.533 956.333 169 956.333 168.333C956.333 166.2 955.4 166.067 940.6 166.467Z" fill="#4A4A4A"/>
<path d="M1032.87 166.6C1032.6 166.867 1032.33 188.333 1032.33 214.2V261.133L1045.13 260.867L1057.8 260.733L1057.53 255.4C1057.4 252.467 1057.4 246.333 1057.53 241.933L1057.67 233.667L1073.4 233.133C1091.13 232.467 1096.07 230.6 1104.6 221.8C1111 215.133 1113.67 208.6 1113.67 199.133C1113.67 189.533 1110.33 182.2 1103.67 176.2C1094.47 168.2 1091.8 167.533 1061.27 166.733C1045.93 166.333 1033.13 166.333 1032.87 166.6ZM1085.93 192.067C1089.4 195.667 1089.93 196.867 1089.27 201.133C1087.93 209.133 1084.73 210.733 1069.53 210.733H1056.33V199.4V188.067H1069.13C1081.53 188.067 1081.93 188.2 1085.93 192.067Z" fill="#4A4A4A"/>
<path d="M1335.53 167.533C1328.07 170.2 1319.13 178.067 1316.2 184.6C1312.87 191.933 1313 202.2 1316.33 207.667C1319.53 213 1328.47 219.667 1334.87 221.4C1337.53 222.067 1344.73 223.133 1351 223.667C1360.2 224.333 1362.73 225 1365.27 227.533C1367 229.267 1368.33 231.8 1368.33 233.267C1368.33 237.667 1363.67 239.133 1350.47 238.467C1341 238.067 1336.73 237.133 1330.73 234.467C1326.2 232.333 1323 231.533 1323 232.333C1323 233.267 1320.33 237.4 1317 241.533C1310.07 250.467 1309.13 249 1327 256.467C1359.8 269.933 1390.47 258.867 1392.07 232.867C1392.47 225.533 1392.07 224.067 1388.47 218.733C1383.13 210.6 1377.4 207.8 1358.6 203.4C1350.07 201.4 1341.67 198.733 1340.2 197.533L1337.53 195.4L1340.2 191.8C1341.8 189.8 1344.73 188.067 1347.27 187.667C1353.4 186.733 1366.73 189 1373 192.067C1375.8 193.533 1378.73 194.2 1379.27 193.667C1380.87 192.067 1389.67 177.133 1389.67 176.067C1389.67 175.4 1385 173 1379.4 170.6C1370.07 166.6 1367.53 166.067 1355 165.8C1345.13 165.533 1339.4 166.067 1335.53 167.533Z" fill="#4A4A4A"/>
<path d="M1521.67 171.533C1520.6 175.133 1517.8 182.6 1515.27 188.067C1512.73 193.533 1507.8 205.533 1504.07 214.733C1500.33 223.933 1495.13 236.733 1492.33 243.4C1484.33 262.6 1483.67 260.867 1498.47 260.333C1510.87 259.933 1511.13 259.8 1512.47 256.333C1515 249.533 1520.6 241 1521.53 242.467C1522.07 243.4 1529 244.067 1539.67 244.333L1557 244.733L1559.27 249.4C1560.47 251.933 1561.53 255.4 1561.67 257C1561.67 259.933 1562.07 260.067 1576.47 260.067C1588.2 260.067 1591 259.667 1589.93 258.333C1588.73 256.867 1551.27 174.733 1549.27 169C1548.73 167.533 1547 166.733 1543.93 166.733C1541.4 166.733 1535.8 166.333 1531.4 165.933L1523.4 165L1521.67 171.533ZM1542.87 209.8C1545.93 217.667 1548.33 224.333 1548.33 224.733C1548.33 225.133 1545.53 225.4 1542.07 225.4C1538.47 225.4 1533.4 225.933 1530.6 226.6C1525.8 227.8 1525.67 227.667 1526.33 225C1528.33 218.333 1536.73 194.733 1537.13 195C1537.27 195.267 1539.93 201.8 1542.87 209.8Z" fill="#4A4A4A"/>
<path d="M1624.07 167.933C1604.6 175.667 1593.67 193.133 1593.67 216.733C1593.67 233.4 1602.73 246.867 1620.47 256.733C1627.27 260.467 1628.6 260.733 1642.33 260.733C1655.67 260.733 1657.53 260.467 1663.67 257.133C1667.4 255.267 1673.27 251 1676.87 247.667L1683.53 241.8L1676.07 236.333C1671.93 233.267 1668.07 230.2 1667.67 229.267C1667 228.333 1665.8 228.733 1663.8 230.6C1656.33 237.667 1640.6 239.667 1631 234.733C1615 226.6 1613.13 203.667 1627.8 192.6C1632.33 189.133 1633.8 188.733 1642.87 188.733C1651.67 188.867 1654.07 189.4 1660.6 193L1668.33 197.133L1673.27 192.2C1676.07 189.4 1679.53 186.467 1681 185.667C1682.47 184.867 1683.4 184.067 1683 183.667C1665.93 169.133 1657.4 165.4 1641.27 165.4C1633.93 165.533 1628.2 166.333 1624.07 167.933Z" fill="#4A4A4A"/>
<path d="M1125.93 209.133C1125.67 232.333 1125.27 253.533 1124.87 256.2L1124.2 261L1161.53 260.867L1199 260.733V249V237.4L1182.07 237.267C1172.6 237.133 1161.4 236.733 1157 236.2L1149 235.4L1148.6 230.067L1148.2 224.733H1153.93C1157.13 224.733 1165.8 224.467 1173.4 224.333L1187 224.067V214.2V204.333L1168.33 203.4L1149.67 202.333V196.067V189.667L1161.13 188.733C1167.53 188.2 1178.2 188.067 1185.13 188.333L1197.53 189L1197.93 177.933L1198.33 166.733H1162.33H1126.33L1125.93 209.133Z" fill="#4A4A4A"/>
<path d="M1214.6 213.667L1215 260.733L1218.33 260.6C1220.2 260.6 1225.67 260.467 1230.47 260.333L1239.27 260.067L1238.33 246.867L1237.4 233.8L1243.8 233C1249.13 232.467 1250.87 232.733 1253.13 235C1257.27 238.733 1271 258.067 1271 260.067C1271 261.133 1272.07 261.4 1274.07 260.867C1275.67 260.467 1282.87 260.067 1290.07 260.067H1303.27L1297.27 253C1290.47 244.867 1281.67 232.333 1281.67 230.6C1281.67 229.933 1283.67 227.533 1286.2 225.4C1294.47 218.067 1298.73 204.733 1297 191.667C1296.2 185.533 1295.27 183.933 1289 177.8C1278.73 167.8 1274.07 166.733 1241.13 166.733H1214.33L1214.6 213.667ZM1269.8 191.933C1272.07 194.333 1273.67 197.267 1273.67 199.4C1273.67 201.533 1272.07 204.467 1269.8 206.867C1265.93 210.6 1265.53 210.733 1252.47 210.733H1239V200.2C1239 187.933 1238.07 188.6 1256.07 188.2C1265.27 188.067 1266.07 188.333 1269.8 191.933Z" fill="#4A4A4A"/>
<path d="M1408.47 213.267V260.067H1420.73H1433L1432.6 253.133C1432.47 249.267 1432.73 243.4 1433.27 240.067L1434.33 234.067L1449.67 233.267C1467 232.467 1473.93 230.2 1481.53 222.6C1487.53 216.6 1489.67 211.133 1489.67 201.8C1489.67 191 1487.53 184.733 1482.07 178.6C1472.6 168.067 1470.07 167.533 1437.4 167L1408.47 166.467V213.267ZM1462.6 192.6C1466.6 197.4 1466.6 203.267 1462.33 207.4C1459.4 210.467 1458.2 210.733 1445.67 210.733H1432.33V200.2V189.533L1438.07 189C1441.13 188.6 1447.27 188.467 1451.53 188.6C1458.33 188.867 1459.8 189.4 1462.6 192.6Z" fill="#4A4A4A"/>
<path d="M1695.53 168.867C1695.93 170.067 1696.33 191.133 1696.33 215.8V260.733L1733 261L1769.67 261.4V249.4V237.4H1745H1720.33V230.733V224.067H1739.53H1758.73L1759.53 219.933C1759.93 217.667 1760.33 213.133 1760.33 209.933C1760.33 202.733 1760.47 202.867 1737 202.333L1719.67 202.067L1719.27 195.667L1718.87 189.4H1744.33H1769.67L1769.4 178.067L1769 166.733H1731.8C1698.6 166.733 1694.73 167 1695.53 168.867Z" fill="#4A4A4A"/>
<path d="M1092.07 300.2L1091.67 316.467L1079.27 300.867L1066.87 285.4H1058.07H1049.4L1050.2 289.533C1050.6 291.8 1051 306.6 1051 322.2V350.733H1059.13H1067.27L1066.73 332.2C1066.2 309.667 1065.93 309.667 1083.27 333.667C1090.87 344.067 1096.33 350.333 1097.4 350.067C1098.47 349.667 1101.13 349.4 1103.4 349.4H1107.67L1107.27 317.8C1107 300.333 1106.73 286.067 1106.6 285.933C1106.47 285.8 1103.27 285.267 1099.4 284.733L1092.47 283.8L1092.07 300.2Z" fill="#4A4A4A"/>
<path d="M839 293V300.067H848.2H857.533L858.467 307.533C858.867 311.667 859 323 858.733 332.867L858.067 350.733H866.2H874.333L873.933 326.067L873.533 301.4H883.533H893.667V293.667V286.067H866.333H839V293Z" fill="#4A4A4A"/>
<path d="M905.667 308.333C906.2 329.133 906.6 331.933 909.267 336.067C915.533 346.067 923.667 350.733 935.267 350.733C944.867 350.733 952.6 346.733 958.067 339L962.333 332.733V309.133V285.4H954.733H947V306.2V327L943.133 330.867C941 333 937.8 334.733 936.067 334.733C931.667 334.733 924.467 329.933 923 325.933C922.2 324.067 921.667 314.2 921.667 303.933V285.4H913.4H905L905.667 308.333Z" fill="#4A4A4A"/>
<path d="M979.8 286.333C977.533 287 977.4 287.933 978.2 299.933C978.6 307 979 321.267 979 331.667V350.733H986.733H994.333L993.933 336.333C993.667 328.467 994.067 320.733 994.6 319.133C995.667 316.333 996.333 317 1002.6 326.467C1006.33 332.067 1012.33 339.933 1015.67 343.667C1021.4 350.2 1022.33 350.733 1027.8 350.733H1033.8L1033.4 318.067L1033 285.4H1025.13H1017.4L1017.8 300.733C1018.07 309.133 1018.07 316.067 1017.53 316.067C1017.13 316.067 1015.4 314.067 1013.67 311.667C1011.93 309.4 1005.93 302.467 1000.47 296.333C990.067 285 988.333 284.2 979.8 286.333Z" fill="#4A4A4A"/>
<path d="M1122.07 308.733C1122.6 321.133 1123 335.8 1123 341V350.733H1145.67H1168.2L1167.4 343.667C1167 339.933 1166.47 336.467 1166.2 336.333C1166.07 336.067 1159.8 335.533 1152.47 335.133L1139 334.333V329.267V324.067H1149.53H1160.07L1160.6 317.933C1160.87 314.6 1160.73 311.667 1160.47 311.267C1160.2 311 1154.87 310.733 1148.87 310.733C1138.07 310.733 1137.67 310.6 1136.87 307.4C1135.13 300.6 1136.33 300.067 1152.87 300.067H1168.33L1167.4 293.667C1167 290.2 1166.6 287.267 1166.47 287.133C1166.33 287 1156.2 286.733 1143.8 286.467L1121.27 286.067L1122.07 308.733Z" fill="#4A4A4A"/>
<path d="M1181 298.467C1181 305.533 1180.73 320.067 1180.47 330.733L1180.07 350.067H1203.53H1227V342.6C1227 336.867 1226.47 334.867 1224.87 334.2C1223.67 333.8 1216.73 333.4 1209.4 333.4H1195.93L1196.87 314.333C1197.4 303.933 1198.07 293.267 1198.47 290.733L1199.13 286.067L1190.07 285.8L1181 285.533V298.467Z" fill="#4A4A4A"/>
<path d="M1235 317.4V349.267L1258.33 349.667L1281.67 350.067V342.467V334.867L1274.33 334.067C1270.2 333.533 1263.67 333.4 1259.67 333.667C1250.87 334.467 1251.53 336.067 1250.2 306.333L1249.4 285.4H1242.2H1235V317.4Z" fill="#4A4A4A"/>
<path d="M1293.67 311.933C1293.67 326.467 1293.27 341.133 1292.87 344.6C1292.07 349.8 1292.33 350.733 1294.07 350.067C1295.13 349.533 1299.13 349.8 1303 350.467L1310.07 351.8L1309.13 333.667C1308.73 323.8 1308.33 308.867 1308.33 300.467V285.4H1301H1293.67V311.933Z" fill="#4A4A4A"/>
<path d="M1326.2 291.4C1325.8 294.733 1325.67 309.267 1326.07 323.8L1326.87 350.067L1334.2 350.467L1341.67 350.867V334.067C1341.67 324.067 1342.2 317.4 1343 317.4C1343.67 317.4 1349.53 324.467 1355.93 333C1362.33 341.667 1368.07 349 1368.6 349.4C1369 349.8 1372.6 350.067 1376.33 350.067H1383.27L1383.53 317.8L1383.67 285.4H1376.07H1368.33L1368.2 299.667C1368.07 307.667 1367.67 315.8 1367.13 318.067L1366.33 322.067L1362.47 315.4C1357.53 306.867 1346.73 293.267 1341.53 288.733C1338.73 286.467 1335.93 285.4 1332.33 285.4C1327.27 285.4 1327.13 285.533 1326.2 291.4Z" fill="#4A4A4A"/>
<path d="M1418.2 287.933C1405 293.933 1397.67 304.333 1397.67 317.133C1397.67 345.4 1431.4 361 1454.6 343.267L1459.13 339.8L1458.73 326.467L1458.33 313L1444.6 312.867C1431.53 312.733 1431 312.867 1431 315.533C1431 317.133 1430.6 320.333 1430.2 322.6L1429.4 326.733H1436.87C1443.27 326.733 1444.33 327.133 1444.33 329.267C1444.33 338.467 1422.6 336.467 1416.6 326.733C1414.07 322.467 1413.27 313.133 1415.27 309.4C1417.93 304.467 1425.27 300.067 1431 300.067C1434.2 300.067 1437.8 301.4 1441.13 303.533L1446.2 307L1448.87 303.267C1450.47 301.133 1452.6 298.6 1453.93 297.533C1455.93 295.8 1455.93 295.4 1453 293.133C1443.27 285.533 1428.47 283.267 1418.2 287.933Z" fill="#4A4A4A"/>
<path d="M1522.47 288.6C1515.13 292.333 1507.8 298.867 1504.6 304.733C1501.8 310.067 1501.8 324.733 1504.73 330.2C1510.87 342.067 1521.27 349.267 1533.67 350.333C1540.33 351 1542.6 350.6 1548.6 347.667C1552.47 345.667 1557.27 342.733 1559.27 341.133L1562.87 338.067L1556.87 332.867L1550.87 327.667L1547.13 331.267C1539.8 338.333 1525.4 334.6 1519.93 324.067C1512.2 308.867 1531.67 293.533 1546.2 303.4L1551.27 306.867L1556.47 301.533L1561.8 296.333L1557.4 293C1545.93 284.333 1534.2 283 1522.47 288.6Z" fill="#4A4A4A"/>
<path d="M1588.73 288.6C1578.07 293.533 1571.53 301 1569.67 310.067C1567.13 322.467 1570.6 333.267 1579.67 341.133C1586.6 347.267 1591.8 349.667 1600.2 350.333C1609.13 351.133 1615.4 348.733 1623.13 341.8C1637 329.267 1638.6 310.2 1626.87 296.867C1616.6 285.267 1602.6 282.2 1588.73 288.6ZM1609.67 301.4C1613 303.133 1619 313.4 1619 317.267C1619 320.867 1611.93 331.4 1608.33 333.4C1601.93 336.733 1590.87 333 1587.4 326.2C1584.6 320.867 1584.6 312.067 1587.4 308.067C1592.33 301 1603 297.8 1609.67 301.4Z" fill="#4A4A4A"/>
<path d="M1717.93 317.667L1718.33 349.4H1723.67C1726.6 349.4 1730.33 349.8 1732.07 350.2C1735.13 351.133 1735.13 351 1734.87 341.267L1734.6 331.4L1745.8 330.733C1765.53 329.4 1773.93 321.267 1771.67 305.667C1771 300.6 1769.67 298.333 1764.87 293.8C1758.2 287.267 1756.6 287 1733.93 286.467L1717.67 286.067L1717.93 317.667ZM1753.13 303.4C1755.4 306.467 1755.53 312.333 1753.4 314.467C1752.47 315.4 1748.07 316.067 1742.73 316.067H1733.67V309C1733.67 305 1734.07 301.4 1734.73 300.867C1735.27 300.333 1739.13 300.067 1743.53 300.333C1749.13 300.733 1751.8 301.667 1753.13 303.4Z" fill="#4A4A4A"/>
<path d="M1648.6 318.333L1648.73 350.067H1657.53H1666.33L1665.93 340.333C1665.53 331.533 1665.67 330.733 1668.07 330.733C1670.47 330.733 1683.67 344.6 1685.27 348.867C1685.93 350.733 1701.27 351.133 1702.47 349.267C1702.87 348.6 1701.13 345.4 1698.6 342.333C1690.33 332.2 1690.2 331.4 1695.8 326.467C1708.73 315.133 1707 297.133 1692.33 289.667C1687 287 1684.47 286.733 1667.4 286.733H1648.33L1648.6 318.333ZM1686.47 303.4C1688.87 306.733 1688.87 311.267 1686.33 313.4C1685.13 314.333 1679.8 315.4 1674.33 315.8L1664.33 316.467V310.333C1664.33 300.067 1664.73 299.667 1675.4 300.333C1682.47 300.733 1685 301.4 1686.47 303.4Z" fill="#4A4A4A"/>
<path d="M1670.33 396.6C1633.67 397.133 1572.47 397.8 1534.33 397.933C1394.73 398.2 1341.27 398.733 1342.2 399.667C1342.73 400.2 1361 400.733 1382.73 400.867C1404.47 400.867 1428.07 401.133 1435 401.4L1447.67 401.933L1437.67 402.733C1425.13 403.667 1683.8 403 1729.4 401.933L1763 401.133V397.8C1763 394.6 1763 394.6 1750.07 395C1742.87 395.267 1707 395.933 1670.33 396.6Z" fill="#4A4A4A"/>
<path d="M851 398.333C851 401 851.933 401.133 867.4 401.8C876.333 402.2 931.4 402.467 989.667 402.333C1047.93 402.067 1125.4 402.467 1161.67 403.133C1212.2 404.067 1231.53 403.933 1244.33 402.6C1262.73 400.867 1305.67 400.2 1305.67 401.667C1305.67 403.133 1310.73 403 1311.67 401.533C1312.07 400.733 1309.8 399.933 1306.73 399.533C1303.53 399.133 1246.07 398.467 1179 398.067C1111.93 397.667 1010.6 397 954.067 396.467L851 395.667V398.333Z" fill="#4A4A4A"/>
<path d="M1325 400.067C1328.73 400.6 1330.2 401.133 1328.47 401.133C1326.73 401.267 1325.53 401.8 1326.07 402.2C1326.47 402.733 1329.8 402.6 1333.27 402.067C1338.87 401.133 1339.27 400.867 1336.33 399.933C1334.47 399.4 1329.67 399 1325.67 399.133H1318.33L1325 400.067Z" fill="#4A4A4A"/>
<path d="M1300.07 403.667C1301 404.067 1302.2 403.933 1302.6 403.533C1303.13 403.133 1302.33 402.733 1300.87 402.867C1299.4 402.867 1299 403.267 1300.07 403.667Z" fill="#4A4A4A"/>
</svg>
